SplineFontDB: 3.2
FontName: PF2ESymbols
FullName: PF2ESymbols
FamilyName: PF2ESymbols
Weight: Regular
Copyright: Portions Copyright 2001-2021 The STIX Fonts Project Authors https:github.comstipubstixfonts\n\nPortions Copyright (c) 2023, Tobias Nett
UComments: "2023-8-14: Created with FontForge (http://fontforge.org)"
FontLog: "- add dice ligatures (d4, d6, d8, d10, d12, d20)+AAoA-- add success level ligatures (critial-success, success, failure, critical-failure)+AAoACgAA-- rework symbols for Degrees of Success"
Version: 001.002
ItalicAngle: 0
UnderlinePosition: -100
UnderlineWidth: 50
Ascent: 800
Descent: 200
InvalidEm: 0
LayerCount: 2
Layer: 0 0 "Back" 1
Layer: 1 0 "Fore" 0
XUID: [1021 540 1962704958 6508036]
StyleMap: 0x0000
FSType: 0
OS2Version: 0
OS2_WeightWidthSlopeOnly: 0
OS2_UseTypoMetrics: 1
CreationTime: 1692042723
ModificationTime: 1692179095
OS2TypoAscent: 0
OS2TypoAOffset: 1
OS2TypoDescent: 0
OS2TypoDOffset: 1
OS2TypoLinegap: 90
OS2WinAscent: 0
OS2WinAOffset: 1
OS2WinDescent: 0
OS2WinDOffset: 1
HheadAscent: 0
HheadAOffset: 1
HheadDescent: 0
HheadDOffset: 1
Lookup: 4 0 1 "'liga' Standard Ligatures in Latin lookup 0" { "'liga' Standard Ligatures in Latin lookup 0-1"  } ['liga' ('DFLT' <'dflt' > 'latn' <'dflt' > ) ]
MarkAttachClasses: 1
DEI: 91125
LangName: 1033 "" "" "" "" "" "" "" "" "" "" "" "" "" "This Font Software is licensed under the SIL Open Font License, Version 1.1.+AAoA-This license is copied below, and is also available with a FAQ at:+AAoA-http://scripts.sil.org/OFL" "http://scripts.sil.org/OFL"
Encoding: Custom
UnicodeInterp: none
NameList: AGL For New Fonts
DisplaySize: -48
AntiAlias: 1
FitToEm: 0
WinInfo: 0 16 10
BeginPrivate: 0
EndPrivate
Grid
783.995239258 1300 m 0
 783.995239258 -700 l 1024
  Named: "mid-dice"
-1000 952.449584961 m 0
 2000 952.449584961 l 1024
  Named: "ascender-dice"
-1000 -158.399993896 m 0
 2000 -158.399993896 l 1024
  Named: "baseline-dice"
EndSplineSet
BeginChars: 101 100

StartChar: a
Encoding: 39 97 0
Width: 480
Flags: W
HStem: -7 55<176.5 189> -5 60<346 423.5> 454 31<182.5 241>
VStem: 38 88<104 168 104 171> 58 86<358.5 403> 301 83<92 104 104 257 257 257 290 331> 308 76<62 104>
LayerCount: 2
Fore
SplineSet
195 -7 m 0xb4
 118 -7 76 41 76 105 c 0xb4
 76 237 253 263 339 290 c 1
 339 334 l 2
 339 421 309 454 249 454 c 0
 192 454 182 433 182 373 c 0
 182 342 166 327 138 327 c 0
 118 327 96 342 96 375 c 0
 96 431 163 485 272 485 c 0
 381 485 422 435 422 331 c 2
 422 104 l 2
 422 63 431 55 452 55 c 0
 471 55 485 65 499 80 c 1
 514 64 l 1x6c
 481 16 457 -5 406 -5 c 0x72
 362 -5 352 18 346 62 c 1
 342 62 l 1xb2
 295 21 259 -7 195 -7 c 0xb4
339 92 m 1
 339 257 l 1
 248 234 164 207 164 129 c 0
 164 79 193 48 236 48 c 0
 269 48 305 64 339 92 c 1
EndSplineSet
Validated: 1
EndChar

StartChar: b
Encoding: 40 98 1
Width: 522
Flags: W
HStem: -10 41<238.5 312.5 238.5 316.5> 417 68<286.5 323.5> 645 26<8 55> 651 20G<8 8> 686 20G<137 163 163 163>
VStem: 80 83<78 356 400 592 592 614.5> 396 91<175.5 279>
LayerCount: 2
Fore
SplineSet
145 706 m 1xde
 171 706 l 1
 171 400 l 1
 174 400 l 1
 209 442 261 485 328 485 c 0
 427 485 495 393 495 263 c 0
 495 84 394 -10 255 -10 c 0
 170 -10 112 17 88 30 c 1
 88 592 l 2
 88 637 82 645 44 645 c 0
 28 645 16 643 16 643 c 1xee
 16 671 l 1
 145 706 l 1xde
171 356 m 1
 171 78 l 1
 190 55 220 31 273 31 c 0
 368 31 404 120 404 231 c 0
 404 327 379 417 284 417 c 0
 233 417 189 380 171 356 c 1
EndSplineSet
Validated: 1
EndChar

StartChar: c
Encoding: 41 99 2
Width: 446
Flags: W
HStem: -10 75<212.5 286.5> 448 37<201.5 285>
VStem: 33 79<212 304.5>
LayerCount: 2
Fore
SplineSet
441 148 m 1
 460 134 l 1
 422 53 373 -10 266 -10 c 0
 141 -10 66 87 66 226 c 0
 66 383 148 485 292 485 c 0
 386 485 444 437 444 379 c 0
 444 350 430 334 402 334 c 0
 328 334 361 448 275 448 c 0
 194 448 145 388 145 273 c 0
 145 151 194 65 297 65 c 0
 362 65 396 90 441 148 c 1
EndSplineSet
Validated: 1
EndChar

StartChar: d
Encoding: 42 100 3
Width: 539
Flags: W
HStem: -8 72<208.5 237> -5 21G<363 386 363 363> 18 27<493 514> 445 40<219 279 200 292> 645 26<290 335.5> 651 20G<290 290> 686 20G<416 443 443 443>
VStem: 33 87<189 301.5> 360 83<101 107 107 365 365 365 461 592 592 614> 363 80<-5 107 64 107>
LayerCount: 2
Fore
SplineSet
237 -8 m 0x9780
 124 -8 66 91 66 219 c 0
 66 384 170 485 296 485 c 0
 328 485 359 477 389 461 c 1
 393 461 l 1
 393 592 l 2
 393 636 388 645 349 645 c 0
 340 645 323 643 323 643 c 1x9b80
 323 671 l 1
 449 706 l 1
 476 706 l 1
 476 107 l 2
 476 55 489 45 526 45 c 2
 547 45 l 1
 547 18 l 1x3780
 419 -5 l 1x5780
 396 -5 l 1x5740
 396 64 l 1
 392 64 l 1x9740
 354 30 303 -8 237 -8 c 0x9780
284 64 m 0
 331 64 358 77 393 101 c 1
 393 365 l 1
 385 406 356 445 294 445 c 0
 210 445 153 384 153 258 c 0
 153 120 199 64 284 64 c 0
EndSplineSet
Validated: 1
EndChar

StartChar: e
Encoding: 43 101 4
Width: 464
Flags: W
HStem: -10 75<230 298.5> 266 37<115 337 115 431 114 337> 445 40<195 265.5>
VStem: 34 80<266 266 266 321.5> 34 81<303 303 303 321.5> 337 94<266 303>
LayerCount: 2
Fore
SplineSet
281 -10 m 0xf4
 161 -10 68 77 68 238 c 0
 68 405 162 485 279 485 c 0
 388 485 460 406 465 266 c 1
 148 266 l 1
 150 130 223 65 305 65 c 0
 386 65 417 101 449 143 c 1
 468 129 l 1
 432 53 384 -10 281 -10 c 0xf4
149 303 m 1xec
 371 303 l 1
 368 377 335 445 264 445 c 0
 194 445 156 394 149 303 c 1xec
EndSplineSet
Validated: 1
EndChar

StartChar: f
Encoding: 44 102 5
Width: 307
Flags: W
HStem: 0 29<18 54.5 245.5 287 18 54.5> 426 42<26 102 26 102 185 307> 676 37<232 245>
VStem: 102 83<119 426>
LayerCount: 2
Fore
SplineSet
305 0 m 1
 36 0 l 1
 36 29 l 1
 109 29 120 41 120 119 c 2
 120 426 l 1
 44 426 l 1
 44 468 l 1
 120 468 l 1
 121 559 129 598 152 640 c 0
 179 686 215 713 285 713 c 0
 350 713 397 688 397 643 c 0
 397 614 379 600 356 600 c 0
 330 600 317 620 302 639 c 0
 289 658 275 676 251 676 c 0
 214 676 203 646 203 562 c 2
 203 468 l 1
 325 468 l 1
 325 426 l 1
 203 426 l 1
 203 119 l 2
 203 41 222 29 305 29 c 1
 305 0 l 1
EndSplineSet
Validated: 1
EndChar

StartChar: g
Encoding: 45 103 6
Width: 484
Flags: W
HStem: -235 57<198 254> -12 76<240 249 240 241.5> -2 21G<102 102> 156 35<221 263 205.5 289.5> 414.5 52.5 449 36<199 253 179 257>
VStem: 21 78<-120 -108.5> 46 79<54.5 112.5> 51 88<289.5 368 283 372> 325 89<266.5 333> 414 51<-104.5 -48.5>
LayerCount: 2
Fore
SplineSet
212 -235 m 0xd620
 81 -235 42 -180 42 -125 c 0xd620
 42 -92 69 -58 123 -6 c 1
 123 -2 l 1
 95 10 67 39 67 70 c 0xb520
 67 106 102 148 149 184 c 1
 149 186 l 1
 101 213 72 257 72 322 c 0
 72 422 147 485 253 485 c 0xd4c0
 295 485 333 476 365 460 c 1
 493 467 l 1
 493 413 l 1
 399 416 l 1
 399 411 l 1
 413 391 435 358 435 308 c 0
 435 215 363 156 258 156 c 0
 226 156 198 162 172 171 c 1
 162 157 146 121 146 104 c 0xd940
 146 74 172 64 264 64 c 0
 390 64 486 60 486 -55 c 0
 486 -189 338 -235 212 -235 c 0xd620
148 -10 m 1
 127 -47 120 -70 120 -91 c 0
 120 -149 168 -178 270 -178 c 0
 388 -178 435 -126 435 -83 c 0
 435 -14 337 -13 270 -12 c 0
 267 -12 264 -12 261 -12 c 0
 181 -11 162 -10 148 -10 c 1
259 191 m 0xd4c0
 309 191 346 219 346 314 c 0
 346 395 310 449 246 449 c 0
 194 449 160 410 160 326 c 0
 160 240 194 191 259 191 c 0xd4c0
EndSplineSet
Validated: 1
EndChar

StartChar: h
Encoding: 46 104 7
Width: 577
Flags: W
HStem: 0 29<30 56 222.5 257 30 56 326 360.5 524.5 556> 421 64<321.5 347.5> 645 26<22 64.5> 651 20G<22 22> 686 20G<156 183 183 183>
VStem: 100 83<93 97 97 359 403 605 605 622.5> 399 83<97 101 101 270 270 300>
LayerCount: 2
Fore
SplineSet
578 0 m 1xde
 348 0 l 1
 348 29 l 1
 417 29 421 49 421 97 c 2
 421 270 l 2
 421 352 410 421 329 421 c 0
 290 421 254 404 205 359 c 1
 205 97 l 2
 205 45 210 29 279 29 c 1
 279 0 l 1
 52 0 l 1
 52 29 l 1
 104 29 122 37 122 93 c 2
 122 605 l 2
 122 640 100 645 73 645 c 0
 57 645 44 643 44 643 c 1xee
 44 671 l 1
 178 706 l 1
 205 706 l 1
 205 403 l 1
 208 403 l 1
 271 462 317 485 370 485 c 0
 485 485 504 382 504 300 c 2
 504 101 l 2
 504 48 515 29 578 29 c 1
 578 0 l 1xde
EndSplineSet
Validated: 1
EndChar

StartChar: i
Encoding: 47 105 8
Width: 285
Flags: W
HStem: 0 28<32 65.5 223.5 257 32 65.5> 462 20G<159 185 185 185> 560 113<128 162.5>
VStem: 88 114<601.5 632> 102 83<101 380 380 401.5>
LayerCount: 2
Fore
SplineSet
289 0 m 1xe8
 64 0 l 1
 64 28 l 1
 131 28 134 44 134 101 c 2
 134 380 l 2
 134 423 119 427 90 427 c 0
 76 427 65 425 65 425 c 1
 65 454 l 1
 191 482 l 1
 217 482 l 1
 217 101 l 2
 217 43 222 28 289 28 c 1
 289 0 l 1xe8
177 560 m 0xf0
 143 560 120 586 120 617 c 0
 120 647 142 673 177 673 c 0
 212 673 234 647 234 617 c 0
 234 586 212 560 177 560 c 0xf0
EndSplineSet
Validated: 1
EndChar

StartChar: j
Encoding: 48 106 9
Width: 263
Flags: W
HStem: -235 44<24 70> 462 20G<156 183 183 183> 560 113<122 156.5>
VStem: 81 117<601.5 632> 100 83<-32 -2 -2 373 373 395>
LayerCount: 2
Fore
SplineSet
-84 -235 m 0xe8
 -150 -235 -190 -207 -190 -163 c 0
 -190 -138 -173 -121 -146 -121 c 0
 -98 -121 -94 -191 -48 -191 c 0
 1 -191 5 -139 5 -32 c 2
 5 373 l 2
 5 417 -3 427 -39 427 c 0
 -55 427 -69 424 -69 424 c 1
 -69 454 l 1
 61 482 l 1
 88 482 l 1
 88 -2 l 2
 88 -160 34 -235 -84 -235 c 0xe8
44 560 m 0xf0
 10 560 -14 586 -14 617 c 0
 -14 647 8 673 44 673 c 0
 79 673 103 647 103 617 c 0
 103 586 79 560 44 560 c 0xf0
EndSplineSet
Validated: 1
EndChar

StartChar: k
Encoding: 49 107 10
Width: 542
Flags: W
HStem: 0 29<30 60 225.5 257 30 60 318 332.5 518 539> 243 22<183 189 183 189> 443 30<287 306 470.5 503> 646 25 686 20G<156 183 183 183>
VStem: 100 83<95 243 265 595 595 616> 287 216<443 473 443 473>
LayerCount: 2
Fore
SplineSet
283 0 m 1
 56 0 l 1
 56 29 l 1
 116 29 126 40 126 95 c 2
 126 595 l 2
 126 637 119 646 86 646 c 0
 72 646 52 644 52 644 c 1
 52 671 l 1
 182 706 l 1
 209 706 l 1
 209 265 l 1
 215 265 l 1
 344 393 l 2
 348 397 362 409 362 425 c 0
 362 438 351 443 313 443 c 1
 313 473 l 1
 529 473 l 1
 529 443 l 1
 464 443 446 425 333 326 c 1
 283 285 l 1
 459 87 l 2
 507 32 523 29 565 29 c 1
 565 0 l 1
 344 0 l 1
 344 29 l 1
 373 29 383 32 383 41 c 0
 383 50 377 60 372 65 c 2
 215 243 l 1
 209 243 l 1
 209 91 l 2
 209 40 220 29 283 29 c 1
 283 0 l 1
EndSplineSet
Validated: 1
EndChar

StartChar: l
Encoding: 50 108 11
Width: 283
Flags: W
HStem: 0 29<30 63 224 260 30 63> 646 25<26 70.5> 686 20G<158 183 183 183>
VStem: 100 83<101 603 603 623.5>
LayerCount: 2
Fore
SplineSet
286 0 m 1
 56 0 l 1
 56 29 l 1
 122 29 126 45 126 101 c 2
 126 603 l 2
 126 644 109 646 84 646 c 0
 67 646 52 644 52 644 c 1
 52 671 l 1
 184 706 l 1
 209 706 l 1
 209 101 l 2
 209 43 214 29 286 29 c 1
 286 0 l 1
EndSplineSet
Validated: 1
EndChar

StartChar: m
Encoding: 51 109 12
Width: 852
Flags: W
HStem: 0 29<32 63.5 229 260 32 63.5 313 348.5 514 550 603 637 794.5 829> 421 64<320 333 601.5 611.5> 462 20G<158 182 182 182>
VStem: 102 80<101 482 381 482> 102 83<101 357> 390 83<116 314 314 356.5> 674 83<116 308 308 320>
LayerCount: 2
Fore
SplineSet
582 0 m 1xce
 345 0 l 1
 345 29 l 1
 416 29 422 46 422 116 c 2
 422 314 l 2
 422 399 388 421 342 421 c 0
 290 421 245 384 217 357 c 1xce
 217 97 l 2
 217 41 230 29 292 29 c 1
 292 0 l 1
 64 0 l 1
 64 29 l 1
 127 29 134 41 134 101 c 2
 134 381 l 2
 134 417 120 426 92 426 c 0
 77 426 65 424 65 424 c 1
 65 453 l 1
 190 482 l 1xae
 214 482 l 1xb6
 214 401 l 1
 218 401 l 1xd6
 272 448 318 485 386 485 c 0
 443 485 477 450 497 402 c 1
 501 402 l 1
 556 456 607 485 660 485 c 0
 738 485 789 441 789 320 c 2
 789 116 l 2
 789 53 792 29 861 29 c 1
 861 0 l 1
 635 0 l 1
 635 29 l 1
 703 29 706 55 706 116 c 2
 706 308 l 2
 706 399 667 421 620 421 c 0
 579 421 538 387 505 359 c 1
 505 116 l 2
 505 47 510 29 582 29 c 1
 582 0 l 1xce
EndSplineSet
Validated: 1
EndChar

StartChar: n
Encoding: 52 110 13
Width: 576
Flags: W
HStem: 0 28<32 65.5 225 261 32 65.5 324 359.5 521.5 555> 421 64<315.5 328.5> 462 20G<160 183 183 183>
VStem: 102 80.5 102 83<101 358> 398 83<101 282 282 307>
LayerCount: 2
Fore
SplineSet
587 0 m 1xcc
 356 0 l 1
 356 28 l 1
 427 28 430 45 430 101 c 2
 430 282 l 2
 430 402 383 421 338 421 c 0
 284 421 247 385 217 358 c 1xcc
 217 101 l 2
 217 45 221 28 293 28 c 1
 293 0 l 1
 64 0 l 1
 64 28 l 1
 131 28 134 45 134 101 c 2
 134 382 l 2
 134 418 119 426 92 426 c 0
 75 426 65 424 65 424 c 1
 65 453 l 1
 192 482 l 1xac
 215 482 l 1xb4
 214 401 l 1
 218 401 l 1xd4
 272 449 316 485 379 485 c 0
 470 485 513 422 513 307 c 2
 513 101 l 2
 513 45 520 28 587 28 c 1
 587 0 l 1xcc
EndSplineSet
Validated: 1
EndChar

StartChar: o
Encoding: 53 111 14
Width: 514
Flags: W
HStem: -10 40<262 303 262 323> 447 38<216 298.5>
VStem: 34 93<175.5 314.5> 388 92<162 302.5>
LayerCount: 2
Fore
SplineSet
292 -10 m 0
 152 -10 68 80 68 242 c 0
 68 387 157 485 292 485 c 0
 429 485 514 394 514 246 c 0
 514 78 422 -10 292 -10 c 0
296 30 m 0
 378 30 422 78 422 241 c 0
 422 364 377 447 288 447 c 0
 212 447 161 383 161 255 c 0
 161 96 210 29 296 30 c 0
EndSplineSet
Validated: 33
EndChar

StartChar: p
Encoding: 54 112 15
Width: 537
Flags: W
HStem: -220 28<22 53.5 22 275 22 53.5> -220 29<236 275 236 275> -10 39<264 323 260 343> 417 68<304.5 330> 427 27<25 73.5> 462 20G<151 176 176 176>
VStem: 95 81<-119 482 376 482> 95 83<-119 -113 -113 18 95 356> 411 91<176 296>
LayerCount: 2
Fore
SplineSet
297 -220 m 1x7180
 44 -220 l 1x7180
 44 -192 l 1
 107 -192 117 -175 117 -119 c 2
 117 376 l 2
 117 414 112 427 79 427 c 0
 66 427 47 425 47 425 c 1
 47 454 l 1xa980
 173 482 l 1x6580
 198 482 l 1x6680
 198 398 l 1
 201 398 l 1x7280
 249 454 297 485 356 485 c 0
 455 485 524 392 524 261 c 0
 524 91 425 -10 305 -10 c 0
 267 -10 233 -2 204 18 c 1
 200 18 l 1
 200 -113 l 2
 200 -178 219 -191 297 -191 c 1
 297 -220 l 1x7180
310 29 m 0
 380 29 433 94 433 233 c 0
 433 359 389 417 315 417 c 0
 262 417 219 381 200 356 c 1
 200 95 l 1
 219 74 254 29 310 29 c 0
EndSplineSet
Validated: 1
EndChar

StartChar: q
Encoding: 55 113 16
Width: 521
Flags: W
HStem: -220 28<265 305.5 479 507 265 305.5> -8 73<201 235.5> 445 40<216 280 195.5 284.5> 461 20G<404 441 441 441>
VStem: 33 86<203.5 300> 358 83<-113 63 63 63 103 366 366 366>
LayerCount: 2
Fore
SplineSet
540 -220 m 1xec
 298 -220 l 1
 298 -192 l 1
 379 -192 391 -175 391 -113 c 2
 391 63 l 1
 388 63 l 1
 344 24 301 -8 236 -8 c 0
 132 -8 66 81 66 220 c 0
 66 380 165 485 292 485 c 0
 334 485 368 476 410 448 c 1xec
 437 481 l 1
 474 481 l 1xdc
 474 -124 l 2
 474 -175 484 -192 540 -192 c 1
 540 -220 l 1xec
284 65 m 0
 333 65 363 80 391 103 c 1
 391 366 l 1
 378 416 344 445 291 445 c 0
 207 445 152 383 152 258 c 0
 152 149 184 65 284 65 c 0
EndSplineSet
Validated: 1
EndChar

StartChar: r
Encoding: 56 114 17
Width: 380
Flags: W
HStem: 0 29<29 62 241.5 279 29 62> 378 110<312.5 334.5 291 340> 412 76<252.5 334.5> 426 26<35 84> 462 20G<159 183 183 183>
VStem: 102 81<97 482 379 390> 102 83<97 102 102 330>
LayerCount: 2
Fore
SplineSet
308 0 m 1x8a
 58 0 l 1
 58 29 l 1
 124 29 131 41 131 97 c 2
 131 372 l 2
 131 408 131 426 95 426 c 0
 75 426 64 424 64 424 c 1
 64 452 l 1x9a
 188 482 l 1x8a
 212 482 l 1x8c
 212 379 l 1
 215 379 l 1
 266 453 296 488 344 488 c 0
 383 488 402 466 402 432 c 0
 402 394 380 378 358 378 c 0xc4
 325 378 305 412 293 412 c 0
 270 412 238 370 214 330 c 1xa2
 214 102 l 2
 214 39 233 29 308 29 c 1
 308 0 l 1x8a
EndSplineSet
Validated: 1
EndChar

StartChar: s
Encoding: 57 115 18
Width: 395
Flags: W
HStem: -11 37<171 223 161 245> -8 21G<42 42 42 63> -8 172<42 42 42 63> 327 153<316 336 316 339 312 336> 451 34<169 218 150 222.5>
VStem: 40 71<365.5 400> 40.5 22.5 40.5 24.5 284 84<72 115.5> 298 39.5 312 25.5 316 21.5
LayerCount: 2
Fore
SplineSet
81 -8 m 1x4a80
 78 164 l 1x2a80
 104 164 l 1
 125 61 163 26 237 26 c 0
 287 26 323 45 323 92 c 0x8980
 323 139 304 158 211 204 c 0
 120 250 79 285 79 359 c 0
 79 441 146 485 232 485 c 0
 282 485 312 471 337 459 c 1
 338 459 l 1x8c40
 355 480 l 1
 375 480 l 1
 378 327 l 1x9410
 351 327 l 1x8c20
 329 422 292 451 231 451 c 0
 185 451 150 430 150 385 c 0
 150 346 183 321 267 278 c 0
 358 230 407 193 407 119 c 0
 407 25 329 -11 239 -11 c 0
 181 -11 151 4 125 15 c 1
 123 15 l 1x8c80
 102 -8 l 1
 81 -8 l 1x4a80
EndSplineSet
Validated: 1
EndChar

StartChar: t
Encoding: 58 116 19
Width: 315
Flags: W
HStem: -10 59<203.5 220> 426 42<175 288 175 288>
VStem: 92 83<116 144 144 426>
LayerCount: 2
Fore
SplineSet
330 90 m 1
 349 74 l 1
 310 20 289 -10 225 -10 c 0
 158 -10 129 26 129 116 c 2
 129 426 l 1
 74 426 l 1
 74 449 l 1
 121 478 151 525 187 610 c 1
 212 610 l 1
 212 468 l 1
 325 468 l 1
 325 426 l 1
 212 426 l 1
 212 144 l 2
 212 73 221 49 260 49 c 0
 292 49 305 62 330 90 c 1
EndSplineSet
Validated: 1
EndChar

StartChar: u
Encoding: 59 117 20
Width: 570
Flags: W
HStem: -10 64<238 254> -5 21G<391 413 391 391> 18 27<530 540> 72 21G<386 391 386 386> 435 28<23 23> 458 20G<152 174 174 174 446 470 470 470>
VStem: 91 83<173 186 186 376 376 403> 387 83<114 377 377 403.5> 391 79<-5 111 72 111>
LayerCount: 2
Fore
SplineSet
245 -10 m 0x87
 162 -10 114 37 114 173 c 2
 114 376 l 2
 114 430 100 434 46 435 c 1
 46 463 l 1x8b
 175 478 l 1
 197 478 l 1x87
 197 186 l 2
 197 84 235 54 287 54 c 0
 338 54 370 79 410 114 c 1
 410 377 l 2
 410 430 393 435 329 435 c 1
 329 463 l 1x8b
 469 478 l 1
 493 478 l 1
 493 111 l 2
 493 52 505 45 553 45 c 2
 563 45 l 1
 563 18 l 1x27
 436 -5 l 1x47
 414 -5 l 1
 414 72 l 1
 409 72 l 1x5680
 356 20 309 -10 245 -10 c 0x87
EndSplineSet
Validated: 1
EndChar

StartChar: v
Encoding: 60 118 21
Width: 481
Flags: W
HStem: -6 21G<217 265 217 217> -6 103<260 265 217 266> 444 29<-13 8.5 178.5 198 323 341 478.5 498>
VStem: -13 211<444 473 444 473> -13 511<444 473 444 473> 323 175<444 473 444 473> 380 118<409 473>
LayerCount: 2
Fore
SplineSet
252 -6 m 1xa8
 204 -6 l 1
 55 371 l 2
 29 433 17 444 -26 444 c 1
 -26 473 l 1
 185 473 l 1
 185 444 l 1
 146 444 133 435 133 419 c 0
 133 406 137 394 143 380 c 2
 228 157 l 1
 247 97 l 1
 253 97 l 1
 274 158 l 1
 360 384 l 2
 361 389 367 401 367 417 c 0x72
 367 439 346 444 310 444 c 1
 310 473 l 1
 485 473 l 1
 485 444 l 1
 446 444 430 430 410 378 c 2xa4
 252 -6 l 1xa8
EndSplineSet
Validated: 1
EndChar

StartChar: w
Encoding: 61 119 22
Width: 749
Flags: W
HStem: -6 21G<218 264 218 218 491 539 491 491> -6 107<261 264 218 268 534 539> 444 29<-17 5 178 198 267 289 457 476 589 607.5 742.5 762>
VStem: -17 215<444 473 444 473> 267 209<444 473 444 473> 589 173<444 473 444 473> 645 117<410.5 473>
LayerCount: 2
Fore
SplineSet
522 -6 m 1xbc
 474 -6 l 1
 368 285 l 1
 364 285 l 1
 247 -6 l 1
 201 -6 l 1
 51 371 l 2
 25 433 10 444 -34 444 c 1
 -34 473 l 1
 181 473 l 1
 181 444 l 1
 141 444 128 435 128 419 c 0
 128 406 133 395 139 380 c 2
 226 159 l 1
 244 101 l 1
 251 101 l 1
 272 159 l 1
 344 341 l 1
 333 371 l 2
 309 436 294 444 250 444 c 1
 250 473 l 1
 459 473 l 1
 459 444 l 1
 421 444 409 435 409 419 c 0
 409 407 413 393 418 378 c 2
 499 159 l 1
 517 101 l 1
 523 101 l 1
 543 159 l 1
 622 383 l 2
 623 388 628 402 628 419 c 0x7a
 628 438 609 444 572 444 c 1
 572 473 l 1
 745 473 l 1
 745 444 l 1
 706 444 691 430 671 378 c 2
 522 -6 l 1xbc
EndSplineSet
Validated: 1
EndChar

StartChar: x
Encoding: 62 120 23
Width: 479
Flags: W
HStem: 0 29<-2 15 148.5 165 -2 15 273 290.5 463.5 482> 444 29<11 31.5 448 465> 445 28<210 226 300 316>
VStem: -2 167<0 29 0 29> 11 215<445 473> 273 209<0 29 0 29> 300 165<445 473 444 473> 341 124<413 473>
LayerCount: 2
Fore
SplineSet
480 0 m 1xd4
 271 0 l 1
 271 29 l 1
 306 29 318 34 318 51 c 0
 318 58 316 64 311 72 c 2
 248 169 l 1
 228 204 l 1
 224 204 l 1
 142 86 l 2
 132 70 118 52 118 44 c 0
 118 33 130 29 163 29 c 1
 163 0 l 1
 -4 0 l 1
 -4 29 l 1
 30 29 48 40 81 79 c 2xd4
 201 235 l 1
 97 384 l 2
 62 434 50 444 9 444 c 1
 9 473 l 1
 224 473 l 1xca
 224 445 l 1
 192 445 176 437 176 422 c 0
 176 406 194 385 228 329 c 2
 252 285 l 1
 256 285 l 1
 303 353 l 2
 330 390 339 405 339 421 c 0xa9
 339 436 330 445 298 445 c 1xb2
 298 473 l 1
 463 473 l 1
 463 444 l 1
 429 444 406 426 383 397 c 2xd2
 277 261 l 1
 400 87 l 2
 428 47 443 29 480 29 c 1
 480 0 l 1xd4
EndSplineSet
Validated: 1
EndChar

StartChar: y
Encoding: 63 121 24
Width: 483
Flags: W
HStem: -235 73<56.5 147> -235 95<56.5 69 39 119.5> 443 30<179.5 202> 444 29<-12 6 323 339.5 473 493>
VStem: -12 214<444 473 443 473> 323 170<444 473 444 473> 379 114<415.5 473>
LayerCount: 2
Fore
SplineSet
65 -235 m 0x9c
 24 -235 -6 -221 -6 -183 c 0
 -6 -153 14 -140 40 -140 c 0x5c
 74 -140 103 -162 117 -162 c 0
 153 -162 213 -24 213 5 c 0
 213 18 195 60 183 87 c 2
 36 408 l 2
 26 431 12 444 -24 444 c 1
 -24 473 l 1
 190 473 l 1x9c
 190 443 l 1
 145 443 133 434 133 417 c 0
 133 404 141 387 147 373 c 2xac
 245 153 l 1
 258 104 l 1
 265 104 l 1
 362 394 l 2
 364 401 367 412 367 419 c 0x9a
 367 439 344 444 311 444 c 1
 311 473 l 1
 481 473 l 1
 481 444 l 1
 441 444 426 427 412 388 c 2
 256 -22 l 2
 198 -175 150 -235 65 -235 c 0x9c
EndSplineSet
Validated: 1
EndChar

StartChar: z
Encoding: 64 122 25
Width: 458
Flags: W
HStem: 0 41<140 265 265 308> 0 160<392 415> 326 147<52 78 47 421> 431 42<140 177 177 312>
VStem: 49.5 28.5
LayerCount: 2
Fore
SplineSet
446 0 m 1x98
 62 0 l 1
 62 29 l 1
 343 428 l 1
 343 431 l 1
 208 431 l 2x98
 134 431 118 393 109 326 c 1
 78 326 l 1xa8
 83 473 l 1
 452 473 l 1
 452 444 l 1
 171 44 l 1
 171 41 l 1
 296 41 l 2x98
 382 41 403 67 423 160 c 1
 456 160 l 1x58
 446 0 l 1x98
EndSplineSet
Validated: 1
EndChar

StartChar: A
Encoding: 11 65 26
Width: 718
Flags: W
HStem: 0 30<3 31 189.5 213 3 31 445 460 687 714> 219 40<217 443 217 458 202 443> 642 20G<333 374 374 374>
VStem: 3 143<0 73 30 73> 3 210<0 30 0 30>
LayerCount: 2
Fore
SplineSet
216 0 m 1xe8
 6 0 l 1
 6 30 l 1
 62 30 76 46 124 160 c 2
 336 662 l 1
 377 662 l 1
 614 119 l 2
 643 53 663 30 717 30 c 1
 717 0 l 1
 448 0 l 1
 448 30 l 1
 478 30 517 32 517 67 c 0
 517 81 513 99 500 129 c 2
 461 219 l 1
 205 219 l 1
 160 113 l 2
 154 97 149 82 149 64 c 0xf0
 149 36 169 30 216 30 c 1
 216 0 l 1xe8
220 259 m 1
 446 259 l 1
 336 539 l 1
 333 539 l 1
 220 259 l 1
EndSplineSet
Validated: 1
EndChar

StartChar: B
Encoding: 12 66 27
Width: 618
Flags: W
HStem: 0 30<36 76.5 36 344 36 76.5> 0 37<285 340 285 344> 320 42<225 293 293 295 225 293> 618 39<275.5 306 306 346> 627 30<36 76.5>
VStem: 133 92<127 320 40 362 362 536 536 576> 452 99<456.5 532> 478 105<120 231.5 120 232>
LayerCount: 2
Fore
SplineSet
380 0 m 2x75
 72 0 l 1x75
 72 30 l 1
 153 30 169 44 169 127 c 2
 169 536 l 2
 169 616 153 627 72 627 c 1xad
 72 657 l 1
 342 657 l 2
 520 657 587 600 587 501 c 0x76
 587 412 528 372 445 350 c 1
 445 346 l 1
 530 332 619 286 619 177 c 0
 619 63 529 0 380 0 c 2x75
333 37 m 0
 419 37 514 48 514 175 c 0
 514 289 424 320 331 320 c 2
 261 320 l 1
 261 40 l 1
 285 38 309 37 333 37 c 0
261 615 m 1
 261 362 l 1
 329 362 l 2
 450 362 488 402 488 493 c 0x76
 488 571 443 618 321 618 c 0
 302 618 281 617 261 615 c 1
EndSplineSet
Validated: 1
EndChar

StartChar: C
Encoding: 13 67 28
Width: 670
Flags: W
HStem: -11 63<322.5 429.5> 613 20G<532.5 553> 626 43<307 430.5>
VStem: 50 104<238 427 238 437> 575 34<440 669> 579 30<440 669>
LayerCount: 2
Fore
SplineSet
414 -11 m 0xb4
 208 -11 100 133 100 328 c 0xb4
 100 546 236 669 428 669 c 0
 533 669 570 633 595 633 c 0xd4
 611 633 617 649 629 669 c 1
 659 669 l 1
 659 440 l 1xb4
 625 440 l 1xb8
 603 571 532 626 429 626 c 0
 285 626 204 516 204 338 c 0
 204 138 302 52 443 52 c 0
 535 52 602 88 658 149 c 1
 682 128 l 1
 628 47 545 -11 414 -11 c 0xb4
EndSplineSet
Validated: 1
EndChar

StartChar: D
Encoding: 14 68 29
Width: 730
Flags: W
HStem: 0 30<35 79 35 321 35 79> 0 38<274 321> 616 41<266 310 310 377.5> 627 30<35 72.5>
VStem: 133 92<124 543 543 579.5> 575 105<217 418>
LayerCount: 2
Fore
SplineSet
356 0 m 2x6c
 70 0 l 1x6c
 70 30 l 1
 158 30 168 43 168 124 c 2
 168 543 l 2
 168 616 145 627 70 627 c 1x9c
 70 657 l 1
 345 657 l 2
 553 657 715 576 715 332 c 0
 715 102 572 0 356 0 c 2x6c
319 38 m 0
 501 38 610 98 610 323 c 0
 610 513 516 616 309 616 c 0
 293 616 279 616 260 614 c 1
 260 41 l 1
 280 39 299 38 319 38 c 0
EndSplineSet
Validated: 1
EndChar

StartChar: E
Encoding: 15 69 30
Width: 626
Flags: W
HStem: 0 30<36 76.5 36 570 36 76.5> 0 44<225 354 225 570> 319 39<225 342 225 342> 493 164<535 561 36 567 535 535> 612 45<225 372 225 225> 627 30<36 76.5>
VStem: 133 92<118 319 358 535 535 573> 454 32<226 267 417.5 458> 535 29
LayerCount: 2
Fore
SplineSet
606 0 m 1x6b
 72 0 l 1x6b
 72 30 l 1
 153 30 169 40 169 118 c 2
 169 535 l 2
 169 611 153 627 72 627 c 1xa7
 72 657 l 1
 597 657 l 1x6b80
 603 493 l 1
 571 493 l 1x7380
 556 593 531 612 408 612 c 2
 261 612 l 1
 261 358 l 1
 378 358 l 2
 470 358 490 377 490 458 c 1
 522 458 l 1
 522 226 l 1
 490 226 l 1
 490 308 470 319 378 319 c 2
 261 319 l 1
 261 44 l 1
 390 44 l 2
 545 43 563 67 602 186 c 1
 634 186 l 1
 606 0 l 1x6b
EndSplineSet
Validated: 33
EndChar

StartChar: F
Encoding: 16 70 31
Width: 588
Flags: W
HStem: 0 30<36 76.5 290 329 36 76.5> 320 39<225 343 225 343> 493 164<542 568 36 574 542 542> 612 45<225 384 225 225> 627 30<36 72>
VStem: 133 92<116 320 359 544 544 578.5> 449 34<226 266.5 417.5 458> 542 29
LayerCount: 2
Fore
SplineSet
365 0 m 1xd6
 72 0 l 1
 72 30 l 1
 153 30 169 42 169 116 c 2
 169 544 l 2
 169 613 144 627 72 627 c 1xce
 72 657 l 1
 604 657 l 1xd7
 610 493 l 1
 578 493 l 1xe7
 560 588 551 612 420 612 c 2
 261 612 l 1
 261 359 l 1
 379 359 l 2
 465 359 485 377 485 458 c 1
 519 458 l 1
 519 226 l 1
 485 226 l 1
 485 307 465 320 379 320 c 2
 261 320 l 1
 261 110 l 2
 261 42 287 30 365 30 c 1
 365 0 l 1xd6
EndSplineSet
Validated: 1
EndChar

StartChar: G
Encoding: 17 71 32
Width: 720
Flags: W
HStem: -11 45<312.5 415 312.5 425> 278 32<438 476 657 685> 613 20G<532.5 553.5> 626 43<306.5 430>
VStem: 50 104<236 426.5 236 437> 526 91<84 192 192 202 57 228> 576 34<440 669> 581 29<440 669>
LayerCount: 2
Fore
SplineSet
420 -11 m 0xdc
 208 -11 100 112 100 326 c 0xdc
 100 548 238 669 426 669 c 0
 536 669 570 633 595 633 c 0xe9
 612 633 618 647 631 669 c 1
 660 669 l 1
 660 440 l 1xd9
 626 440 l 1xda
 603 573 533 626 427 626 c 0
 286 626 204 515 204 338 c 0
 204 134 291 34 434 34 c 0
 496 34 536 54 576 84 c 1
 576 192 l 2
 576 264 564 278 488 278 c 1
 488 310 l 1
 735 310 l 1
 735 278 l 1
 679 278 667 264 667 202 c 2
 667 57 l 1
 595 15 530 -11 420 -11 c 0xdc
EndSplineSet
Validated: 1
EndChar

StartChar: H
Encoding: 18 72 33
Width: 777
Flags: W
HStem: 0 30<36 81 278 323 36 81 456 500.5 696.5 742> 318 39<225 553 225 553> 627 30<36 82 275.5 323 456 502 694.5 742>
VStem: 133 92<131 318 357 525> 553 91<131 318 318 318 357 525>
LayerCount: 2
Fore
SplineSet
359 0 m 1
 72 0 l 1
 72 30 l 1
 162 30 169 42 169 131 c 2
 169 525 l 2
 169 603 164 627 72 627 c 1
 72 657 l 1
 359 657 l 1
 359 627 l 1
 264 627 261 603 261 525 c 2
 261 357 l 1
 589 357 l 1
 589 525 l 2
 589 603 584 627 492 627 c 1
 492 657 l 1
 778 657 l 1
 778 627 l 1
 683 627 680 604 680 525 c 2
 680 131 l 2
 680 44 687 30 778 30 c 1
 778 0 l 1
 492 0 l 1
 492 30 l 1
 581 30 589 44 589 131 c 2
 589 318 l 1
 261 318 l 1
 261 131 l 2
 261 43 269 30 359 30 c 1
 359 0 l 1
EndSplineSet
Validated: 1
EndChar

StartChar: I
Encoding: 19 73 34
Width: 357
Flags: W
HStem: 0 30<34 79 277.5 322 34 79> 627 30<34 81.5 274.5 322>
VStem: 133 91<131 525>
LayerCount: 2
Fore
SplineSet
356 0 m 1
 68 0 l 1
 68 30 l 1
 158 30 167 45 167 131 c 2
 167 525 l 2
 167 603 163 627 68 627 c 1
 68 657 l 1
 356 657 l 1
 356 627 l 1
 261 627 258 603 258 525 c 2
 258 131 l 2
 258 45 267 30 356 30 c 1
 356 0 l 1
EndSplineSet
Validated: 1
EndChar

StartChar: J
Encoding: 20 74 35
Width: 396
Flags: W
HStem: -12 35<121 163.5 121 166.5> 627 30<93 140.5 333.5 375>
VStem: 191 92<123 152 152 525>
LayerCount: 2
Fore
SplineSet
119 -12 m 0
 54 -12 0 13 0 67 c 0
 0 97 16 116 44 116 c 0
 103 116 98 23 144 23 c 0
 183 23 191 53 191 123 c 2
 191 525 l 2
 191 603 188 627 93 627 c 1
 93 657 l 1
 375 657 l 1
 375 627 l 1
 292 627 283 603 283 525 c 2
 283 152 l 2
 283 20 214 -12 119 -12 c 0
EndSplineSet
Validated: 1
EndChar

StartChar: K
Encoding: 21 75 36
Width: 702
Flags: W
HStem: 0 30<34 79.5 278 322 34 79.5 407 427 427 441 671.5 696> 311 26<224 229 224 233 224 229> 627 30<34 81.5 274.5 322 408 424>
VStem: 133 91<131 311 337 525>
LayerCount: 2
Fore
SplineSet
356 0 m 1
 68 0 l 1
 68 30 l 1
 159 30 167 43 167 131 c 2
 167 525 l 2
 167 603 163 627 68 627 c 1
 68 657 l 1
 356 657 l 1
 356 627 l 1
 261 627 258 603 258 525 c 2
 258 337 l 1
 263 337 l 1
 425 495 l 2
 471 539 496 566 496 596 c 0
 496 617 486 627 458 627 c 2
 442 627 l 1
 442 657 l 1
 687 657 l 1
 687 627 l 1
 630 624 610 608 556 558 c 2
 339 355 l 1
 626 73 l 2
 659 42 681 30 730 30 c 1
 730 0 l 1
 441 0 l 1
 441 30 l 1
 461 30 l 2
 489 30 500 35 500 50 c 0
 500 83 456 124 355 223 c 2
 267 311 l 1
 258 311 l 1
 258 131 l 2
 258 47 268 30 356 30 c 1
 356 0 l 1
EndSplineSet
Validated: 1
EndChar

StartChar: L
Encoding: 22 76 37
Width: 585
Flags: W
HStem: 0 30<42 82 42 538 42 82> 0 42<301 347 347 414> 627 30<42 82 282.5 323>
VStem: 133 92<123 529>
LayerCount: 2
Fore
SplineSet
580 0 m 1x70
 84 0 l 1x70
 84 30 l 1
 164 30 175 45 175 123 c 2xb0
 175 530 l 2
 175 607 164 627 84 627 c 1
 84 657 l 1
 365 657 l 1
 365 627 l 1
 284 627 267 607 267 529 c 2
 267 95 l 2
 267 51 284 42 343 42 c 2
 389 42 l 2
 523 42 539 79 578 195 c 1
 610 195 l 1
 580 0 l 1x70
EndSplineSet
Validated: 1
EndChar

StartChar: M
Encoding: 23 77 38
Width: 895
Flags: W
HStem: 0 30<28 68.5 225 263 28 68.5 584 622.5 814 850> 627 30<30 69.5 813.5 849>
VStem: 123 49<146 535 535 549> 673 89<119 536>
LayerCount: 2
Fore
SplineSet
291 0 m 1
 56 0 l 1
 56 30 l 1
 137 30 151 43 151 146 c 2
 151 535 l 2
 151 610 137 627 58 627 c 1
 58 657 l 1
 262 657 l 1
 473 154 l 1
 477 154 l 1
 687 657 l 1
 877 657 l 1
 877 627 l 1
 806 627 790 610 790 536 c 2
 790 119 l 2
 790 46 806 30 878 30 c 1
 878 0 l 1
 612 0 l 1
 612 30 l 1
 689 30 701 46 701 119 c 2
 701 550 l 1
 697 550 l 1
 464 0 l 1
 440 0 l 1
 204 549 l 1
 200 549 l 1
 200 146 l 2
 200 43 215 30 291 30 c 1
 291 0 l 1
EndSplineSet
Validated: 1
EndChar

StartChar: N
Encoding: 24 78 39
Width: 742
Flags: W
HStem: -8 21G<591 624 591 591> 0 30<29 68.5 225.5 263 29 68.5> 627 30<29 50 479 522 676.5 715>
VStem: 123 49<149 527> 574 50<174 493>
LayerCount: 2
Fore
SplineSet
653 -8 m 1xb8
 620 -8 l 1xb8
 206 527 l 1
 201 527 l 1
 201 149 l 2
 201 49 217 30 292 30 c 1
 292 0 l 1
 58 0 l 1
 58 30 l 1x78
 137 30 152 48 152 149 c 2
 152 576 l 1
 119 618 100 627 58 627 c 1
 58 657 l 1
 228 657 l 1
 598 174 l 1
 603 174 l 1
 603 498 l 2
 603 591 594 627 508 627 c 1
 508 657 l 1
 744 657 l 1
 744 627 l 1
 667 627 653 588 653 493 c 2
 653 -8 l 1xb8
EndSplineSet
Validated: 1
EndChar

StartChar: O
Encoding: 25 79 40
Width: 737
Flags: W
HStem: -12 42<298 441 298 467.5> 627 42<301.5 431>
VStem: 50 105<241 426.5 241 430.5> 582 105<234.5 425>
LayerCount: 2
Fore
SplineSet
419 -12 m 0
 220 -12 100 117 100 329 c 0
 100 532 221 669 419 669 c 0
 618 669 737 536 737 338 c 0
 737 129 616 -12 419 -12 c 0
420 30 m 0
 562 30 632 134 632 335 c 0
 632 515 546 627 416 627 c 0
 287 627 205 518 205 335 c 0
 205 147 276 30 420 30 c 0
EndSplineSet
Validated: 1
EndChar

StartChar: P
Encoding: 26 80 41
Width: 569
Flags: W
HStem: 0 30<44 83 285.5 326 44 83> 286 41<272 333 269 347.5> 618 39<275 297 297 339> 627 30<48 80>
VStem: 133 92<127 294 331 557 557 586.5> 445 99<419 522>
LayerCount: 2
Fore
SplineSet
370 0 m 1xec
 88 0 l 1
 88 30 l 1
 166 30 177 43 177 127 c 2
 177 557 l 2
 177 616 156 627 92 627 c 1xdc
 92 657 l 1
 341 657 l 2
 469 657 588 624 588 491 c 0
 588 335 457 286 326 286 c 0
 306 286 280 289 269 294 c 1
 269 123 l 2
 269 41 289 30 370 30 c 1
 370 0 l 1xec
323 327 m 0
 431 327 489 361 489 477 c 0
 489 567 437 618 329 618 c 0
 309 618 290 616 269 614 c 1xec
 269 331 l 1
 280 329 303 327 323 327 c 0
EndSplineSet
Validated: 1
EndChar

StartChar: Q
Encoding: 27 81 42
Width: 737
Flags: W
HStem: -173 33<654 664 664 714> 2 28<298 459> 627 42<301.5 430.5>
VStem: 50 105<241 426.5 241 430.5> 582 105<252 425>
LayerCount: 2
Fore
SplineSet
764 -173 m 1
 714 -173 l 2
 548 -173 471 -143 418 -52 c 2
 394 -11 l 1
 212 1 100 126 100 329 c 0
 100 532 221 669 419 669 c 0
 618 669 737 535 737 339 c 0
 737 165 650 36 509 2 c 1
 509 0 l 1
 580 -100 644 -140 764 -140 c 1
 764 -173 l 1
420 30 m 0
 562 30 632 134 632 335 c 0
 632 515 545 627 416 627 c 0
 287 627 205 518 205 335 c 0
 205 147 276 30 420 30 c 0
EndSplineSet
Validated: 1
EndChar

StartChar: R
Encoding: 28 82 43
Width: 659
Flags: W
HStem: 0 30<43 80.5 281 324 43 80.5 641 664> 301 38<225 263> 618 39<280 289 289 345> 627 30<43 83>
VStem: 132 93<124 301 340 553 553 580.5> 446 101<437 529>
LayerCount: 2
Fore
SplineSet
367 0 m 1xec
 86 0 l 1
 86 30 l 1
 161 30 175 40 175 124 c 2
 175 553 l 2
 175 608 166 627 86 627 c 1xdc
 86 657 l 1
 332 657 l 2
 482 657 590 620 590 493 c 0
 590 381 502 337 421 318 c 1
 421 314 l 1
 455 294 494 238 604 81 c 0
 636 37 661 30 707 30 c 1
 707 0 l 1
 542 0 l 1
 433 165 404 208 363 268 c 0
 343 298 332 301 296 301 c 2
 268 301 l 1
 268 124 l 2
 268 41 281 30 367 30 c 1
 367 0 l 1xec
268 340 m 1
 306 339 l 1
 416 344 489 383 489 489 c 0
 489 569 442 618 334 618 c 0
 312 618 289 617 268 615 c 1xec
 268 340 l 1
EndSplineSet
Validated: 1
EndChar

StartChar: S
Encoding: 29 83 44
Width: 504
Flags: W
HStem: -15 21G<44 75 44 44> -12 44<254 291.5 254 326> 618 20G<364 384> 629 40<239 243>
VStem: 39.5 35.5 49 87<497.5 559.5> 376 95<109 182> 407 29.5 410 26.5
LayerCount: 2
Fore
SplineSet
110 -15 m 1x9a
 79 -15 l 1x9a
 70 201 l 1
 101 201 l 1x5a
 136 63 187 31 289 32 c 0
 364 32 411 62 411 138 c 0
 411 226 327 261 245 308 c 0
 165 354 84 402 84 507 c 0x56
 84 612 170 668 274 669 c 0
 365 669 387 638 411 638 c 0x65
 427 638 437 646 442 667 c 1x55
 468 667 l 1
 475 467 l 1
 445 467 l 1
 417 577 379 630 278 629 c 0
 210 629 171 597 171 535 c 0x5480
 171 460 243 424 318 381 c 0
 407 331 506 286 506 167 c 0
 506 51 419 -12 303 -12 c 0
 199 -12 160 18 137 18 c 0x5a
 123 18 111 5 110 -15 c 1x9a
EndSplineSet
Validated: 33
EndChar

StartChar: T
Encoding: 30 84 45
Width: 603
Flags: W
HStem: 0 30<157 199 404 447 157 199> 477 180<26 46 15 579 556 556 556 579 26 587> 612 45<136 191 191 255 348 348 348 411>
VStem: 255 93<131 612>
LayerCount: 2
Fore
SplineSet
462 0 m 1xb0
 172 0 l 1
 172 30 l 1
 256 30 270 40 270 131 c 2
 270 612 l 1
 206 612 l 2xb0
 96 612 82 586 61 477 c 1
 30 477 l 1xd0
 41 657 l 1
 594 657 l 1xb0
 602 477 l 1
 571 477 l 1xd0
 549 586 537 612 426 612 c 2
 363 612 l 1
 363 131 l 2
 363 40 376 30 462 30 c 1
 462 0 l 1xb0
EndSplineSet
Validated: 1
EndChar

StartChar: U
Encoding: 31 85 46
Width: 752
Flags: W
HStem: -12 63<326.5 463.5 326.5 467.5> 627 30<20 59.5 265.5 308 489 531 691 734>
VStem: 118 92<250 251 251 534> 583 57<247 261 261 499 499 502>
LayerCount: 2
Fore
SplineSet
393 -12 m 0
 216 -12 138 64 138 250 c 2
 138 539 l 2
 138 609 119 627 40 627 c 1
 40 657 l 1
 328 657 l 1
 328 627 l 1
 243 627 230 609 230 534 c 2
 230 251 l 2
 230 121 275 51 418 51 c 0
 549 51 603 109 603 247 c 2
 603 499 l 2
 603 604 593 627 509 627 c 1
 509 657 l 1
 754 657 l 1
 754 627 l 1
 668 627 660 605 660 502 c 2
 660 261 l 2
 660 79 582 -12 393 -12 c 0
EndSplineSet
Validated: 1
EndChar

StartChar: V
Encoding: 32 86 47
Width: 680
Flags: W
HStem: -5 21G<324 364 324 324> 627 30<-10 17 245 258 477 500.5 659 687>
VStem: -10 697<627 657 627 657> 477 210<627 657 627 657> 544 143<584 657>
LayerCount: 2
Fore
SplineSet
354 -5 m 1xe0
 314 -5 l 1
 85 536 l 2
 56 603 34 627 -20 627 c 1
 -20 657 l 1
 248 657 l 1
 248 627 l 1
 222 627 180 626 180 589 c 0
 180 576 185 557 197 528 c 2
 318 231 l 1
 357 126 l 1
 362 126 l 1
 397 226 l 1
 523 544 l 2
 529 559 534 575 534 593 c 0xc8
 534 620 514 627 467 627 c 1
 467 657 l 1xd0
 677 657 l 1
 677 627 l 1xc8
 621 627 608 610 560 497 c 2
 354 -5 l 1xe0
EndSplineSet
Validated: 1
EndChar

StartChar: W
Encoding: 33 87 48
Width: 944
Flags: W
HStem: -6 21G<308 333 308 308 638 665 638 638> 627 30<-10 248 222.5 248 328 356.5 564 589 737 760>
VStem: -10 953<627 657 627 657> 737 206<627 657 627 657> 804 139<572.5 657>
LayerCount: 2
Fore
SplineSet
655 -6 m 1xe0
 628 -6 l 1
 478 391 l 1
 474 391 l 1
 323 -6 l 1
 298 -6 l 1
 90 518 l 2
 59 602 32 625 -20 627 c 1
 -20 657 l 1
 238 657 l 1
 238 627 l 1
 187 627 172 615 172 594 c 0
 172 582 176 565 186 539 c 2
 302 247 l 1
 333 163 l 1
 338 163 l 1
 451 455 l 1
 423 532 l 2
 391 619 375 627 318 627 c 1
 318 657 l 1
 579 657 l 1
 579 627 l 1
 529 627 503 615 503 593 c 0
 503 577 513 553 520 535 c 2
 624 265 l 1
 657 166 l 1
 662 166 l 1
 776 498 l 2
 786 530 794 560 794 585 c 0xc8
 794 615 773 627 727 627 c 1
 727 657 l 1xd0
 933 657 l 1
 933 627 l 1
 886 626 866 609 848 558 c 2xc8
 655 -6 l 1xe0
EndSplineSet
Validated: 1
EndChar

StartChar: X
Encoding: 34 88 49
Width: 664
Flags: W
HStem: 0 29<196.5 223 2 2 380 390 390 409.5> 627 30<17 51.5 265.5 284 284 295 422 446>
VStem: 2 157<0 66.5 29 66.5> 2 658<0 29 0 29>
LayerCount: 2
Fore
SplineSet
662 0 m 1xd0
 382 0 l 1
 382 29 l 1
 392 29 l 2
 431 29 445 35 445 57 c 0
 445 78 435 101 409 142 c 2
 346 241 l 1
 317 291 l 1
 315 291 l 1
 194 120 l 2
 181 103 161 76 161 57 c 0
 161 40 172 29 225 29 c 1
 225 0 l 1
 4 0 l 1
 4 29 l 1xe0
 57 31 74 45 122 108 c 2
 289 327 l 1
 146 542 l 2
 98 612 88 627 19 627 c 1
 19 657 l 1
 297 657 l 1
 297 627 l 1
 286 627 l 2
 249 627 234 619 234 598 c 0
 234 574 269 533 293 486 c 2
 350 391 l 1
 351 391 l 1
 456 542 l 2
 472 568 483 588 483 604 c 0
 483 619 472 627 424 627 c 1
 424 657 l 1
 654 657 l 1
 654 627 l 1
 590 625 570 611 515 538 c 2
 376 357 l 1
 559 89 l 2
 592 41 612 30 662 29 c 1
 662 0 l 1xd0
EndSplineSet
Validated: 1
EndChar

StartChar: Y
Encoding: 35 89 50
Width: 647
Flags: W
HStem: 0 30<180 224 434 476 180 224> 627 30<-5 18.5 236 264 434 459.5>
VStem: 280 92<131 276 276 276> 434 218<627 657 627 657> 498 154<592.5 657>
LayerCount: 2
Fore
SplineSet
471 0 m 1xf0
 175 0 l 1
 175 30 l 1
 263 30 275 42 275 131 c 2
 275 276 l 1
 148 481 l 2
 65 616 37 627 -10 627 c 1
 -10 657 l 1
 259 657 l 1
 259 627 l 1
 203 627 192 618 192 604 c 0
 192 591 199 573 209 558 c 2
 299 414 l 1
 343 336 l 1
 349 336 l 1
 481 561 l 2
 488 572 493 585 493 600 c 0xe8
 493 618 480 627 429 627 c 1
 429 657 l 1
 647 657 l 1
 647 627 l 1
 588 622 565 609 515 528 c 2
 367 281 l 1
 367 131 l 2
 367 43 387 30 471 30 c 1
 471 0 l 1xf0
EndSplineSet
Validated: 1
EndChar

StartChar: Z
Encoding: 36 90 51
Width: 594
Flags: W
HStem: 0 44<155 364 364 421> 482 175<71 92 60 560> 612 45<203.5 255 255 436>
VStem: 28 539<0 186 29 186> 436 124<604 657 612 657>
LayerCount: 2
Fore
SplineSet
566 0 m 1xb0
 56 0 l 1
 56 29 l 1
 464 604 l 1
 464 612 l 1
 283 612 l 2xa8
 180 612 140 593 120 482 c 1
 88 482 l 1xd0
 99 657 l 1
 588 657 l 1
 588 629 l 1xa8
 183 50 l 1
 183 44 l 1
 392 44 l 2
 506 44 531 75 564 186 c 1
 595 186 l 1
 566 0 l 1xb0
EndSplineSet
Validated: 1
EndChar

StartChar: hyphen
Encoding: 0 45 52
Width: 315
Flags: W
HStem: 218 65<45 270 45 270>
VStem: 45 225<218 283 218 283>
LayerCount: 2
Fore
SplineSet
315 218 m 1
 90 218 l 1
 90 283 l 1
 315 283 l 1
 315 218 l 1
EndSplineSet
Validated: 1
EndChar

StartChar: bracketleft
Encoding: 37 91 53
Width: 347
Flags: W
HStem: -186 30<170 300 170 300> 702 30<170 300 170 170>
VStem: 91 79<-156 702 -156 732 -156 732> 91 209<-186 -156 702 732>
LayerCount: 2
Fore
SplineSet
391 -186 m 1xd0
 182 -186 l 1
 182 732 l 1xe0
 391 732 l 1
 391 702 l 1xd0
 261 702 l 1
 261 -156 l 1xe0
 391 -156 l 1
 391 -186 l 1xd0
EndSplineSet
Validated: 1
EndChar

StartChar: bracketright
Encoding: 38 93 54
Width: 347
Flags: W
HStem: -186 30<47 177 47 256 47 177> 702 30<47 177 47 256>
VStem: 47 209<-186 -156 -156 -156 702 732> 177 79<-156 702 702 702>
LayerCount: 2
Fore
SplineSet
303 -186 m 1xd0
 94 -186 l 1
 94 -156 l 1xe0
 224 -156 l 1
 224 702 l 1xd0
 94 702 l 1
 94 732 l 1xe0
 303 732 l 1
 303 -186 l 1xd0
EndSplineSet
Validated: 1
EndChar

StartChar: dmg_positive
Encoding: 65 -1 55
Width: 1286
VWidth: 1036
Flags: HW
LayerCount: 2
Fore
SplineSet
643 954.231445312 m 4
 336.43359375 954.231445312 87.2451171875 705.04296875 87.2451171875 398.4765625 c 4
 87.2451171875 91.912109375 336.43359375 -157.157226562 643 -157.157226562 c 4
 949.564453125 -157.157226562 1198.63378906 91.912109375 1198.63378906 398.4765625 c 4
 1198.63378906 705.04296875 949.564453125 954.231445312 643 954.231445312 c 4
643 911.52734375 m 4
 926.662109375 911.52734375 1156.16796875 682.139648438 1156.16796875 398.4765625 c 4
 1156.16796875 114.814453125 926.662109375 -114.69140625 643 -114.69140625 c 4
 359.336914062 -114.69140625 129.94921875 114.814453125 129.94921875 398.4765625 c 4
 129.94921875 682.139648438 359.336914062 911.52734375 643 911.52734375 c 4
EndSplineSet
LCarets2: 7 0 0 0 0 0 0 0
Ligature2: "'liga' Standard Ligatures in Latin lookup 0-1" p o s i t i v e
EndChar

StartChar: dmg_negative
Encoding: 66 -1 56
Width: 1286
VWidth: 1036
Flags: HW
LayerCount: 2
Fore
SplineSet
630.754882812 954.231445312 m 4
 324.188476562 954.231445312 75 705.04296875 75 398.4765625 c 4
 75 91.912109375 324.188476562 -157.157226562 630.754882812 -157.157226562 c 4
 937.319335938 -157.157226562 1186.38867188 91.912109375 1186.38867188 398.4765625 c 4
 1186.38867188 705.04296875 937.319335938 954.231445312 630.754882812 954.231445312 c 4
EndSplineSet
LCarets2: 7 0 0 0 0 0 0 0
Ligature2: "'liga' Standard Ligatures in Latin lookup 0-1" n e g a t i v e
EndChar

StartChar: free_action
Encoding: 67 -1 57
Width: 1286
VWidth: 1036
Flags: HW
LayerCount: 2
Fore
SplineSet
1186.765625 398.494140625 m 5
 630.98828125 954.270507812 l 5
 75.22265625 398.505859375 l 5
 631 -157.271484375 l 5
 1186.765625 398.494140625 l 5
1119.83789062 398.494140625 m 5
 631 -90.3447265625 l 5
 406.947265625 133.708984375 l 5
 671.732421875 398.494140625 l 5
 406.935546875 663.291015625 l 5
 630.98828125 887.34375 l 5
 1119.83789062 398.494140625 l 5
566.986328125 398.502929688 m 5
 354.568359375 186.084960938 l 5
 142.150390625 398.502929688 l 5
 354.568359375 610.921875 l 5
 566.986328125 398.502929688 l 5
EndSplineSet
LCarets2: 10 0 0 0 0 0 0 0 0 0 0
Ligature2: "'liga' Standard Ligatures in Latin lookup 0-1" f r e e hyphen a c t i o n
EndChar

StartChar: one_action
Encoding: 68 -1 58
Width: 1286
VWidth: 1036
Flags: HW
LayerCount: 2
Fore
SplineSet
1193.76660156 398.494140625 m 1
 637.98828125 954.270507812 l 1
 380.473632812 696.75390625 l 1
 678.733398438 398.494140625 l 1
 380.484375 100.245117188 l 1
 638 -157.271484375 l 1
 1193.76660156 398.494140625 l 1
573.9765625 398.494140625 m 1
 328.634765625 643.834960938 l 1
 83.3037109375 398.505859375 l 1
 328.646484375 153.1640625 l 1
 573.9765625 398.494140625 l 1
EndSplineSet
LCarets2: 9 0 0 0 0 0 0 0 0 0
Ligature2: "'liga' Standard Ligatures in Latin lookup 0-1" o n e hyphen a c t i o n
EndChar

StartChar: two_actions
Encoding: 69 -1 59
Width: 1642
VWidth: 1036
Flags: HW
LayerCount: 2
Fore
SplineSet
564.986328125 880.75 m 1
 341.546875 657.294921875 l 1
 600.349609375 398.4921875 l 1
 341.546875 139.689453125 l 1
 565 -83.75 l 1
 1047.25683594 398.4921875 l 1
 564.986328125 880.75 l 1
1100.00292969 836.081054688 m 1
 887.802734375 633.32421875 l 1
 1133.57128906 398.4921875 l 1
 887.817382812 163.67578125 l 1
 1100.00292969 -39.0810546875 l 1
 1557.97167969 398.4921875 l 1
 1100.00292969 836.081054688 l 1
296.559570312 611.384765625 m 1
 83.6826171875 398.5078125 l 1
 296.572265625 185.615234375 l 1
 509.451171875 398.4921875 l 1
 296.559570312 611.384765625 l 1
EndSplineSet
LCarets2: 10 0 0 0 0 0 0 0 0 0 0
Ligature2: "'liga' Standard Ligatures in Latin lookup 0-1" t w o hyphen a c t i o n s
EndChar

StartChar: three_actions
Encoding: 70 -1 60
Width: 1883
VWidth: 1036
Flags: HW
LayerCount: 2
Fore
SplineSet
484.991210938 880.752929688 m 1
 261.5546875 657.302734375 l 1
 520.353515625 398.502929688 l 1
 261.5546875 139.705078125 l 1
 485.005859375 -83.7470703125 l 1
 967.255859375 398.502929688 l 1
 484.991210938 880.752929688 l 1
1020 836.0859375 m 1
 807.802734375 633.33203125 l 1
 1053.56738281 398.502929688 l 1
 807.818359375 163.67578125 l 1
 1020 -39.064453125 l 1
 1477.96289062 398.502929688 l 1
 1020 836.0859375 l 1
1509.36230469 757.51953125 m 1
 1335.25976562 591.176757812 l 1
 1536.90820312 398.502929688 l 1
 1335.27441406 205.830078125 l 1
 1509.375 39.4873046875 l 1
 1885.11328125 398.502929688 l 1
 1509.36230469 757.51953125 l 1
216.568359375 611.391601562 m 1
 3.6953125 398.502929688 l 1
 216.58203125 185.62890625 l 1
 429.45703125 398.502929688 l 1
 216.568359375 611.391601562 l 1
EndSplineSet
LCarets2: 12 0 0 0 0 0 0 0 0 0 0 0 0
Ligature2: "'liga' Standard Ligatures in Latin lookup 0-1" t h r e e hyphen a c t i o n s
EndChar

StartChar: reaction
Encoding: 71 -1 61
Width: 1384
VWidth: 1036
Flags: HW
LayerCount: 2
Fore
SplineSet
689.1015625 951.018554688 m 0
 471.677734375 950.491210938 232.053710938 857.411132812 19 613.819335938 c 1
 896.9921875 1052.81542969 1420.66308594 343.861328125 713.650390625 56.2041015625 c 1
 687.391601562 205.98046875 776.87890625 326.34375 776.87890625 326.34375 c 1
 208.7421875 -20.970703125 l 1
 834.936523438 -152.6328125 l 1
 772.997070312 -94.8916015625 738.727539062 -35.6923828125 722.04296875 20.53125 c 1
 1796.19042969 116.872070312 1343.07324219 952.603515625 689.1015625 951.018554688 c 0
EndSplineSet
LCarets2: 7 0 0 0 0 0 0 0
Ligature2: "'liga' Standard Ligatures in Latin lookup 0-1" r e a c t i o n
EndChar

StartChar: dmg_acid
Encoding: 72 -1 62
Width: 1286
VWidth: 1053
Flags: HW
LayerCount: 2
Fore
SplineSet
1106.23242188 816.424804688 m 1
 1098.96679688 816.291015625 1091.66210938 815.303710938 1084.37890625 813.369140625 c 0
 1061.91992188 807.404296875 1043.80957031 793.451171875 1030.18164062 774.94921875 c 1
 732.604492188 678.010742188 450.450195312 588.61328125 155.548828125 493.634765625 c 0
 50.244140625 459.721679688 -15.7431640625 357.97265625 15 263.521484375 c 0
 45.75 169.073242188 159.091796875 124.907226562 264.33984375 159.375976562 c 1
 264.33203125 159.369140625 l 1
 554.439453125 254.3671875 832.889648438 342.421875 1126.40722656 436.872070312 c 0
 1127.89160156 436.30859375 1129.40332031 435.836914062 1130.89941406 435.333007812 c 1
 1123.95214844 427.55078125 1119.69433594 417.313476562 1119.69433594 406.060546875 c 0
 1119.69433594 381.760742188 1139.39453125 362.0625 1163.69238281 362.0625 c 0
 1187.99414062 362.0625 1207.69824219 381.763671875 1207.69824219 406.060546875 c 0
 1207.69824219 417.514648438 1203.28613281 427.908203125 1196.12011719 435.736328125 c 1
 1229.92675781 448.635742188 1252.73828125 480.458007812 1263.82617188 517.6640625 c 0
 1275.8828125 558.119140625 1275.76855469 606.899414062 1262.27832031 656.817382812 c 0
 1248.78710938 706.740234375 1224.2890625 749.01171875 1193.49609375 778.026367188 c 0
 1170.39648438 799.783203125 1142.41894531 814.590820312 1113.48535156 816.288085938 c 0
 1111.07324219 816.424804688 1108.65527344 816.473632812 1106.23144531 816.430664062 c 2
 1106.23242188 816.424804688 l 1
1107.55078125 766.893554688 m 2
 1108.75683594 766.913085938 1109.97363281 766.87890625 1111.20117188 766.80078125 c 0
 1125.96191406 765.8515625 1142.53808594 757.943359375 1159.51367188 741.955078125 c 0
 1182.14355469 720.63671875 1203.10546875 685.8359375 1214.44335938 643.883789062 c 0
 1224.046875 608.353515625 1225.04980469 573.892578125 1219.77734375 546.170898438 c 1
 1079.8203125 546.170898438 l 1
 1070.49609375 562.627929688 1062.55371094 581.57421875 1056.95800781 602.271484375 c 0
 1045.62011719 644.224609375 1046.23046875 684.71875 1055.06054688 714.341796875 c 0
 1063.890625 743.965820312 1079.24804688 760.736328125 1097.1015625 765.478515625 c 0
 1100.44726562 766.368164062 1103.93652344 766.84765625 1107.54785156 766.899414062 c 2
 1107.55078125 766.893554688 l 2
1005.69335938 721.703125 m 1
 995.577148438 682.634765625 996.37109375 636.500976562 1009.11425781 589.336914062 c 0
 1013.20800781 574.205078125 1018.3203125 559.791015625 1024.30273438 546.22265625 c 1
 623.333984375 546.22265625 l 1
 452.559570312 491.224609375 289.619140625 438.81640625 190.201171875 406.77734375 c 0
 128.578125 386.928710938 96.4609375 334.10546875 109.578125 293.83984375 c 0
 122.693359375 253.568359375 180.0625 229.318359375 241.493164062 249.426757812 c 0
 418.85546875 307.467773438 769.1796875 420.16015625 1044.44335938 508.756835938 c 1
 1054.41308594 493.358398438 1065.65039062 479.676757812 1077.90625 468.126953125 c 0
 1078.08007812 467.967773438 1078.26464844 467.8125 1078.43652344 467.649414062 c 1
 800.3515625 378.151367188 437.66015625 261.516601562 256.904296875 202.360351562 c 0
 175.165039062 175.606445312 86.0810546875 205.897460938 62.427734375 278.514648438 c 0
 38.7763671875 351.125976562 93.193359375 427.583984375 174.955078125 453.926757812 c 0
 355.407226562 512.076171875 727.009765625 631.571289062 1005.69335938 721.703125 c 1
1163.67382812 243.877929688 m 1
 1118.73535156 76.154296875 1056.26660156 99.443359375 1056.26660156 1.2607421875 c 0
 1056.26660156 -58.02734375 1104.38183594 -106.147460938 1163.67382812 -106.147460938 c 0
 1222.96191406 -106.147460938 1271.08007812 -58.029296875 1271.08007812 1.2607421875 c 0
 1271.08007812 107.244140625 1209.41601562 73.1708984375 1163.67382812 243.877929688 c 1
EndSplineSet
LCarets2: 3 0 0 0
Ligature2: "'liga' Standard Ligatures in Latin lookup 0-1" a c i d
Comment: "from https://game-icons.net/1x1/lorc/chemical-drop.html"
EndChar

StartChar: dmg_bludgeoning
Encoding: 73 -1 63
Width: 1286
VWidth: 1036
Flags: HW
LayerCount: 2
Fore
SplineSet
665.567382812 954.25 m 1
 452.455078125 741.13671875 l 1
 452.455078125 691.638671875 l 1
 715.069335938 954.25 l 1
 665.567382812 954.25 l 1
769.393554688 944.924804688 m 1
 461.77734375 637.3125 l 1
 882.536132812 216.552734375 l 1
 1190.15625 524.166015625 l 1
 769.393554688 944.924804688 l 1
1199.47363281 469.841796875 m 1
 936.860351562 207.23046875 l 1
 986.361328125 207.23046875 l 1
 1199.47363281 420.340820312 l 1
 1199.47363281 469.841796875 l 1
599.674804688 435.7734375 m 1
 574.922851562 411.0234375 l 1
 656.245117188 329.696289062 l 1
 681 354.447265625 l 1
 599.674804688 435.7734375 l 1
543.102539062 379.202148438 m 1
 484.278320312 320.37890625 l 1
 601.926757812 320.37890625 l 1
 543.102539062 379.202148438 l 1
439.274414062 275.376953125 m 1
 371.1328125 207.23046875 l 1
 533.782226562 207.23046875 l 1
 601.926757812 275.376953125 l 1
 439.274414062 275.376953125 l 1
326.127929688 162.2265625 m 1
 257.989257812 94.087890625 l 1
 420.637695312 94.087890625 l 1
 488.776367188 162.2265625 l 1
 326.127929688 162.2265625 l 1
257.989257812 49.083984375 m 1
 316.809570312 -9.740234375 l 1
 375.6328125 49.083984375 l 1
 257.989257812 49.083984375 l 1
203.663085938 39.76171875 m 1
 178.915039062 15.013671875 l 1
 260.23828125 -66.3125 l 1
 284.985351562 -41.564453125 l 1
 203.663085938 39.76171875 l 1
106.739257812 -7.48828125 m 1
 87.9775390625 -63.7724609375 l 1
 181.454101562 -157.25 l 1
 237.73828125 -138.48828125 l 1
 237.73828125 -107.451171875 l 1
 137.770507812 -7.48828125 l 1
 106.739257812 -7.48828125 l 1
EndSplineSet
LCarets2: 10 0 0 0 0 0 0 0 0 0 0
Ligature2: "'liga' Standard Ligatures in Latin lookup 0-1" b l u d g e o n i n g
Comment: "https://game-icons.net/1x1/delapouite/thor-hammer.html"
EndChar

StartChar: dmg_cold
Encoding: 74 -1 64
Width: 1286
VWidth: 1036
Flags: HW
LayerCount: 2
Fore
SplineSet
763.306640625 919.953125 m 5
 611.575195312 870.249023438 l 5
 578.751953125 714.0234375 l 5
 668.750976562 633.379882812 l 5
 639.348632812 635.916992188 610.388671875 633.564453125 582.811523438 626.926757812 c 5
 611.000976562 540.918945312 l 5
 596.677734375 538.06640625 582.8984375 533.499023438 569.84375 527.370117188 c 5
 541.65625 613.379882812 l 5
 514.9921875 602.181640625 490.245117188 586.795898438 468.478515625 567.801757812 c 5
 493.321289062 685.982421875 l 5
 374.48828125 792.498046875 l 5
 222.758789062 742.859375 l 5
 189.934570312 586.639648438 l 5
 308.768554688 480.125 l 5
 423.763671875 517.728515625 l 5
 407.986328125 494.84375 395.6015625 469.141601562 387.38671875 441.28125 c 5
 476.077148438 422.588867188 l 5
 473.78125 415.818359375 471.788085938 408.896484375 470.28125 401.720703125 c 4
 468.76953125 394.526367188 467.71875 387.344726562 467.091796875 380.202148438 c 5
 378.401367188 398.890625 l 5
 374.5859375 369.298828125 375.77734375 340.013671875 381.37109375 312.016601562 c 5
 290.581054688 393.459960938 l 5
 138.849609375 343.751953125 l 5
 106.025390625 187.6015625 l 5
 224.859375 81.0146484375 l 5
 376.590820312 130.649414062 l 5
 401.734375 250.423828125 l 5
 414.014648438 224.25 430.451171875 200.131835938 450.354492188 179.124023438 c 5
 510.788085938 246.5859375 l 5
 520.25 235.7421875 531.021484375 225.97265625 542.95703125 217.602539062 c 5
 482.603515625 150.213867188 l 5
 504.896484375 133.227539062 530.112304688 119.500976562 557.66796875 110.000976562 c 5
 442.52734375 72.322265625 l 5
 409.70703125 -83.900390625 l 5
 528.541015625 -190.491210938 l 5
 680.271484375 -140.783203125 l 5
 713.095703125 15.365234375 l 5
 623.025390625 96.1611328125 l 5
 652.379882812 93.6240234375 681.283203125 95.9912109375 708.817382812 102.606445312 c 5
 680.703125 188.48046875 l 5
 695.037109375 191.3046875 708.869140625 195.854492188 721.9296875 201.95703125 c 5
 750.046875 116.094726562 l 5
 776.822265625 127.321289062 801.607421875 142.798828125 823.447265625 161.888671875 c 5
 798.521484375 43.4873046875 l 5
 917.428710938 -63.02734375 l 5
 1069.08691406 -13.3955078125 l 5
 1101.91015625 142.827148438 l 5
 983.076171875 249.344726562 l 5
 867.791015625 211.590820312 l 5
 883.65625 234.556640625 896.147460938 260.288085938 904.385742188 288.25390625 c 5
 815.984375 306.873046875 l 5
 818.279296875 313.643554688 820.2734375 320.641601562 821.780273438 327.811523438 c 4
 823.287109375 335 824.270507812 342.12890625 824.896484375 349.258789062 c 5
 913.297851562 330.640625 l 5
 917.100585938 360.272460938 915.864257812 389.569335938 910.251953125 417.591796875 c 5
 1001.33203125 336 l 5
 1153 385.709960938 l 5
 1185.89648438 541.860351562 l 5
 1066.9921875 648.451171875 l 5
 915.331054688 598.8125 l 5
 890.115234375 478.96484375 l 5
 877.8203125 505.206054688 861.3203125 529.358398438 841.3515625 550.405273438 c 5
 781.06640625 483.092773438 l 5
 771.564453125 493.948242188 760.731445312 503.709960938 748.748046875 512.076171875 c 5
 809.103515625 579.388671875 l 5
 786.84375 596.331054688 761.663085938 609.966796875 734.182617188 619.4609375 c 5
 849.322265625 657.139648438 l 5
 882.143554688 813.362304688 l 5
 763.309570312 919.953125 l 5
 763.306640625 919.953125 l 5
614.91015625 480.848632812 m 5
 730.626953125 449.837890625 l 5
 761.642578125 334.12109375 l 5
 676.939453125 249.41796875 l 5
 561.219726562 280.428710938 l 5
 530.203125 396.143554688 l 5
 614.904296875 480.845703125 l 5
 614.91015625 480.848632812 l 5
EndSplineSet
LCarets2: 3 0 0 0
Ligature2: "'liga' Standard Ligatures in Latin lookup 0-1" c o l d
Comment: "from https://game-icons.net/1x1/lorc/snowflake-2.html"
EndChar

StartChar: dmg_electricity
Encoding: 75 -1 65
Width: 1286
VWidth: 1036
Flags: HW
LayerCount: 2
Fore
SplineSet
911 502.73046875 m 5
 633.15234375 502.73046875 l 5
 633.15234375 954.231445312 l 5
 355.3046875 294.34375 l 5
 633.15234375 294.34375 l 5
 633.15234375 -157.157226562 l 5
 911 502.73046875 l 5
EndSplineSet
LCarets2: 10 0 0 0 0 0 0 0 0 0 0
Ligature2: "'liga' Standard Ligatures in Latin lookup 0-1" e l e c t r i c i t y
Comment: "from https://game-icons.net/1x1/sbed/electric.html"
EndChar

StartChar: dmg_fire
Encoding: 76 -1 66
Width: 1286
VWidth: 1036
Flags: HW
LayerCount: 2
Fore
SplineSet
614.36328125 954.369140625 m 5
 693.65625 841.486328125 559.938476562 213.1328125 405.541992188 638.209960938 c 5
 294.655273438 238.44140625 137.77734375 221.309570312 137.592773438 406.232421875 c 5
 -27.9794921875 222.83203125 238.93359375 -104.283203125 339.646484375 -157.857421875 c 5
 460.188476562 -157.857421875 l 5
 354 -65.322265625 282.62890625 22.513671875 270.16015625 156.563476562 c 5
 379.56640625 134.772460938 436.321289062 108.094726562 458.077148438 300.046875 c 5
 598.526367188 99.810546875 691.505859375 414.2265625 775.309570312 547.7578125 c 5
 771.500976562 454.518554688 767.580078125 331.64453125 828.145507812 247.396484375 c 4
 848.346679688 219.31640625 904.9921875 210.142578125 954.719726562 210.84375 c 5
 931.780273438 173.66015625 851.009765625 50.4150390625 915.389648438 4.572265625 c 4
 979.768554688 -41.26953125 991.866210938 5.4609375 975.180664062 -32.833984375 c 5
 944.5078125 -81.1171875 922.012695312 -123.88671875 838.579101562 -157.8515625 c 5
 968.223632812 -157.8515625 l 5
 1105.67773438 -114.5625 1226.7734375 54.11328125 1187 155.56640625 c 5
 1136.09082031 112.423828125 1085.7734375 84.1181640625 1045.25976562 87.263671875 c 5
 1158.84667969 253.946289062 1132.76269531 424.658203125 1079.37304688 599.109375 c 5
 1032.60546875 431.725585938 1001.93261719 408.341796875 953.16796875 368.971679688 c 5
 1020.47070312 527.73828125 755.591796875 864.874023438 614.369140625 954.37109375 c 5
 614.36328125 954.369140625 l 5
EndSplineSet
LCarets2: 3 0 0 0
Ligature2: "'liga' Standard Ligatures in Latin lookup 0-1" f i r e
Comment: "from https://game-icons.net/1x1/carl-olsen/flame.html"
EndChar

StartChar: dmg_sonic
Encoding: 77 -1 67
Width: 1286
VWidth: 1036
Flags: HW
LayerCount: 2
Fore
SplineSet
631.565429688 954.229492188 m 6
 488.529296875 954.625 345.3515625 900.328125 236.364257812 791.337890625 c 4
 49.8701171875 604.84375 25.4013671875 319.51171875 159.228515625 104.831054688 c 5
 109.904296875 241.641601562 147.390625 423.377929688 261.668945312 582.34375 c 5
 198.946289062 455.623046875 206.127929688 303.287109375 281.994140625 181.596679688 c 5
 244.46875 285.674804688 274.779296875 424.860351562 364.884765625 544.819335938 c 5
 313.004882812 449.557617188 316.530273438 332.350585938 374.469726562 239.415039062 c 5
 341.883789062 329.795898438 378.770507812 456.140625 475.426757812 552.799804688 c 4
 577.869140625 655.239257812 714.149414062 691.46484375 805.1171875 647.9765625 c 5
 711.919921875 713.271484375 590.025390625 720.0390625 490.822265625 668.344726562 c 5
 617.315429688 759.572265625 763.591796875 785.869140625 866.875 736.506835938 c 5
 744.703125 822.087890625 586.23046875 833.634765625 454.202148438 771.208984375 c 5
 621.91796875 886.911132812 812.9765625 918.979492188 948.879882812 854.025390625 c 5
 853.9609375 920.520507812 742.802734375 953.916015625 631.5625 954.229492188 c 6
 631.565429688 954.229492188 l 6
948.885742188 854.022460938 m 6
 948.903320312 854.009765625 l 5
 948.903320312 854.013671875 l 6
 948.896484375 854.013671875 948.890625 854.021484375 948.885742188 854.022460938 c 6
866.875 736.506835938 m 6
 866.875 736.502929688 866.883789062 736.498046875 866.889648438 736.494140625 c 6
 866.889648438 736.498046875 l 6
 866.8828125 736.498046875 866.876953125 736.505859375 866.872070312 736.506835938 c 6
 866.875 736.506835938 l 6
1085.81542969 717.09375 m 5
 1150.78808594 581.18359375 1118.72265625 390.106445312 1003 222.375976562 c 5
 1065.43164062 354.405273438 1053.89941406 512.885742188 968.30859375 635.063476562 c 5
 1017.67675781 531.776367188 991.372070312 385.483398438 900.131835938 258.982421875 c 5
 951.8359375 358.184570312 945.073242188 480.090820312 879.786132812 573.291015625 c 5
 923.26171875 482.327148438 887.040039062 346.051757812 784.600585938 243.615234375 c 4
 687.938476562 146.954101562 561.594726562 110.072265625 471.211914062 142.662109375 c 5
 564.161132812 84.71875 681.399414062 81.1962890625 776.666992188 133.099609375 c 5
 656.696289062 42.970703125 517.4921875 12.6455078125 413.397460938 50.1826171875 c 5
 535.083984375 -25.67578125 687.419921875 -32.8671875 814.137695312 29.845703125 c 5
 655.171875 -84.4267578125 473.44140625 -121.909179688 336.639648438 -72.58203125 c 5
 551.3203125 -206.408203125 836.658203125 -181.939453125 1023.14648438 4.5537109375 c 4
 1216.90527344 198.310546875 1237.828125 500.124023438 1085.81835938 717.09375 c 5
 1085.81542969 717.09375 l 5
879.7890625 573.293945312 m 5
 879.780273438 573.310546875 l 5
 879.774414062 573.310546875 l 5
 879.7890625 573.293945312 l 5
968.311523438 635.06640625 m 5
 968.302734375 635.081054688 l 5
 968.297851562 635.081054688 l 5
 968.311523438 635.06640625 l 5
EndSplineSet
LCarets2: 4 0 0 0 0
Ligature2: "'liga' Standard Ligatures in Latin lookup 0-1" s o n i c
Comment: "from https://game-icons.net/1x1/lorc/resonance.html"
EndChar

StartChar: dmg_piercing
Encoding: 78 -1 68
Width: 1286
VWidth: 1036
Flags: HW
LayerCount: 2
Fore
SplineSet
1210.4296875 954.25 m 5
 1126.37597656 927.703125 1020.4140625 897.126953125 936.361328125 858.844726562 c 5
 885.970703125 777.938476562 789.16796875 742.38671875 687.189453125 749.595703125 c 5
 616.651367188 655.083984375 524.301757812 585.158203125 423.298828125 574.37890625 c 5
 407.014648438 528.03125 399.603515625 483.45703125 399.796875 441.701171875 c 4
 399.796875 441.701171875 399.796875 441.69921875 399.796875 441.698242188 c 4
 399.796875 441.698242188 399.796875 441.697265625 399.796875 441.6953125 c 4
 400.189453125 356.03515625 432.379882812 282.330078125 484.658203125 230.017578125 c 4
 489.907226562 224.76953125 495.388671875 219.767578125 501.05859375 214.93359375 c 5
 528.3671875 267.48828125 563.314453125 302.373046875 601.95703125 323.451171875 c 4
 647.39453125 348.229492188 696.602539062 353.85546875 742.61328125 351.9296875 c 5
 740.787109375 308.14453125 l 5
 699.630859375 309.868164062 659.1015625 304.751953125 622.900390625 285.006835938 c 4
 590.828125 267.51171875 561.236328125 238.439453125 536.939453125 188.869140625 c 5
 606.48046875 146.330078125 697.815429688 131.470703125 799 159.211914062 c 5
 806.37109375 244.669921875 855.912109375 329.994140625 954.227539062 361.595703125 c 5
 939.291015625 467.092773438 1016.45410156 641.209960938 1104.77246094 659.68359375 c 5
 1148.06640625 753.3125 1182.95507812 857.880859375 1210.4296875 954.25 c 5
969.4609375 804.95703125 m 5
 1013.24316406 803.415039062 l 5
 1010.31347656 718.703125 971.037109375 637.861328125 915.866210938 583.681640625 c 4
 913.5234375 581.385742188 911.171875 579.14453125 908.759765625 576.943359375 c 4
 879.794921875 540.6953125 870.989257812 512.239257812 872.442382812 486.8046875 c 4
 873.904296875 461.22265625 886.525390625 436.197265625 907.733398438 409.412109375 c 5
 873.39453125 382.243164062 l 5
 849.197265625 412.8046875 830.904296875 446.198242188 828.7265625 484.31640625 c 4
 827.875976562 499.260742188 829.603515625 514.54296875 834.078125 530.15625 c 5
 798.491210938 516.947265625 760.633789062 515.091796875 724.388671875 529.56640625 c 5
 681.022460938 456.861328125 609.943359375 395.095703125 514.827148438 376.462890625 c 5
 506.41015625 419.368164062 l 5
 629.515625 443.486328125 708.309570312 556.83203125 725.99609375 655.142578125 c 5
 769.052734375 647.38671875 l 5
 764.375 621.40234375 756.158203125 594.71875 744.595703125 568.670898438 c 5
 790.5546875 552.43359375 841.251953125 571.811523438 885.180664062 614.948242188 c 4
 932.038085938 660.961914062 966.966796875 733.067382812 969.4609375 804.95703125 c 5
361.720703125 384.077148438 m 5
 359.758789062 382.48828125 357.873046875 380.813476562 356.084960938 379.026367188 c 4
 340.088867188 363.030273438 331.9765625 339.96875 332.65234375 312.025390625 c 4
 332.875976562 302.708007812 334.11328125 292.837890625 336.314453125 282.516601562 c 4
 345.11328125 241.231445312 370.45703125 194.409179688 410.560546875 154.302734375 c 4
 450.662109375 114.205078125 497.412109375 88.861328125 538.697265625 80.0634765625 c 4
 579.983398438 71.265625 613.879882812 78.580078125 635.20703125 99.9091796875 c 4
 637.329101562 102.029296875 639.291015625 104.345703125 641.131835938 106.71484375 c 5
 567.34765625 117.575195312 502.692382812 150.077148438 453.684570312 199.119140625 c 4
 405.244140625 247.595703125 372.931640625 311.337890625 361.720703125 384.077148438 c 5
296.184570312 262.236328125 m 5
 286.291015625 251.181640625 280.896484375 235.876953125 280.734375 217.205078125 c 4
 280.72265625 215.877929688 280.768554688 214.537109375 280.806640625 213.173828125 c 4
 281.033203125 205.916992188 282.03125 198.130859375 283.814453125 189.96484375 c 4
 290.9453125 157.296875 311.353515625 119.737304688 343.633789062 87.45703125 c 4
 375.9140625 55.17578125 413.474609375 34.767578125 446.142578125 27.638671875 c 4
 477.296875 20.8310546875 502.2265625 25.73828125 518.265625 40.0078125 c 5
 470.572265625 52.66015625 421.7734375 81.21484375 379.583984375 123.40625 c 4
 337.352539062 165.638671875 308.81640625 214.498046875 296.184570312 262.236328125 c 5
270.345703125 109.861328125 m 5
 90.80078125 -69.1640625 l 5
 90.80078125 -157.25 l 5
 195.287109375 -157.25 l 5
 366.116210938 14.0859375 l 5
 347.500976562 25.515625 329.443359375 39.7734375 312.661132812 56.55859375 c 4
 295.908203125 73.31640625 281.748046875 91.29296875 270.345703125 109.861328125 c 5
EndSplineSet
LCarets2: 7 0 0 0 0 0 0 0
Ligature2: "'liga' Standard Ligatures in Latin lookup 0-1" p i e r c i n g
Comment: "from https://game-icons.net/1x1/lorc/stone-spear.html"
EndChar

StartChar: dmg_slashing
Encoding: 79 -1 69
Width: 1286
VWidth: 1036
Flags: HW
LayerCount: 2
Fore
SplineSet
557.62890625 954.247070312 m 5
 557.58203125 954.106445312 l 5
 646.75 920.376953125 730.76171875 874.18359375 807.018554688 817.080078125 c 5
 918.678710938 627.6953125 l 5
 741.045898438 830.111328125 481.900390625 950.583984375 207.456054688 950.755859375 c 4
 172.381835938 950.779296875 137.057617188 948.80078125 101.625976562 944.813476562 c 5
 101.625976562 900.73828125 l 5
 355.23828125 930.685546875 603.133789062 850.818359375 789.795898438 693.124023438 c 5
 889 464.732421875 l 5
 737.842773438 688.451171875 483.5546875 825.83984375 211.522460938 827.421875 c 4
 205.779296875 827.453125 200.03515625 827.426757812 194.275390625 827.338867188 c 4
 163.547851562 826.870117188 132.622070312 824.625976562 101.615234375 820.609375 c 5
 101.615234375 776.416015625 l 5
 333.715820312 808.189453125 561.416992188 732.967773438 727.852539062 583.548828125 c 5
 799.846679688 377.65625 l 5
 673.427734375 578.297851562 451.732421875 702.733398438 213.7578125 705.158203125 c 4
 176.672851562 705.537109375 139.193359375 702.912109375 101.62109375 697.190429688 c 5
 101.62109375 652.84765625 l 5
 320.432617188 688.436523438 536.2421875 610.529296875 682.295898438 457.623046875 c 5
 730.8125 260.87890625 l 5
 633.90625 458.845703125 432.549804688 584.754882812 214.583007812 587.78515625 c 4
 211.638671875 587.828125 208.688476562 587.84375 205.735351562 587.842773438 c 4
 171.299804688 587.795898438 136.478515625 584.654296875 101.62109375 578.267578125 c 5
 101.62109375 533.637695312 l 5
 311.482421875 575.35546875 520.474609375 488.716796875 641.690429688 323.880859375 c 5
 652.521484375 151.916992188 l 5
 584.594726562 346.541015625 399.579101562 472.389648438 199.43359375 470.462890625 c 4
 167.079101562 470.15234375 134.331054688 466.494140625 101.62109375 459.255859375 c 5
 101.62109375 414.270507812 l 5
 282.661132812 458.590820312 465.797851562 381.487304688 563.708007812 233.416015625 c 5
 577.475585938 98.6318359375 l 5
 632.172851562 113.362304688 688.919921875 129.622070312 738.60546875 147.568359375 c 4
 783.60546875 163.81640625 822.736328125 181.623046875 847.849609375 199.236328125 c 4
 860.401367188 208.04296875 869.283203125 216.768554688 874.046875 224.02734375 c 4
 878.813476562 231.28515625 879.838867188 236.180664062 878.965820312 241.822265625 c 6
 876.030273438 260.866210938 l 5
 1197.39941406 353.603515625 l 5
 1103.60546875 624.1328125 908.48046875 835.032226562 666.959960938 954.25 c 5
 557.62890625 954.25 l 5
 557.62890625 954.247070312 l 5
1211.41210938 312.041015625 m 5
 1117.17285156 284.845703125 l 5
 1120.99414062 241.096679688 1106.23339844 199.114257812 1078.73046875 162.83203125 c 4
 1045.484375 118.97265625 994.483398438 81.6484375 932.520507812 49.693359375 c 4
 826.48046875 -5.00390625 687.639648438 -43.7978515625 547.094726562 -62.771484375 c 5
 557.36328125 -101.103515625 l 5
 718.264648438 -83.14453125 893.421875 -49.435546875 1021.96972656 12.6923828125 c 4
 1093.51660156 47.2734375 1150.05664062 90.349609375 1183.08789062 142.413085938 c 4
 1212.95703125 189.499023438 1224.76074219 244.125976562 1211.40917969 312.04296875 c 5
 1211.41210938 312.041015625 l 5
1074.22949219 272.455078125 m 5
 921.774414062 228.4609375 l 5
 920.048828125 218.2734375 916.276367188 208.5078125 910.677734375 199.981445312 c 4
 901.475585938 185.9609375 888.494140625 174.224609375 873.006835938 163.360351562 c 4
 842.028320312 141.63671875 800.3359375 123.275390625 753.48828125 106.353515625 c 4
 678.63671875 79.3203125 593.102539062 57.123046875 520.076171875 38.046875 c 5
 535.653320312 -20.072265625 l 5
 674.041015625 -1.80859375 811.458007812 36.5546875 912.435546875 88.6328125 c 4
 970.64453125 118.653320312 1016.50292969 153.27734375 1043.81347656 189.305664062 c 4
 1064.45410156 216.534179688 1074.95605469 243.544921875 1074.2265625 272.455078125 c 5
 1074.22949219 272.455078125 l 5
460.55078125 90.9208984375 m 5
 383.104492188 70.1728515625 l 5
 402.323242188 -1.5458984375 l 5
 427.670898438 -10.806640625 445.984375 -35.259765625 445.984375 -63.638671875 c 4
 445.984375 -79.74609375 440.075195312 -94.5869140625 430.33984375 -106.107421875 c 5
 441.396484375 -147.369140625 l 5
 518.84375 -126.62109375 l 5
 460.55078125 90.91796875 l 5
 460.55078125 90.9208984375 l 5
379.916992188 -41.396484375 m 6
 376.422851562 -41.396484375 373.1640625 -42.169921875 370.255859375 -43.53125 c 6
 193.012695312 -91.0185546875 l 5
 199.874023438 -102.051757812 203.857421875 -115.025390625 203.857421875 -128.858398438 c 4
 203.857421875 -130.428710938 203.787109375 -131.9765625 203.6875 -133.516601562 c 6
 381.775390625 -85.802734375 l 6
 393.403320312 -84.896484375 402.16796875 -75.5556640625 402.16796875 -63.638671875 c 4
 402.16796875 -51.095703125 392.465820312 -41.3955078125 379.91796875 -41.3955078125 c 5
 379.916992188 -41.396484375 l 6
131.650390625 -100.466796875 m 6
 115.712890625 -100.466796875 103.258789062 -112.920898438 103.258789062 -128.858398438 c 4
 103.258789062 -144.795898438 115.712890625 -157.25 131.650390625 -157.25 c 4
 147.58984375 -157.25 160.044921875 -144.795898438 160.044921875 -128.858398438 c 4
 160.044921875 -112.920898438 147.58984375 -100.466796875 131.653320312 -100.466796875 c 6
 131.650390625 -100.466796875 l 6
EndSplineSet
LCarets2: 7 0 0 0 0 0 0 0
Ligature2: "'liga' Standard Ligatures in Latin lookup 0-1" s l a s h i n g
Comment: "from https://game-icons.net/1x1/lorc/blade-drag.html"
EndChar

StartChar: dmg_force
Encoding: 80 -1 70
Width: 1286
VWidth: 1062
Flags: W
HStem: 26.1113 127.404<929 1068.06> 538.23 127.405<928.82 1067.93>
VStem: 1155.03 127.401<251.594 440.154>
LayerCount: 2
Fore
SplineSet
642.907226562 665.635742188 m 5
 802.788085938 465.78515625 522.997070312 545.725585938 203.233398438 545.725585938 c 5
 339.91015625 500.16796875 443.642578125 465.33203125 518 435.806640625 c 5
 398.78125 397.427734375 237.208007812 363.860351562 3.3818359375 345.874023438 c 5
 237.208007812 327.887695312 398.784179688 294.3203125 518 255.940429688 c 5
 443.642578125 226.416015625 339.913085938 191.580078125 203.233398438 146.022460938 c 5
 522.997070312 146.022460938 802.788085938 225.962890625 642.907226562 26.111328125 c 5
 695.294921875 52.3056640625 755.729492188 78.296875 814.02734375 107.299804688 c 5
 881.498046875 60.7587890625 932.798828125 26.111328125 1026.37207031 26.111328125 c 4
 1154.27734375 26.111328125 1282.4296875 154.016601562 1282.4296875 345.874023438 c 4
 1282.4296875 537.731445312 1154.26855469 665.635742188 1026.36914062 665.635742188 c 4
 932.171875 665.635742188 880.9296875 631.465820312 812.775390625 584.448242188 c 5
 754.778320312 613.254882812 694.98046875 639.595703125 642.90234375 665.635742188 c 5
 642.907226562 665.635742188 l 5
995.146484375 538.23046875 m 5
 1083.44433594 538.23046875 1155.02832031 451.8359375 1155.02832031 345.874023438 c 4
 1155.02832031 239.912109375 1083.44433594 153.515625 995.146484375 153.515625 c 4
 970.999023438 153.515625 948.22265625 160.750976562 927.6953125 172.25390625 c 5
 994.666992188 218.833007812 1042.61035156 274.615234375 1042.61035156 345.874023438 c 4
 1042.61035156 417.135742188 994.666992188 472.927734375 927.6953125 519.500976562 c 5
 948.21875 531 970.997070312 538.23828125 995.146484375 538.23828125 c 5
 995.146484375 538.23046875 l 5
EndSplineSet
LCarets2: 4 0 0 0 0
Ligature2: "'liga' Standard Ligatures in Latin lookup 0-1" f o r c e
Comment: "from https://game-icons.net/1x1/sbed/blaster.html"
EndChar

StartChar: dmg_mental
Encoding: 81 -1 71
Width: 1286
VWidth: 1036
Flags: HW
LayerCount: 2
Fore
SplineSet
603.884765625 954.243164062 m 4
 597.850585938 954.22265625 591.844726562 954.159179688 585.846679688 953.997070312 c 4
 581.133789062 953.866210938 576.419921875 953.721679688 571.729492188 953.505859375 c 4
 548.712890625 949.415039062 538.083984375 939.336914062 532.3125 927.802734375 c 4
 525.955078125 915.084960938 526.202148438 897.97265625 533.291992188 882.755859375 c 4
 540.387695312 867.53125 553.400390625 855.084960938 571.567382812 850.436523438 c 4
 589.73828125 845.7890625 614.750976562 848.19140625 647.625 869.204101562 c 5
 673.904296875 828.076171875 l 5
 632.596679688 801.673828125 592.625976562 794.709960938 559.489257812 803.188476562 c 4
 526.356445312 811.66796875 501.770507812 834.846679688 489.065429688 862.110351562 c 4
 477.094726562 887.795898438 474.896484375 917.930664062 486.375976562 944.693359375 c 5
 374.30078125 926.5703125 272.822265625 883.590820312 194.874023438 823.099609375 c 5
 169.256835938 795.190429688 166.749023438 762.750976562 177.978515625 740.595703125 c 4
 190.591796875 715.719726562 220.309570312 697.559570312 279.745117188 716.361328125 c 5
 294.515625 669.844726562 l 5
 219.881835938 646.237304688 158.364257812 671.379882812 134.48828125 718.482421875 c 4
 128.6640625 729.96484375 125.107421875 742.392578125 123.709960938 755.206054688 c 5
 111.138671875 740.2890625 99.7890625 724.76171875 89.7626953125 708.607421875 c 5
 90.0908203125 708.452148438 l 5
 67.5966796875 657.2265625 67.0849609375 621.745117188 76.052734375 598.688476562 c 4
 85.025390625 575.630859375 103.825195312 560.98046875 132.771484375 552.905273438 c 4
 190.662109375 536.766601562 284.403320312 556.240234375 350.415039062 605.541015625 c 4
 378.670898438 626.640625 405.455078125 677.81640625 407.787109375 717.504882812 c 4
 408.950195312 737.352539062 404.745117188 753.030273438 396.440429688 763.04296875 c 4
 388.13671875 773.0546875 374.83984375 780.547851562 347.3125 780.263671875 c 5
 346.825195312 829.060546875 l 5
 384.65625 829.451171875 415.374023438 816.645507812 433.98046875 794.212890625 c 4
 452.583984375 771.780273438 458.162109375 742.893554688 456.50390625 714.6484375 c 4
 453.1875 658.155273438 423.61328125 599.296875 379.62890625 566.450195312 c 4
 301.611328125 508.180664062 198.563476562 483.915039062 119.715820312 505.8984375 c 4
 83.1865234375 516.08203125 50.8515625 538.2421875 34.1904296875 572.567382812 c 5
 9.263671875 453.888671875 45.48046875 343.650390625 114.408203125 267.360351562 c 4
 123.418945312 257.384765625 133.0078125 247.958007812 143.056640625 239.209960938 c 5
 135.864257812 259.805664062 132.568359375 281.25390625 133.341796875 302.126953125 c 4
 134.725585938 339.534179688 149.223632812 376.149414062 178.309570312 401.438476562 c 4
 202.163085938 422.188476562 235.11328125 434.159179688 274.521484375 434.081054688 c 4
 277.149414062 434.081054688 279.833007812 434.034179688 282.518554688 433.924804688 c 4
 288.654296875 433.6640625 294.956054688 433.130859375 301.372070312 432.290039062 c 5
 295 383.89453125 l 5
 254.293945312 389.2421875 227.875 379.919921875 210.296875 364.635742188 c 4
 192.721679688 349.348632812 183.026367188 326.47265625 182.059570312 300.329101562 c 4
 180.126953125 248.0390625 213.580078125 186.978515625 285.70703125 169.268554688 c 5
 285.624023438 168.77734375 l 5
 356.633789062 155.223632812 435.873046875 167.806640625 515.426757812 216.357421875 c 4
 515.473632812 216.387695312 515.540039062 216.401367188 515.58984375 216.434570312 c 4
 532.145507812 228.056640625 541.063476562 239.4375 545.458984375 249.243164062 c 4
 550.641601562 260.81640625 550.533203125 270.896484375 546.84375 281.72265625 c 4
 539.467773438 303.372070312 513.05078125 325.625976562 488.822265625 331.828125 c 4
 449.646484375 341.856445312 424.758789062 328.078125 413.091796875 311.668945312 c 4
 401.423828125 295.268554688 400.713867188 279.15625 418.72265625 265.16015625 c 5
 388.76953125 226.640625 l 5
 351.720703125 255.452148438 349.357421875 306.254882812 373.348632812 339.98828125 c 4
 391.345703125 365.2890625 422.926757812 382.623046875 460.998046875 383.73046875 c 4
 462.583007812 383.77734375 464.204101562 383.82421875 465.8125 383.809570312 c 4
 477.05859375 383.73046875 488.768554688 382.184570312 500.903320312 379.08203125 c 4
 541.392578125 368.713867188 578.827148438 339.1875 593.033203125 297.475585938 c 4
 596.731445312 286.624023438 598.491210938 274.782226562 597.932617188 262.708007812 c 5
 641.569335938 285.002929688 687.586914062 304.802734375 734.461914062 319.672851562 c 4
 813.211914062 355.658203125 847.353515625 418.744140625 846.021484375 471.865234375 c 4
 844.676757812 525.380859375 811.584960938 570.419921875 735.360351562 577.95703125 c 5
 740.176757812 626.513671875 l 5
 835.92578125 617.044921875 892.84375 548.567382812 894.741210938 473.092773438 c 4
 895.842773438 429.1171875 879.71484375 383.356445312 847.243164062 344.40234375 c 5
 889.213867188 349.102539062 930.923828125 348.305664062 971.364257812 340.154296875 c 5
 963.1328125 357.055664062 959.142578125 375.349609375 959.69921875 393.525390625 c 4
 961.467773438 451.0703125 1010.41210938 504.75390625 1087.33300781 505.571289062 c 4
 1092.45800781 505.62890625 1097.70996094 505.432617188 1103.078125 505.001953125 c 6
 1099.16113281 456.364257812 l 5
 1034.06640625 461.58203125 1009.59082031 427.413085938 1008.49902344 391.977539062 c 4
 1007.42285156 356.932617188 1030.81347656 317.704101562 1097.86035156 312.49609375 c 4
 1171.76464844 311.842773438 1224.74414062 351.922851562 1250.70703125 411.484375 c 4
 1285.46484375 491.2265625 1268.97949219 610.779296875 1159.71484375 720.12109375 c 4
 1157.64648438 722.192382812 1155.59472656 724.28125 1153.51269531 726.323242188 c 5
 1152.35449219 716.420898438 1149.79492188 706.887695312 1146.09179688 698.006835938 c 4
 1127.15917969 652.59375 1082.80957031 621.940429688 1036.73828125 613.377929688 c 4
 973.189453125 601.568359375 921.079101562 627.340820312 897.02734375 666.666015625 c 4
 872.9765625 705.987304688 879.291015625 761.590820312 922.567382812 790.864257812 c 5
 949.908203125 750.387695312 l 5
 926.633789062 734.646484375 925.67578125 713.33203125 938.646484375 692.127929688 c 4
 951.616210938 670.916992188 980.872070312 652.549804688 1027.84082031 661.27734375 c 4
 1057.36621094 666.765625 1090.24316406 690.864257812 1101.0390625 716.768554688 c 4
 1106.44433594 729.721679688 1107.48925781 742.5234375 1102.10449219 757.166992188 c 4
 1097.73046875 769.061523438 1088.55859375 782.666015625 1071.49902344 796.9921875 c 6
 1071.01171875 797.396484375 l 6
 999.677734375 851.157226562 923.888671875 889.822265625 847.08203125 915.3203125 c 5
 847.12890625 915.235351562 847.19921875 915.162109375 847.24609375 915.077148438 c 4
 864.701171875 883.166015625 865.99609375 846.966796875 855.24609375 814.9453125 c 4
 833.74609375 750.900390625 766.274414062 700.439453125 682.80859375 703.228515625 c 4
 664.665039062 703.829101562 647.397460938 695.081054688 632.70703125 678.009765625 c 4
 618.01171875 660.940429688 607.284179688 635.932617188 604.795898438 609.295898438 c 4
 599.821289062 556.0234375 622.875 497.303710938 712.76171875 468.279296875 c 5
 697.729492188 421.84375 l 5
 590.446289062 456.481445312 549.323242188 540.783203125 556.139648438 613.782226562 c 4
 559.552734375 650.27734375 573.651367188 684.19140625 595.720703125 709.831054688 c 4
 617.791992188 735.469726562 649.189453125 753.1875 684.430664062 752.01953125 c 4
 747.208984375 749.926757812 794.953125 788.798828125 808.9609375 830.528320312 c 4
 815.96484375 851.387695312 815.057617188 872.145507812 804.390625 891.647460938 c 4
 794.028320312 910.584960938 773.497070312 929.311523438 736.740234375 942.9765625 c 5
 692.047851562 950.725585938 647.534179688 954.381835938 603.884765625 954.243164062 c 4
868.204101562 296.329101562 m 5
 758.74609375 287.423828125 640.0546875 235.221679688 541.045898438 174.736328125 c 4
 394.858398438 85.4306640625 241.020507812 104.924804688 131.868164062 185.913085938 c 5
 174.811523438 32.2470703125 326.971679688 1.0576171875 485.715820312 39.9228515625 c 4
 501.600585938 45.888671875 517.208007812 56.9951171875 530.51953125 71.337890625 c 4
 548.947265625 91.2021484375 562.298828125 116.958984375 566.504882812 138.254882812 c 5
 614.408203125 128.7890625 l 5
 608.022460938 96.451171875 590.701171875 64.375 566.341796875 38.12109375 c 4
 542.970703125 12.9326171875 512.520507812 -7.1865234375 477.30859375 -12.4736328125 c 5
 459.639648438 -51.826171875 445.099609375 -89.9794921875 439.198242188 -116.68359375 c 4
 429.926757812 -158.624023438 476.294921875 -174.72265625 497.056640625 -132.430664062 c 4
 546.73046875 -31.2568359375 616.840820312 58.802734375 704.41796875 136.458984375 c 5
 772.482421875 181.251953125 830.825195312 236.482421875 868.205078125 296.329101562 c 5
 868.204101562 296.329101562 l 5
EndSplineSet
LCarets2: 5 0 0 0 0 0
Ligature2: "'liga' Standard Ligatures in Latin lookup 0-1" m e n t a l
Comment: "from https://game-icons.net/1x1/lorc/brain.html"
EndChar

StartChar: dmg_bleeding
Encoding: 82 -1 72
Width: 1286
VWidth: 1036
Flags: HW
LayerCount: 2
Fore
SplineSet
66.34765625 954.25 m 5
 96.3974609375 839.423828125 210.3125 621.193359375 239.322265625 331.668945312 c 5
 222.416992188 135.634765625 181.250976562 78.4443359375 181.250976562 -59.765625 c 4
 181.250976562 -130.501953125 210.288085938 -157.248046875 240.845703125 -157.248046875 c 4
 270.731445312 -157.248046875 301.633789062 -126.94921875 301.633789062 -52.44140625 c 4
 301.633789062 92.625 258.229492188 136.791992188 241.96484375 336.201171875 c 5
 258.551757812 550.575195312 395 453.916015625 395 329.114257812 c 5
 395 617.814453125 656.375 547.358398438 692.340820312 418.220703125 c 5
 679.106445312 328.2421875 653.827148438 300.470703125 653.827148438 225.072265625 c 4
 653.827148438 182.4453125 675.635742188 151.111328125 696.728515625 151.111328125 c 4
 718.296875 151.111328125 738.782226562 180.41015625 738.782226562 220.884765625 c 4
 738.782226562 292.521484375 714.942382812 326.125976562 701.584960938 415.205078125 c 5
 741.171875 511.76953125 997.6953125 503.83203125 998.467773438 419.700195312 c 5
 989.727539062 352.006835938 965.755859375 337.358398438 965.755859375 288.58984375 c 4
 965.755859375 263.694335938 982.619140625 245.39453125 998.92578125 245.39453125 c 4
 1015.59863281 245.39453125 1031.43359375 262.505859375 1031.43359375 286.141601562 c 4
 1031.43359375 333.38671875 1007.94921875 352.358398438 999.154296875 421.59375 c 5
 1035.38574219 547.580078125 1221.01074219 472.5078125 1234.94726562 609.438476562 c 5
 1103.68457031 491.782226562 319.595703125 540.859375 66.34765625 954.244140625 c 5
 66.34765625 954.25 l 5
396.55859375 271.9921875 m 5
 384.575195312 190.493164062 351.364257812 168.765625 351.364257812 113.810546875 c 4
 351.364257812 86.537109375 373.383789062 66.79296875 396.559570312 66.79296875 c 4
 419.225585938 66.79296875 442.66015625 87.91015625 442.66015625 116.638671875 c 4
 442.66015625 173.88671875 408.154296875 190.3359375 396.559570312 271.9921875 c 5
 396.55859375 271.9921875 l 5
EndSplineSet
LCarets2: 7 0 0 0 0 0 0 0
Ligature2: "'liga' Standard Ligatures in Latin lookup 0-1" b l e e d i n g
Comment: "from https://game-icons.net/1x1/lorc/bleeding-wound.html"
EndChar

StartChar: dmg_poison
Encoding: 83 -1 73
Width: 1286
VWidth: 1036
Flags: HW
LayerCount: 2
Fore
SplineSet
458.939453125 954.247070312 m 5
 458.939453125 827.63671875 l 5
 826.03515625 827.63671875 l 5
 826.03515625 954.247070312 l 5
 458.939453125 954.247070312 l 5
493.8046875 781.71484375 m 6
 492.18359375 774.58984375 489.986328125 768.783203125 487.046875 764.672851562 c 4
 480.453125 755.458984375 469.766601562 748.471679688 439.134765625 748.471679688 c 4
 386.211914062 748.471679688 338.879882812 734.068359375 303.61328125 708.927734375 c 4
 268.34765625 683.787109375 244.873046875 646.524414062 244.873046875 604.505859375 c 6
 244.873046875 -13.205078125 l 6
 244.873046875 -92.6640625 309.3828125 -157.247070312 388.83984375 -157.247070312 c 6
 913.33984375 -157.247070312 l 6
 992.794921875 -157.247070312 1057.30273438 -92.662109375 1057.30273438 -13.205078125 c 6
 1057.30273438 604.505859375 l 6
 1057.30273438 646.524414062 1033.89453125 683.620117188 999.333984375 708.775390625 c 4
 964.771484375 733.928710938 918.669921875 748.471679688 868.029296875 748.471679688 c 4
 827.0234375 748.471679688 809.99609375 757.041015625 802 766.131835938 c 4
 798.536132812 770.07421875 796.029296875 775.21875 794.24609375 781.717773438 c 5
 747.254882812 781.717773438 l 5
 749.891601562 765.358398438 755.53515625 749.439453125 767.525390625 735.8046875 c 4
 787.453125 713.14453125 820.408203125 702.5625 868.033203125 702.5625 c 4
 909.748046875 702.5625 946.794921875 690.2578125 972.30859375 671.69140625 c 4
 997.8125 653.126953125 1011.38867188 629.677734375 1011.38867188 604.506835938 c 6
 1011.38867188 -13.205078125 l 6
 1011.38867188 -68.130859375 968.265625 -111.333007812 913.337890625 -111.333007812 c 6
 388.83984375 -111.333007812 l 6
 333.9140625 -111.333007812 290.791015625 -68.130859375 290.791015625 -13.205078125 c 6
 290.791015625 604.505859375 l 6
 290.791015625 629.677734375 304.193359375 652.95703125 330.254882812 671.532226562 c 4
 356.317382812 690.115234375 394.678710938 702.5546875 439.133789062 702.5546875 c 4
 478.3515625 702.5546875 508.068359375 715.189453125 524.357421875 737.953125 c 4
 533.950195312 751.35546875 538.443359375 766.319335938 540.635742188 781.711914062 c 5
 493.8046875 781.711914062 l 5
 493.8046875 781.71484375 l 6
656.1953125 670.154296875 m 6
 581.146484375 670.154296875 533.193359375 638.543945312 500.7109375 590.760742188 c 4
 470.501953125 546.3125 455.534179688 486.791992188 453.571289062 428.444335938 c 5
 515.077148438 397.0078125 550.7578125 360.551757812 561.295898438 317.953125 c 4
 563.099609375 310.662109375 564.178710938 303.352539062 564.51953125 296.072265625 c 5
 586.658203125 283.458984375 621.571289062 275.3359375 657.42578125 275.33984375 c 4
 689.208984375 275.344726562 721.505859375 281.576171875 746.107421875 292.232421875 c 5
 746.481445312 300.40234375 747.624023438 308.6015625 749.720703125 316.802734375 c 4
 760.7421875 360.00390625 796.47265625 398.375 858.823242188 428.751953125 c 5
 856.765625 483.9375 842.1328125 543.236328125 812.140625 588.305664062 c 4
 779.708984375 637.052734375 731.685546875 670.154296875 656.201171875 670.154296875 c 6
 656.1953125 670.154296875 l 6
582.79296875 486.18359375 m 6
 605.291015625 486.18359375 623.5625 467.990234375 623.5625 445.489257812 c 4
 623.5625 422.990234375 605.293945312 404.719726562 582.79296875 404.719726562 c 4
 560.293945312 404.719726562 542.099609375 422.990234375 542.099609375 445.4921875 c 4
 542.099609375 467.990234375 560.293945312 486.18359375 582.794921875 486.18359375 c 6
 582.79296875 486.18359375 l 6
719.001953125 486.18359375 m 6
 741.50390625 486.18359375 759.7734375 467.990234375 759.7734375 445.489257812 c 4
 759.7734375 422.990234375 741.5 404.719726562 719 404.719726562 c 4
 696.498046875 404.719726562 678.3046875 422.990234375 678.3046875 445.4921875 c 4
 678.3046875 467.990234375 696.498046875 486.18359375 719 486.18359375 c 6
 719.001953125 486.18359375 l 6
648.131835938 403.642578125 m 5
 663.548828125 371.092773438 675.7734375 338.525390625 681.841796875 305.977539062 c 5
 659.365234375 313.40234375 636.904296875 314.39453125 614.427734375 305.977539062 c 5
 622.6328125 338.532226562 632.490234375 371.09765625 648.137695312 403.642578125 c 5
 648.131835938 403.642578125 l 5
557.1484375 247.697265625 m 6
 551.900390625 231.921875 544.163085938 216.30078125 534.57421875 200.939453125 c 5
 563.885742188 181.307617188 612.166992188 169.465820312 659.57421875 169.99609375 c 4
 706.18359375 170.521484375 750.184570312 183.681640625 773.13671875 200.479492188 c 5
 764.416015625 214.641601562 757.3828125 229.47265625 752.63671875 244.706054688 c 5
 723.283203125 233.85546875 690.169921875 229.04296875 657.42578125 229.041015625 c 4
 621.9296875 229.037109375 586.73828125 234.5 557.1484375 247.69921875 c 5
 557.1484375 247.697265625 l 6
383.545898438 205.779296875 m 5
 361.678710938 178.09375 352.356445312 150.513671875 358.901367188 116.55859375 c 5
 528.251953125 102.9453125 762.330078125 38.130859375 915.873046875 -32.7060546875 c 5
 938.380859375 -5.271484375 946.630859375 22.994140625 940.369140625 57.6630859375 c 5
 773.857421875 74.53515625 537.0859375 128.268554688 383.545898438 205.77734375 c 5
 383.545898438 205.779296875 l 5
915.720703125 205.779296875 m 6
 864.640625 179.990234375 804.354492188 156.868164062 740.50390625 136.829101562 c 5
 790.376953125 125.93359375 839.40625 117.07421875 884.780273438 110.567382812 c 4
 903.900390625 113.087890625 922.51171875 115.120117188 940.3671875 116.55859375 c 5
 946.90234375 150.513671875 937.583984375 178.09375 915.716796875 205.77734375 c 5
 915.720703125 205.779296875 l 6
415.103515625 64.423828125 m 4
 395.68359375 61.7587890625 376.872070312 59.484375 358.900390625 57.666015625 c 5
 352.6328125 22.998046875 360.888671875 -5.271484375 383.390625 -32.703125 c 5
 435.91015625 -8.4775390625 497.827148438 15.078125 563.3671875 36.0888671875 c 5
 512.088867188 48.158203125 461.68359375 57.876953125 415.103515625 64.423828125 c 4
EndSplineSet
LCarets2: 5 0 0 0 0 0
Ligature2: "'liga' Standard Ligatures in Latin lookup 0-1" p o i s o n
Comment: "from https://game-icons.net/1x1/lorc/poison-bottle.html"
EndChar

StartChar: dmg_magical
Encoding: 84 -1 74
Width: 1286
VWidth: 1036
Flags: HW
LayerCount: 2
Fore
SplineSet
616.159179688 953.341796875 m 5
 481.318359375 846.620117188 425.500976562 863.982421875 379.091796875 952.821289062 c 5
 418.318359375 807.435546875 403.689453125 795.859375 273.403320312 677.26953125 c 5
 432.513671875 761.560546875 500.770507812 758.185546875 582.930664062 660.28515625 c 5
 500.435546875 785.805664062 509.775390625 838.361328125 616.159179688 953.337890625 c 5
 616.159179688 953.341796875 l 5
659.66015625 953.04296875 m 5
 687.283203125 681.404296875 l 5
 451.244140625 544.109375 l 5
 682.26171875 494.259765625 l 5
 659.62109375 474.520507812 634.48828125 449.290039062 608.3359375 423.134765625 c 6
 608.260742188 423.063476562 l 5
 67.94140625 -111.126953125 l 5
 67.94140625 -157.06640625 l 5
 143.9375 -157.06640625 l 5
 670.07421875 361.39453125 l 6
 694.322265625 385.650390625 714.74609375 407.5703125 731 426.977539062 c 5
 775.756835938 219.59375 l 5
 913.053710938 455.6328125 l 5
 1184.69140625 428.009765625 l 5
 1002.64355469 631.48046875 l 5
 1112.90527344 881.260742188 l 5
 863.123046875 770.994140625 l 5
 659.658203125 953.04296875 l 5
 659.66015625 953.04296875 l 5
87.5849609375 873.204101562 m 5
 167.383789062 807.833984375 170.798828125 772.130859375 160.258789062 665.75 c 5
 205.1015625 792.732421875 226.346679688 824.796875 312.693359375 859.544921875 c 5
 220.162109375 837.385742188 180.546875 832.880859375 87.5849609375 873.19921875 c 5
 87.5849609375 873.204101562 l 5
216.978515625 631.18359375 m 5
 275.955078125 567.345703125 280.716796875 527.943359375 274.2890625 460.876953125 c 5
 309.208984375 542.294921875 326.453125 568.787109375 405.75 612.8671875 c 5
 324.07421875 586.439453125 298.217773438 588.71484375 216.978515625 631.18359375 c 5
986.46875 406.66796875 m 5
 1008.37695312 284.49609375 975.573242188 232.469726562 908.84375 154.528320312 c 5
 1011.17773438 242.07421875 1045.56835938 259.1875 1137.71972656 246.109375 c 5
 1046.50195312 273.185546875 1025.63574219 294.849609375 986.465820312 406.6640625 c 5
 986.46875 406.66796875 l 5
854.9296875 234.587890625 m 5
 810.72265625 72.01171875 747.860351562 36.1982421875 600.57421875 68.8583984375 c 5
 728.494140625 21.35546875 733.7265625 19.0625 727.088867188 -132.6171875 c 5
 785.599609375 -1.640625 836.9609375 -9.2109375 951.749023438 -44.6611328125 c 5
 853.01953125 30.583984375 843.719726562 71.072265625 854.9296875 234.584960938 c 5
 854.9296875 234.587890625 l 5
1113.34570312 102.310546875 m 5
 1077.13964844 59.78515625 1059.15039062 60.9765625 1009.80371094 80.23046875 c 5
 1063.75390625 36.640625 1051.38867188 -0.1796875 1035.43261719 -60.1640625 c 5
 1073.36328125 -14.9775390625 1091.00878906 -0.521484375 1154.33691406 -30.177734375 c 5
 1100.31054688 20.2607421875 1090.21875 40.384765625 1113.34570312 102.315429688 c 5
 1113.34570312 102.310546875 l 5
EndSplineSet
LCarets2: 6 0 0 0 0 0 0
Ligature2: "'liga' Standard Ligatures in Latin lookup 0-1" m a g i c a l
Comment: "from https://game-icons.net/1x1/lorc/fairy-wand.html"
EndChar

StartChar: dmg_chaotic
Encoding: 85 -1 75
Width: 1286
VWidth: 1036
Flags: HW
LayerCount: 2
Fore
SplineSet
687.790039062 953.64453125 m 5
 432.115234375 802.211914062 l 5
 539.6171875 764.040039062 l 5
 437.822265625 477.20703125 l 5
 581 426.309570312 l 5
 683.033203125 713.142578125 l 5
 790.53515625 674.8515625 l 5
 687.790039062 953.64453125 l 5
185.712890625 923.201171875 m 5
 174.369140625 780.59375 l 5
 120.642578125 785.13671875 l 5
 201.505859375 670.806640625 l 5
 298.92578125 770.603515625 l 5
 245.506835938 774.885742188 l 5
 256.994140625 917.849609375 l 5
 185.712890625 923.201171875 l 5
968.201171875 784.208984375 m 5
 896.612304688 717.661132812 l 5
 1029.32617188 574.483398438 l 5
 975.3359375 524.775390625 l 5
 1164.65527344 500.27734375 l 5
 1154.66601562 690.548828125 l 5
 1100.9140625 640.838867188 l 5
 968.201171875 784.208984375 l 5
145.54296875 525.48828125 m 5
 114.125 443.43359375 l 5
 277.282226562 379.931640625 l 5
 252.974609375 318.569335938 l 5
 415.703125 372.55859375 l 5
 333.41015625 522.872070312 l 5
 309.151367188 461.272460938 l 5
 145.54296875 525.48828125 l 5
1044.0703125 402.288085938 m 5
 818.36328125 384.212890625 l 5
 877.109375 166.352539062 l 5
 927.0546875 237.229492188 l 5
 1115.8984375 103.326171875 l 5
 1182.4921875 197.986328125 l 5
 993.649414062 331.413085938 l 5
 1044.0703125 402.288085938 l 5
614.296875 367.80078125 m 5
 291.314453125 125.444335938 l 5
 200.29296875 247.455078125 l 5
 109.796875 -137.127929688 l 5
 502.990234375 -157.106445312 l 5
 412.373046875 -35.80859375 l 5
 736.071289062 206.309570312 l 5
 614.296875 367.80078125 l 5
835.01171875 92.861328125 m 5
 781.973632812 55.2822265625 l 5
 856.416992188 -51.505859375 l 5
 816.22265625 -79.333984375 l 5
 938.946289062 -113.344726562 l 5
 950.36328125 13.4228515625 l 5
 909.930664062 -14.404296875 l 5
 835.01171875 92.861328125 l 5
EndSplineSet
LCarets2: 6 0 0 0 0 0 0
Ligature2: "'liga' Standard Ligatures in Latin lookup 0-1" c h a o t i c
Comment: "from https://game-icons.net/1x1/delapouite/misdirection.html"
EndChar

StartChar: dmg_lawful
Encoding: 86 -1 76
Width: 1286
VWidth: 1036
Flags: HW
LayerCount: 2
Fore
SplineSet
638.034179688 954.245117188 m 5
 638.034179688 954.245117188 625.333007812 856.1796875 507.263671875 823.474609375 c 4
 389.185546875 790.767578125 165.719726562 823.474609375 165.719726562 823.474609375 c 5
 127.822265625 788.638671875 l 5
 149.450195312 764.447265625 l 5
 146.563476562 756.848632812 l 5
 9.6025390625 394.090820312 l 5
 8.033203125 389.877929688 l 5
 8.033203125 385.340820312 l 6
 8.033203125 335.41796875 29.8359375 294.875 61.7783203125 269.099609375 c 4
 93.7197265625 243.3203125 134.595703125 231.294921875 175.211914062 231.286132812 c 4
 215.833007812 231.279296875 256.787109375 243.323242188 288.732421875 269.099609375 c 4
 320.677734375 294.874023438 342.477539062 335.39453125 342.477539062 385.340820312 c 6
 342.477539062 390.209960938 l 5
 340.661132812 394.668945312 l 5
 195.524414062 750.33203125 l 5
 258.786132812 758.265625 409.161132812 772.893554688 500.659179688 746.284179688 c 4
 561.590820312 728.556640625 596.165039062 692.53515625 615.41015625 661.82421875 c 5
 522.612304688 158.060546875 l 5
 579.166992188 77.984375 l 5
 532.274414062 57.5107421875 493.060546875 12.361328125 479.934570312 -57.6611328125 c 5
 331.788085938 -74.0263671875 227.715820312 -112.452148438 227.715820312 -157.2265625 c 5
 1051.64648438 -157.2265625 l 5
 1051.64648438 -112.455078125 947.578125 -74.0263671875 799.436523438 -57.6611328125 c 5
 786.465820312 12.61328125 747.735351562 58.876953125 701.19140625 79.466796875 c 5
 756.670898438 158.061523438 l 5
 663.211914062 665.79296875 l 5
 682.913085938 695.579101562 717.075195312 729.315429688 775.412109375 746.284179688 c 4
 867.756835938 773.143554688 1020.08691406 757.9609375 1082.27636719 750.080078125 c 5
 947.87109375 394.090820312 l 5
 946.219726562 389.87890625 l 5
 946.219726562 385.34375 l 6
 946.219726562 335.420898438 968.024414062 294.877929688 999.966796875 269.102539062 c 4
 1031.90625 243.323242188 1072.86328125 231.296875 1113.47949219 231.2890625 c 4
 1154.09765625 231.282226562 1195.05175781 243.326171875 1227 269.102539062 c 4
 1258.93945312 294.875 1280.7421875 335.397460938 1280.7421875 385.34375 c 6
 1280.7421875 390.212890625 l 5
 1278.92480469 394.671875 l 5
 1130.81933594 757.512695312 l 5
 1128.34277344 763.536132812 l 5
 1151.54296875 785.828125 l 5
 1110.34570312 823.474609375 l 5
 1110.34570312 823.474609375 886.961914062 790.767578125 768.885742188 823.474609375 c 4
 650.811523438 856.1796875 638.034179688 954.245117188 638.034179688 954.245117188 c 5
170.584960938 680.649414062 m 5
 287.408203125 394.33984375 l 5
 62.4384765625 394.33984375 l 5
 170.584960938 680.647460938 l 5
 170.584960938 680.649414062 l 5
1108.86035156 680.649414062 m 5
 1225.67871094 394.33984375 l 5
 1000.62890625 394.33984375 l 5
 1108.85839844 680.647460938 l 5
 1108.86035156 680.649414062 l 5
EndSplineSet
LCarets2: 5 0 0 0 0 0
Ligature2: "'liga' Standard Ligatures in Latin lookup 0-1" l a w f u l
Comment: "from https://game-icons.net/1x1/lorc/scales.html"
EndChar

StartChar: dmg_evil
Encoding: 87 -1 77
Width: 1286
VWidth: 1048
Flags: HW
LayerCount: 2
Fore
SplineSet
366.635742188 930.280273438 m 5
 366.635742188 930.280273438 l 5
 336.635742188 891.280273438 317.936523438 845.3671875 317.936523438 796.5 c 4
 317.936523438 694.0546875 395.768554688 605.84765625 506.926757812 566.53125 c 5
 521.206054688 599.788085938 l 5
 491.483398438 610.54296875 464.729492188 625.248046875 442.18359375 642.896484375 c 4
 419.372070312 660.754882812 400.920898438 681.3984375 387.69140625 704.014648438 c 5
 457.743164062 764.419921875 544.506835938 800.125976562 638.559570312 800.125976562 c 4
 731.459960938 800.125976562 817.239257812 765.26953125 886.833984375 706.206054688 c 5
 873.526367188 682.734375 854.63671875 661.328125 831.087890625 642.896484375 c 4
 810.9375 627.12109375 787.423828125 613.698242188 761.432617188 603.345703125 c 5
 775.747070312 570.005859375 l 5
 881.868164062 610.880859375 955.333007812 696.97265625 955.333007812 796.5 c 4
 955.333007812 845.3671875 936.594726562 891.6484375 906.157226562 930.2734375 c 5
 1017.56347656 878.9921875 1091.08007812 796.528320312 1091.08007812 704.038085938 c 4
 1091.08007812 644.2265625 1060.85644531 588.76953125 1009.37695312 543.166015625 c 5
 1037.21582031 483.344726562 1054.70214844 416.015625 1059 344.40234375 c 5
 1018.91699219 343.09765625 980.825195312 334.598632812 946.645507812 317.120117188 c 4
 849.404296875 267.40625 803.923828125 160.302734375 812.006835938 33.48046875 c 5
 795.073242188 30.01171875 778.071289062 27.0166015625 761.034179688 24.521484375 c 5
 758.967773438 63.46484375 759.124023438 102.283203125 762.209960938 140.978515625 c 5
 718.774414062 144.44140625 l 5
 715.440429688 102.579101562 715.358398438 60.845703125 717.678710938 19.2412109375 c 5
 699.325195312 17.4716796875 680.993164062 16.2939453125 662.736328125 15.7109375 c 5
 662.736328125 146.577148438 l 5
 619.168945312 146.577148438 l 5
 619.168945312 15.466796875 l 5
 600.092773438 15.8662109375 581.165039062 16.916015625 562.461914062 18.6875 c 5
 564.811523438 60.478515625 564.747070312 102.39453125 561.393554688 144.443359375 c 5
 517.958007812 140.981445312 l 5
 521.05078125 102.15234375 521.200195312 63.1982421875 519.116210938 24.1220703125 c 5
 500.840820312 26.978515625 482.846679688 30.533203125 465.206054688 34.80078125 c 5
 472.891601562 161.048828125 427.387695312 267.583984375 330.477539062 317.126953125 c 4
 296.293945312 334.6015625 258.206054688 343.094726562 218.118164062 344.40625 c 5
 222.362304688 415.053710938 239.442382812 481.528320312 266.63671875 540.743164062 c 5
 213.479492188 586.794921875 182.19140625 643.165039062 182.19140625 704.041015625 c 4
 182.19140625 796.529296875 255.635742188 879.280273438 366.635742188 930.280273438 c 5
391.095703125 503.3203125 m 6
 391.094726562 503.32421875 l 6
 390.711914062 503.29296875 390.134765625 503.01171875 389.94140625 503.23046875 c 4
 366.848632812 484.16796875 352.385742188 457.28125 352.381835938 428.219726562 c 4
 352.381835938 370.088867188 410.524414062 322.09765625 480.958007812 322.09765625 c 4
 540.831054688 322.09765625 590.020507812 356.677734375 603.756835938 402.603515625 c 5
 512.465820312 410.682617188 434.323242188 448.794921875 391.391601562 503.234375 c 4
 391.329101562 503.3125 391.221679688 503.330078125 391.095703125 503.3203125 c 6
884.595703125 503.31640625 m 4
 884.220703125 503.296875 883.729492188 503.029296875 883.469726562 503.228515625 c 4
 840.538085938 448.794921875 762.393554688 410.682617188 671.102539062 402.6015625 c 5
 684.84375 356.670898438 734.028320312 322.094726562 793.901367188 322.094726562 c 4
 864.340820312 322.094726562 922.482421875 370.088867188 922.482421875 428.212890625 c 4
 922.482421875 457.276367188 908.015625 484.1640625 884.91796875 503.224609375 c 4
 884.829101562 503.302734375 884.71875 503.32421875 884.595703125 503.31640625 c 4
638.4375 400.373046875 m 5
 624.272460938 336.444335938 603.600585938 272.513671875 561.708984375 208.5859375 c 5
 610.674804688 195.466796875 667.8984375 195.919921875 715.166992188 208.5859375 c 5
 670.91015625 272.513671875 651.551757812 336.444335938 638.4375 400.373046875 c 5
460.5234375 -8.8955078125 m 5
 478.708007812 -13.138671875 497.180664062 -16.669921875 515.877929688 -19.5126953125 c 5
 511.69921875 -63.99609375 504.9140625 -108.645507812 496.458007812 -153.46875 c 5
 474.014648438 -144.16015625 452.446289062 -132.724609375 431.961914062 -119.34375 c 5
 445.5703125 -81.87109375 455.067382812 -44.80078125 460.5234375 -8.8955078125 c 5
816.778320312 -10.0146484375 m 5
 816.778320312 -10.013671875 l 6
 822.256835938 -45.564453125 831.694335938 -82.2578125 845.161132812 -119.34375 c 5
 825.538085938 -132.15625 804.919921875 -143.19140625 783.489257812 -152.27734375 c 5
 775.112304688 -107.7109375 768.401367188 -63.3125 764.258789062 -19.0791015625 c 5
 781.81640625 -16.5595703125 799.336914062 -13.521484375 816.778320312 -10.0146484375 c 5
720.967773438 -24.271484375 m 5
 720.967773438 -24.26953125 l 6
 725.490234375 -72.0625 732.858398438 -119.678710938 741.946289062 -167.107421875 c 5
 716.377929688 -174.578125 689.887695312 -179.338867188 662.739257812 -181.120117188 c 5
 662.739257812 -27.9560546875 l 5
 682.106445312 -27.357421875 701.534179688 -26.13671875 720.967773438 -24.271484375 c 5
559.159179688 -24.82421875 m 5
 578.989257812 -26.689453125 599.021484375 -27.7919921875 619.170898438 -28.193359375 c 5
 619.170898438 -181.401367188 l 5
 591.372070312 -179.939453125 564.250976562 -175.35546875 538.075195312 -167.942382812 c 5
 547.198242188 -120.419921875 554.604492188 -72.712890625 559.159179688 -24.82421875 c 5
EndSplineSet
LCarets2: 3 -400 -400 -400
Ligature2: "'liga' Standard Ligatures in Latin lookup 0-1" e v i l
Comment: "from https://game-icons.net/1x1/lorc/daemon-skull.html"
EndChar

StartChar: dmg_good
Encoding: 88 -1 78
Width: 1286
VWidth: 1036
Flags: HW
LayerCount: 2
Fore
SplineSet
234.521484375 954.245117188 m 5
 193.166015625 909.091796875 158.404296875 856.194335938 131.35546875 797.659179688 c 5
 415.264648438 531.208984375 l 5
 384.4921875 498.40234375 l 5
 112.842773438 753.3359375 l 5
 90.71484375 694.928710938 75.8173828125 631.844726562 69.125 565.89453125 c 5
 348.819335938 424.501953125 l 5
 328.502929688 384.32421875 l 5
 65.6650390625 517.208984375 l 5
 63.345703125 458.3359375 67.537109375 397.618164062 78.7578125 336.2421875 c 5
 320.82421875 316.2265625 l 5
 317.140625 271.37890625 l 5
 88.4609375 290.266601562 l 5
 90.2509765625 282.825195312 92.109375 275.374023438 94.107421875 267.920898438 c 4
 104.774414062 228.166015625 118.041992188 190.049804688 133.537109375 153.6953125 c 5
 154.623046875 157.583007812 176.416992188 161.577148438 200.5078125 166.112304688 c 4
 264.928710938 178.231445312 328.350585938 190.334960938 328.350585938 190.334960938 c 5
 336.779296875 146.169921875 l 5
 336.779296875 146.169921875 273.287109375 134 208.784179688 121.864257812 c 4
 189.4921875 118.232421875 170.747070312 114.712890625 152.94921875 111.405273438 c 5
 173.77734375 69.25 197.78515625 29.8076171875 224.361328125 -6.583984375 c 5
 370.865234375 75.9599609375 l 5
 392.919921875 36.759765625 l 5
 252.28125 -42.552734375 l 5
 281.662109375 -78.166015625 313.639648438 -110.421875 347.69140625 -138.869140625 c 5
 389.00390625 -89.8818359375 l 5
 392.328125 -40.431640625 400.954101562 0.9560546875 423.618164062 34.654296875 c 4
 438.87890625 57.349609375 460.795898438 75.1708984375 489.004882812 87.4765625 c 5
 469.106445312 118.3515625 453.309570312 153.25390625 442.956054688 191.842773438 c 4
 407.978515625 322.231445312 444.353515625 453.077148438 530.618164062 524.360351562 c 5
 234.517578125 954.245117188 l 5
 234.521484375 954.245117188 l 5
1031.16210938 954.245117188 m 5
 735.069335938 524.360351562 l 5
 821.334960938 453.077148438 857.786132812 322.234375 822.805664062 191.842773438 c 4
 812.548828125 153.61328125 796.877929688 119.03515625 777.205078125 88.375 c 5
 806.931640625 75.4111328125 829.104492188 55.8642578125 843.421875 31.416015625 c 4
 862.229492188 -0.689453125 868.693359375 -38.6943359375 870.889648438 -82.8798828125 c 5
 918.06640625 -138.86328125 l 5
 952.11328125 -110.418945312 984.098632812 -78.166015625 1013.47851562 -42.546875 c 5
 872.767578125 36.759765625 l 5
 894.892578125 75.9599609375 l 5
 1041.39453125 -6.583984375 l 5
 1067.9765625 29.8173828125 1091.97363281 69.2421875 1112.80859375 111.405273438 c 5
 1094.99023438 114.712890625 1076.19042969 118.232421875 1056.89648438 121.864257812 c 4
 992.395507812 134 928.901367188 146.169921875 928.901367188 146.169921875 c 5
 937.329101562 190.337890625 l 5
 937.329101562 190.337890625 1000.83007812 178.234375 1065.24902344 166.114257812 c 4
 1088.83203125 161.673828125 1111.47070312 157.451171875 1132.22070312 153.6171875 c 5
 1147.72753906 189.989257812 1160.97949219 228.151367188 1171.64941406 267.920898438 c 4
 1173.64941406 275.374023438 1175.5078125 282.825195312 1177.29394531 290.266601562 c 5
 948.6171875 271.38671875 l 5
 944.932617188 316.232421875 l 5
 1187 336.2421875 l 5
 1198.22167969 397.62109375 1202.33789062 458.3359375 1200.01757812 517.211914062 c 5
 937.1796875 384.329101562 l 5
 916.862304688 424.509765625 l 5
 1196.6328125 565.897460938 l 5
 1189.93066406 631.874023438 1175.06738281 694.985351562 1152.9140625 753.4140625 c 5
 881.267578125 498.403320312 l 5
 850.422851562 531.208984375 l 5
 1134.32519531 797.659179688 l 5
 1107.26953125 856.194335938 1072.51953125 909.08984375 1031.16113281 954.245117188 c 5
 1031.16210938 954.245117188 l 5
628.59375 325.63671875 m 5
 603.426757812 325.63671875 580.021484375 312.772460938 561.702148438 289.213867188 c 4
 543.377929688 265.654296875 531.22265625 231.677734375 531.22265625 193.6484375 c 4
 531.22265625 155.62109375 543.375 121.645507812 561.697265625 98.0869140625 c 4
 580.021484375 74.5244140625 603.426757812 61.5869140625 628.59375 61.5869140625 c 4
 653.76171875 61.5869140625 677.088867188 74.5244140625 695.413085938 98.083984375 c 4
 713.73828125 121.639648438 725.887695312 155.615234375 725.887695312 193.64453125 c 4
 725.887695312 231.671875 713.735351562 265.650390625 695.413085938 289.208984375 c 4
 677.088867188 312.768554688 653.76171875 325.629882812 628.59375 325.629882812 c 5
 628.59375 325.63671875 l 5
724.006835938 57.900390625 m 5
 699.061523438 31.076171875 665.6484375 13.7353515625 628.590820312 13.7353515625 c 4
 592.576171875 13.7353515625 559.989257812 30.103515625 535.28515625 55.6474609375 c 4
 528.875 54.0576171875 522.890625 52.314453125 517.374023438 50.3779296875 c 4
 489.770507812 40.6982421875 473.09765625 27.599609375 460.94140625 9.5166015625 c 4
 438.811523438 -23.375 433.1484375 -79.697265625 432.26953125 -157.2265625 c 5
 826.713867188 -157.2265625 l 5
 826.388671875 -81.2568359375 823.935546875 -24.3349609375 804.590820312 8.693359375 c 4
 793.947265625 26.8720703125 779.076171875 39.865234375 752.670898438 49.7763671875 c 4
 744.322265625 52.9111328125 734.7734375 55.64453125 724.001953125 57.9033203125 c 6
 724.006835938 57.900390625 l 5
EndSplineSet
LCarets2: 3 0 0 0
Ligature2: "'liga' Standard Ligatures in Latin lookup 0-1" g o o d
Comment: "from https://game-icons.net/1x1/lorc/angel-wings.html"
EndChar

StartChar: d12
Encoding: 89 -1 79
Width: 1286
VWidth: 1036
Flags: HW
LayerCount: 2
Fore
SplineSet
1157.43652344 599.299804688 m 5
 969.301757812 857.803710938 l 5
 664.868164062 956.25 l 5
 664.868164062 709.49609375 l 5
 922.131835938 522.987304688 l 5
 1157.43652344 599.299804688 l 5
913.313476562 674.978515625 m 6
 912.01171875 669.708984375 908.418945312 661.828125 905.295898438 657.384765625 c 4
 898.817382812 648.34375 884.559570312 640.163085938 873.46875 639.123046875 c 4
 860.038085938 637.4921875 846.041992188 641.98046875 831.485351562 652.587890625 c 4
 816.930664062 663.1953125 808.388671875 675.125976562 805.864257812 688.379882812 c 4
 805.313476562 690.921875 804.8671875 695.095703125 804.8671875 697.697265625 c 4
 804.8671875 705.791015625 808.807617188 717.62109375 813.663085938 724.104492188 c 4
 816.955078125 728.419921875 823.387695312 734.224609375 828.017578125 737.064453125 c 4
 834.106445312 740.979492188 842.138671875 742.376953125 852.110351562 741.254882812 c 5
 849.375 746.92578125 847.154296875 756.6328125 847.154296875 762.923828125 c 4
 847.154296875 764.610351562 847.321289062 767.3359375 847.526367188 769.009765625 c 4
 848.620117188 776.982421875 853.440429688 788.677734375 858.284179688 795.114257812 c 4
 865.696289062 805.51953125 882.036132812 815.052734375 894.760742188 816.392578125 c 4
 910.122070312 818.359375 925.940429688 813.416015625 942.215820312 801.55859375 c 4
 958.489257812 789.705078125 967.676757812 776.4296875 969.778320312 761.73828125 c 4
 970.133789062 759.471679688 970.422851562 755.771484375 970.422851562 753.477539062 c 4
 970.422851562 743.575195312 965.557617188 729.13671875 959.561523438 721.24609375 c 4
 954.884765625 714.669921875 945.145507812 706.55859375 937.822265625 703.14453125 c 4
 932.997070312 700.901367188 924.760742188 699.08203125 919.436523438 699.08203125 c 4
 916.993164062 699.08203125 913.069335938 699.478515625 910.676757812 699.969726562 c 5
 914.302734375 690.2734375 915.182617188 681.943359375 913.317382812 674.978515625 c 5
 913.313476562 674.978515625 l 6
884.670898438 697.048828125 m 6
 884.772460938 696.271484375 884.854492188 695.001953125 884.854492188 694.21875 c 4
 884.854492188 689.9921875 882.719726562 683.876953125 880.088867188 680.564453125 c 4
 876.147460938 675.640625 867.825195312 671.64453125 861.508789062 671.64453125 c 4
 850.905273438 671.64453125 840.493164062 680.037109375 838.265625 690.37890625 c 4
 838.192382812 691.052734375 838.133789062 692.1484375 838.133789062 692.826171875 c 4
 838.133789062 697.34765625 840.473632812 703.848632812 843.357421875 707.3359375 c 4
 846.186523438 711.599609375 852.559570312 715.8671875 857.583984375 716.865234375 c 4
 858.444335938 716.98828125 859.846679688 717.087890625 860.713867188 717.087890625 c 4
 865.112304688 717.087890625 871.423828125 714.811523438 874.803710938 712.004882812 c 4
 879.409179688 709.092773438 883.901367188 702.377929688 884.831054688 697.016601562 c 6
 884.670898438 697.048828125 l 6
910.135742188 728.39453125 m 6
 909.401367188 728.326171875 908.208007812 728.270507812 907.470703125 728.270507812 c 4
 894.801757812 728.270507812 882.276367188 738.284179688 879.514648438 750.62109375 c 4
 878.538085938 757.20703125 880.766601562 764.21484375 886.198242188 771.646484375 c 4
 889.668945312 777.143554688 897.625976562 782.833984375 903.958007812 784.349609375 c 4
 904.729492188 784.42578125 905.985351562 784.485351562 906.760742188 784.485351562 c 4
 919.541015625 784.485351562 932.088867188 774.366210938 934.768554688 761.897460938 c 4
 934.81640625 761.27734375 934.856445312 760.271484375 934.856445312 759.650390625 c 4
 934.856445312 753.892578125 931.864257812 745.62109375 928.177734375 741.19140625 c 4
 922.938476562 733.737304688 917.018554688 729.471679688 910.420898438 728.392578125 c 6
 910.135742188 728.39453125 l 6
613.944335938 709.49609375 m 5
 613.944335938 956.25 l 5
 309.509765625 857.803710938 l 5
 121.376953125 599.299804688 l 5
 356.678710938 523.083984375 l 5
 613.944335938 709.49609375 l 5
313.236328125 767.548828125 m 5
 414.383789062 838.177734375 l 5
 420.161132812 829.6875 426.206054688 814.578125 427.879882812 804.451171875 c 4
 430.637695312 791.748046875 428.155273438 774.513671875 420.432617188 752.75 c 4
 416.407226562 742.321289062 411.215820312 724.9921875 408.844726562 714.068359375 c 4
 408.504882812 712.23046875 408.229492188 709.221679688 408.229492188 707.352539062 c 4
 408.229492188 701.087890625 411.086914062 691.790039062 414.604492188 686.599609375 c 4
 417.8203125 681.65625 425.034179688 676.321289062 430.7109375 674.69140625 c 4
 432.137695312 674.345703125 434.489257812 674.065429688 435.956054688 674.065429688 c 4
 440.244140625 674.065429688 446.448242188 676.22265625 449.806640625 678.881835938 c 4
 458.633789062 685.04296875 462.336914062 692.52734375 460.915039062 701.333984375 c 4
 459.358398438 707.45703125 455.081054688 716.576171875 451.368164062 721.690429688 c 5
 479.598632812 741.380859375 l 5
 487.916015625 728.5078125 492.743164062 716.791015625 494.080078125 706.2265625 c 4
 496.646484375 686.112304688 488.033203125 669.17578125 468.235351562 655.4140625 c 4
 452.596679688 644.48828125 437.127929688 640.127929688 421.831054688 642.330078125 c 4
 406.532226562 644.53125 393.885742188 652.736328125 383.891601562 666.943359375 c 4
 378.000976562 675.11328125 373.219726562 689.909179688 373.219726562 699.97265625 c 4
 373.219726562 700.771484375 373.25390625 702.0625 373.294921875 702.859375 c 4
 374.2265625 712.43359375 377.947265625 727.4296875 381.600585938 736.33203125 c 6
 387.45703125 752.686523438 l 6
 391.127929688 762.912109375 393.493164062 770.12109375 394.553710938 774.3125 c 4
 395.243164062 777 395.80078125 781.43359375 395.80078125 784.209960938 c 4
 395.80078125 784.984375 395.756835938 786.2421875 395.702148438 787.015625 c 6
 331.215820312 741.984375 l 5
 313.236328125 767.548828125 l 5
485.930664062 193.857421875 m 5
 792.87890625 193.857421875 l 5
 887.66015625 485.134765625 l 5
 639.404296875 665.1640625 l 5
 391.1484375 485.1328125 l 5
 485.930664062 193.857421875 l 5
724.1953125 447.055664062 m 6
 720.520507812 451.250976562 713.004882812 454.65625 707.420898438 454.65625 c 4
 707.043945312 454.65625 706.430664062 454.637695312 706.053710938 454.614257812 c 4
 695.2734375 454.614257812 687.942382812 450.6015625 684.059570312 442.576171875 c 4
 681.861328125 436.873046875 680.077148438 427.286132812 680.077148438 421.17578125 c 4
 680.077148438 420.947265625 680.080078125 420.577148438 680.083007812 420.348632812 c 6
 645.770507812 420.348632812 l 5
 646.342773438 435.653320312 649.124023438 448.017578125 654.108398438 457.439453125 c 4
 663.57421875 475.392578125 680.379882812 484.37109375 704.526367188 484.37109375 c 4
 723.622070312 484.37109375 738.802734375 479.077148438 750.0703125 468.4921875 c 4
 761.337890625 457.907226562 766.88671875 444.029296875 766.717773438 426.858398438 c 4
 766.721679688 426.665039062 766.72265625 426.353515625 766.72265625 426.161132812 c 4
 766.72265625 415.4296875 761.358398438 399.849609375 754.749023438 391.384765625 c 4
 748.565429688 384.005859375 737.015625 373.720703125 728.967773438 368.427734375 c 6
 714.7734375 358.388671875 l 6
 705.883789062 352.0390625 699.805664062 347.487304688 696.538085938 344.734375 c 4
 693.813476562 342.396484375 690.10546875 338 688.264648438 334.919921875 c 6
 766.971679688 334.919921875 l 5
 766.971679688 303.80078125 l 5
 643.637695312 303.80078125 l 5
 643.790039062 314.060546875 647.526367188 329.89453125 651.978515625 339.14453125 c 4
 657.029296875 351.12890625 668.963867188 363.83203125 687.784179688 377.255859375 c 4
 697.102539062 383.493164062 711.36328125 394.71875 719.61328125 402.310546875 c 4
 725.586914062 408.1796875 730.549804688 419.732421875 730.690429688 428.095703125 c 4
 730.696289062 428.330078125 730.702148438 428.712890625 730.702148438 428.947265625 c 4
 730.702148438 434.595703125 727.787109375 442.720703125 724.1953125 447.084960938 c 6
 724.1953125 447.055664062 l 6
511.711914062 451.8828125 m 5
 518.223632812 452.0078125 528.717773438 453.00390625 535.13671875 454.10546875 c 4
 540.76171875 455.229492188 548.547851562 459.49609375 552.515625 463.631835938 c 4
 555.293945312 466.728515625 558.403320312 472.505859375 559.454101562 476.52734375 c 4
 560.081054688 478.470703125 560.694335938 481.69921875 560.821289062 483.736328125 c 6
 590.422851562 483.736328125 l 5
 590.422851562 303.861328125 l 5
 554.106445312 303.861328125 l 5
 554.106445312 427.842773438 l 5
 511.713867188 427.842773438 l 5
 511.713867188 451.913085938 l 5
 511.711914062 451.8828125 l 5
480.266601562 143.044921875 m 5
 334.973632812 -56.8037109375 l 5
 639.404296875 -155.25 l 5
 943.838867188 -56.8037109375 l 5
 798.544921875 143.044921875 l 5
 480.266601562 143.044921875 l 5
686.512695312 -80.1123046875 m 5
 676.4765625 -92.94140625 660.890625 -99.345703125 639.756835938 -99.3251953125 c 4
 617.05078125 -99.3251953125 600.309570312 -89.8505859375 589.530273438 -70.90234375 c 4
 581.150390625 -56.0830078125 576.959960938 -37.0283203125 576.959960938 -13.73828125 c 4
 576.94921875 -12.8515625 576.938476562 -11.408203125 576.938476562 -10.5205078125 c 4
 576.938476562 -2.1328125 577.733398438 11.4345703125 578.709960938 19.763671875 c 4
 579.943359375 30.943359375 585.346679688 48.015625 590.774414062 57.873046875 c 4
 594.943359375 65.009765625 603.99609375 74.3994140625 610.983398438 78.83203125 c 4
 618.19921875 83.2265625 630.915039062 86.7919921875 639.369140625 86.7919921875 c 4
 639.782226562 86.7919921875 640.456054688 86.783203125 640.870117188 86.771484375 c 4
 657.610351562 86.771484375 670.95703125 82.537109375 680.907226562 74.06640625 c 4
 689.537109375 66.591796875 697.053710938 51.2841796875 697.682617188 39.8984375 c 5
 662.54296875 39.8984375 l 6
 662.389648438 42.794921875 660.891601562 47.064453125 659.202148438 49.42578125 c 4
 656.006835938 54.1083984375 648.803710938 57.91015625 643.125 57.91015625 c 4
 642.791992188 57.91015625 642.251953125 57.8935546875 641.918945312 57.873046875 c 4
 630.3984375 57.873046875 622.198242188 51.42578125 617.317382812 38.533203125 c 4
 614.635742188 30.0390625 612.182617188 15.92578125 611.842773438 7.0283203125 c 5
 615.28125 11.21484375 622.125 16.322265625 627.122070312 18.4306640625 c 4
 632.383789062 20.40625 641.217773438 22.009765625 646.83984375 22.009765625 c 4
 659.606445312 22.009765625 677.305664062 14.71484375 686.349609375 5.7265625 c 4
 694.840820312 -3.486328125 701.733398438 -21.1201171875 701.733398438 -33.63671875 c 4
 701.733398438 -34.24609375 701.715820312 -35.2353515625 701.692382812 -35.84375 c 4
 701.6953125 -36.0791015625 701.696289062 -36.4599609375 701.696289062 -36.6943359375 c 4
 701.696289062 -50.10546875 694.951171875 -69.5419921875 686.637695312 -80.080078125 c 5
 686.512695312 -80.1123046875 l 5
657.8671875 -14.564453125 m 5
 663.000976562 -20.1533203125 665.567382812 -28.19921875 665.567382812 -38.701171875 c 4
 665.588867188 -39.1611328125 665.606445312 -39.90625 665.606445312 -40.3671875 c 4
 665.606445312 -46.859375 662.551757812 -56.4287109375 658.788085938 -61.7255859375 c 4
 655.130859375 -66.625 647.194335938 -70.6025390625 641.071289062 -70.6025390625 c 4
 640.831054688 -70.6025390625 640.442382812 -70.595703125 640.202148438 -70.5859375 c 4
 640.057617188 -70.58984375 639.823242188 -70.5908203125 639.678710938 -70.5908203125 c 4
 633.125976562 -70.5908203125 624.448242188 -66.4775390625 620.309570312 -61.408203125 c 4
 616.069335938 -56.087890625 612.627929688 -46.2509765625 612.627929688 -39.453125 c 4
 612.627929688 -38.982421875 612.647460938 -38.2177734375 612.670898438 -37.748046875 c 4
 612.670898438 -25.763671875 616.149414062 -17.0830078125 623.109375 -11.70703125 c 4
 626.913085938 -8.6923828125 633.944335938 -6.24609375 638.803710938 -6.24609375 c 4
 638.864257812 -6.24609375 638.961914062 -6.248046875 639.0234375 -6.248046875 c 4
 639.180664062 -6.2431640625 639.434570312 -6.240234375 639.592773438 -6.240234375 c 4
 645.721679688 -6.240234375 653.993164062 -9.955078125 658.055664062 -14.533203125 c 6
 657.8671875 -14.564453125 l 5
975.889648438 284.236328125 m 5
 1050.30371094 262.005859375 l 5
 1037.57128906 218.9765625 l 5
 975.889648438 284.236328125 l 5
937.693359375 474.78125 m 5
 839.442382812 173.088867188 l 5
 984.866210938 -26.6337890625 l 5
 1173 231.741210938 l 5
 1173 550.96484375 l 5
 937.693359375 474.78125 l 5
1114.05371094 243.20703125 m 5
 1076.87988281 254.291015625 l 5
 1056.4453125 186.07421875 l 5
 1026.78222656 194.903320312 l 5
 940.845703125 289.509765625 l 5
 952.243164062 327.618164062 l 5
 1060.16894531 295.4453125 l 5
 1065.99511719 314.9453125 l 5
 1092.56933594 307.037109375 l 5
 1086.74511719 287.541015625 l 5
 1123.921875 276.45703125 l 5
 1114.05371094 243.20703125 l 5
340.637695312 474.78125 m 5
 105.333984375 550.99609375 l 5
 105.333984375 231.583984375 l 5
 293.467773438 -26.7919921875 l 5
 438.889648438 172.9296875 l 5
 340.637695312 474.78125 l 5
149.483398438 319.96484375 m 5
 268.073242188 357.249023438 l 5
 255.340820312 397.579101562 l 5
 278.352539062 404.8203125 l 5
 280.430664062 398.66015625 284.538085938 388.971679688 287.520507812 383.194335938 c 4
 290.260742188 378.1875 296.633789062 372.055664062 301.747070312 369.505859375 c 4
 305.1328125 367.9765625 310.897460938 366.734375 314.61328125 366.734375 c 4
 315.041015625 366.734375 315.737304688 366.751953125 316.163085938 366.7734375 c 4
 316.215820312 366.771484375 316.301757812 366.771484375 316.354492188 366.771484375 c 4
 318.342773438 366.771484375 321.522460938 367.157226562 323.454101562 367.630859375 c 6
 332.333007812 339.46484375 l 5
 160.463867188 285.474609375 l 5
 149.483398438 319.96484375 l 5
198.782226562 163.908203125 m 5
 187.864257812 198.4609375 l 5
 306.456054688 235.744140625 l 5
 293.724609375 276.076171875 l 5
 316.737304688 283.315429688 l 5
 318.817382812 277.15625 322.922851562 267.46875 325.903320312 261.689453125 c 4
 328.641601562 256.681640625 335.015625 250.549804688 340.130859375 248.000976562 c 4
 343.508789062 246.471679688 349.262695312 245.23046875 352.973632812 245.23046875 c 4
 353.408203125 245.23046875 354.114257812 245.248046875 354.549804688 245.270507812 c 4
 354.603515625 245.270507812 354.692382812 245.270507812 354.749023438 245.270507812 c 4
 356.733398438 245.270507812 359.907226562 245.654296875 361.834960938 246.12890625 c 6
 370.717773438 217.959960938 l 5
 198.782226562 163.908203125 l 5
EndSplineSet
LCarets2: 2 0 0
Ligature2: "'liga' Standard Ligatures in Latin lookup 0-1" d one two
EndChar

StartChar: d10
Encoding: 90 -1 80
Width: 1286
VWidth: 1037
Flags: HW
LayerCount: 2
Fore
SplineSet
925.72265625 409.237304688 m 5
 658.861328125 285.154296875 l 5
 659.37890625 -159.807617188 l 5
 1172.0703125 372.590820312 l 5
 960.986328125 425.51171875 l 5
 925.72265625 409.237304688 l 5
894.818359375 145.663085938 m 5
 880.388671875 109.997070312 l 5
 762.453125 131.725585938 l 5
 774.603515625 162.862304688 l 5
 784.125976562 169.90234375 798.8125 182.249023438 807.384765625 190.421875 c 4
 819.326171875 201.350585938 837.334960938 220.392578125 847.580078125 232.92578125 c 4
 856.798828125 244.407226562 870.501953125 263.928710938 878.168945312 276.499023438 c 4
 885.6015625 287.971679688 895.9453125 307.504882812 901.25390625 320.102539062 c 5
 935.388671875 314.01171875 l 5
 920.232421875 277.884765625 895.67578125 241.94921875 861.720703125 206.205078125 c 4
 840.211914062 184.140625 823.513671875 169.067382812 811.625 160.985351562 c 5
 894.818359375 145.663085938 l 5
309.697265625 426.001953125 m 5
 104.154296875 373.194335938 l 5
 612.689453125 -160.38671875 l 5
 612.689453125 285.157226562 l 5
 345.912109375 409.237304688 l 5
 309.697265625 426.001953125 l 5
356.15625 302.612304688 m 6
 359.591796875 303.2421875 365.215820312 303.751953125 368.708007812 303.751953125 c 4
 383.353515625 303.751953125 404.116210938 295.84765625 415.052734375 286.108398438 c 4
 424.21484375 277.908203125 436.418945312 262.484375 442.29296875 251.681640625 c 5
 410.552734375 245.189453125 l 6
 407.744140625 250.711914062 401.88671875 258.727539062 397.478515625 263.081054688 c 4
 389.091796875 270.96875 379.982421875 274.084960938 370.15234375 272.4296875 c 6
 368.970703125 272.19921875 l 6
 363.663085938 271.3671875 358.052734375 266.532226562 356.4453125 261.40625 c 4
 354.369140625 255.63671875 355.8671875 247.9296875 360.803710938 238.668945312 c 4
 367.40234375 226.375 376.146484375 219.07421875 387.033203125 216.765625 c 4
 389.513671875 216.37109375 393.564453125 216.051757812 396.076171875 216.051757812 c 4
 399.349609375 216.051757812 404.60546875 216.592773438 407.810546875 217.2578125 c 6
 412.33984375 218.092773438 l 5
 426.392578125 191.833984375 l 5
 416.04296875 189.525390625 409.384765625 186.87109375 406.421875 183.869140625 c 4
 401.23046875 178.791015625 401.576171875 170.758789062 407.462890625 159.775390625 c 4
 410.306640625 154.16796875 416.924804688 146.889648438 422.23828125 143.52734375 c 4
 425.69921875 141.282226562 431.857421875 139.458007812 435.984375 139.458007812 c 4
 437.14453125 139.458007812 439.013671875 139.61328125 440.157226562 139.805664062 c 6
 441.166015625 140.0078125 l 6
 448.861328125 141.56640625 452.970703125 145.4140625 453.490234375 151.548828125 c 4
 454.125 157.786132812 451.900390625 165.487304688 446.822265625 174.634765625 c 5
 476.861328125 180.810546875 l 5
 480.528320312 173.62890625 484.98828125 161.424804688 486.818359375 153.5703125 c 4
 487.201171875 151.33203125 487.512695312 147.671875 487.512695312 145.399414062 c 4
 487.512695312 141.274414062 486.50390625 134.735351562 485.259765625 130.803710938 c 4
 483.69140625 126.387695312 479.38671875 120.504882812 475.65234375 117.674804688 c 4
 470.766601562 114.2890625 462.041015625 110.772460938 456.173828125 109.82421875 c 6
 453.287109375 109.305664062 l 6
 450.162109375 108.772460938 445.052734375 108.340820312 441.8828125 108.340820312 c 4
 432.8125 108.340820312 418.905273438 111.708007812 410.837890625 115.856445312 c 4
 398.30078125 122.209960938 382.943359375 137.529296875 376.55859375 150.05078125 c 4
 370.69140625 161.034179688 368.584960938 170.893554688 370.23828125 179.62890625 c 4
 370.767578125 183.532226562 373.506835938 188.911132812 376.35546875 191.631835938 c 6
 376.184570312 191.631835938 l 6
 373.201171875 191.130859375 367.506835938 193.150390625 359.1015625 197.69140625 c 4
 347.672851562 204.153320312 333.6328125 218.930664062 327.762695312 230.673828125 c 4
 319.278320312 246.467773438 316.623046875 261.34765625 319.798828125 275.315429688 c 4
 322.97265625 289.28125 334.033203125 298.178710938 352.982421875 302.005859375 c 6
 356.15625 302.612304688 l 6
80.609375 415.006835938 m 5
 344.55859375 697.223632812 l 6
 345.03515625 697.272460938 345.809570312 697.311523438 346.2890625 697.311523438 c 4
 346.767578125 697.311523438 347.543945312 697.272460938 348.01953125 697.223632812 c 6
 348.393554688 697.223632812 l 6
 353.473632812 696.666015625 355.771484375 693.666015625 355.290039062 688.22265625 c 4
 354.341796875 682.287109375 350.760742188 673.481445312 347.297851562 668.568359375 c 4
 342.064453125 660.40234375 331.489257812 649.090820312 323.693359375 643.3203125 c 4
 317.365234375 638.568359375 305.197265625 630.874023438 287.189453125 620.236328125 c 4
 266.491210938 608.095703125 250.677734375 596.149414062 239.75390625 584.397460938 c 4
 231.068359375 575.470703125 218.552734375 559.723632812 211.817382812 549.248046875 c 5
 291.6640625 540.129882812 l 5
 311.517578125 571.583007812 l 5
 260.642578125 577.352539062 l 6
 263.611328125 580.185546875 268.783203125 584.350585938 272.185546875 586.647460938 c 4
 276.033203125 589.243164062 282.862304688 593.388671875 292.673828125 599.08203125 c 6
 308.255859375 608.174804688 l 6
 317.391601562 613.323242188 331.418945312 622.864257812 339.564453125 629.46875 c 4
 349.458984375 637.805664062 363.05859375 653.473632812 369.919921875 664.443359375 c 4
 380.983398438 681.98828125 386.236328125 696.51171875 385.676757812 708.015625 c 4
 385.21484375 717.596679688 380.568359375 723.625976562 371.884765625 726.224609375 c 5
 565.509765625 932.86328125 l 5
 317.77734375 497.133789062 l 5
 303.926757812 472.723632812 l 5
 80.609375 415.006835938 l 5
971.690429688 589.6484375 m 5
 965.515625 598.477539062 962.4765625 605.36328125 962.572265625 610.30859375 c 4
 962.572265625 615.2421875 965.458984375 618.071289062 971.228515625 618.67578125 c 6
 972.61328125 618.67578125 l 6
 977.72265625 618.655273438 985.234375 616.213867188 989.379882812 613.223632812 c 4
 995.661132812 608.837890625 1004.18066406 600.0859375 1008.39453125 593.688476562 c 4
 1014.359375 585.147460938 1017.359375 578.356445312 1017.3984375 573.3125 c 4
 1017.3984375 568.235351562 1014.515625 565.408203125 1008.91503906 564.658203125 c 6
 1007.47363281 564.658203125 l 6
 1002.2890625 564.715820312 994.7265625 567.30078125 990.592773438 570.428710938 c 4
 984.375976562 574.720703125 975.908203125 583.29296875 971.690429688 589.560546875 c 6
 971.690429688 589.6484375 l 5
706.213867188 933.037109375 m 5
 909.909179688 715.545898438 l 5
 907.0234375 715.545898438 l 6
 906.1015625 715.545898438 904.658203125 715.545898438 903.474609375 715.287109375 c 4
 890.81640625 713.84375 884.08203125 708.293945312 883.275390625 698.635742188 c 4
 882.466796875 688.979492188 886.536132812 677.860351562 895.48046875 665.280273438 c 4
 899.30078125 659.954101562 906.23046875 651.938476562 910.94921875 647.388671875 c 4
 916.986328125 641.655273438 928.013671875 634.158203125 935.5625 630.65234375 c 5
 932.138671875 625.978515625 931.571289062 619.522460938 933.859375 611.290039062 c 4
 936.36328125 603.223632812 942.463867188 591.16015625 947.479492188 584.366210938 c 4
 955.728515625 572.448242188 972.276367188 556.354492188 984.416992188 548.439453125 c 4
 997.517578125 539.918945312 1010.51171875 535.926757812 1023.40039062 536.465820312 c 4
 1024.7109375 536.465820312 1026.01953125 536.5703125 1027.32617188 536.78125 c 4
 1041.52246094 538.37890625 1048.98632812 544.747070312 1049.71875 555.883789062 c 4
 1049.75195312 556.49609375 1049.77929688 557.489257812 1049.77929688 558.1015625 c 4
 1049.77929688 560.779296875 1049.25 565.0625 1048.59472656 567.66015625 c 6
 1191 415.556640625 l 5
 968.806640625 471.220703125 l 5
 954.00390625 497.190429688 l 5
 706.213867188 933.037109375 l 5
944.538085938 678.438476562 m 5
 950.484375 672.088867188 l 6
 951.578125 670.706054688 952.67578125 669.204101562 953.771484375 667.759765625 c 4
 958.158203125 661.471679688 960.37890625 656.216796875 960.37890625 651.91796875 c 4
 960.37890625 647.62109375 957.869140625 645.16796875 952.791015625 644.590820312 c 6
 951.548828125 644.590820312 l 6
 951.52734375 644.590820312 951.493164062 644.590820312 951.47265625 644.590820312 c 4
 947.001953125 644.590820312 940.430664062 646.709960938 936.803710938 649.322265625 c 4
 931.853515625 652.618164062 925.131835938 659.2890625 921.797851562 664.211914062 c 4
 917.0078125 671.079101562 914.671875 676.592773438 914.814453125 680.74609375 c 4
 914.959960938 684.903320312 917.52734375 687.297851562 922.547851562 687.872070312 c 6
 923.819335938 687.872070312 l 6
 923.876953125 687.874023438 923.96875 687.874023438 924.025390625 687.874023438 c 4
 928.389648438 687.874023438 934.82421875 685.830078125 938.390625 683.313476562 c 4
 940.201171875 682.111328125 942.955078125 679.926757812 944.537109375 678.435546875 c 6
 944.538085938 678.438476562 l 5
635.772460938 955.776367188 m 5
 348.1640625 458.29296875 l 5
 635.7734375 324.716796875 l 5
 923.560546875 458.29296875 l 5
 635.772460938 955.776367188 l 5
632.883789062 449.954101562 m 6
 604.529296875 449.954101562 584.6484375 459.879882812 573.2421875 479.732421875 c 4
 561.833007812 499.5859375 556.12890625 527.884765625 556.12890625 564.62890625 c 4
 556.12890625 601.372070312 561.833007812 629.717773438 573.240234375 649.668945312 c 4
 584.6484375 669.6171875 604.530273438 679.6015625 632.88671875 679.62109375 c 4
 661.243164062 679.62109375 681.125 669.646484375 692.533203125 649.697265625 c 4
 703.940429688 629.747070312 709.64453125 601.401367188 709.64453125 564.658203125 c 4
 709.64453125 527.9140625 703.940429688 499.615234375 692.533203125 479.76171875 c 4
 681.124023438 459.909179688 661.2421875 449.97265625 632.88671875 449.954101562 c 6
 632.883789062 449.954101562 l 6
658.454101562 624.188476562 m 5
 662.494140625 611.298828125 664.512695312 591.446289062 664.512695312 564.62890625 c 4
 664.512695312 539.04296875 662.494140625 519.469726562 658.454101562 505.90625 c 4
 654.4140625 492.344726562 645.891601562 485.611328125 632.88671875 485.706054688 c 4
 619.881835938 485.706054688 611.28125 492.440429688 607.08984375 505.90625 c 4
 602.89453125 519.37109375 600.797851562 538.946289062 600.797851562 564.625976562 c 4
 600.797851562 591.446289062 602.89453125 611.298828125 607.08984375 624.188476562 c 4
 611.283203125 637.077148438 619.8828125 643.522460938 632.88671875 643.522460938 c 4
 645.8515625 643.541992188 654.35546875 637.106445312 658.395507812 624.217773438 c 5
 658.454101562 624.188476562 l 5
EndSplineSet
LCarets2: 2 0 0
Ligature2: "'liga' Standard Ligatures in Latin lookup 0-1" d one zero
EndChar

StartChar: d8
Encoding: 91 -1 81
Width: 1286
VWidth: 1036
Flags: HW
LayerCount: 2
Fore
SplineSet
660.40625 954.142578125 m 5
 214.572265625 186.377929688 l 5
 1106.24023438 186.377929688 l 5
 660.40625 954.142578125 l 5
595.708984375 922.484375 m 5
 199.8125 636.0078125 l 5
 199.8125 240.72265625 l 5
 595.708984375 922.484375 l 5
725.099609375 922.484375 m 5
 1121 240.720703125 l 5
 1121 636.010742188 l 5
 725.099609375 922.484375 l 5
393.3828125 697.14453125 m 5
 393.3828125 642.608398438 l 5
 372.139648438 618.376953125 l 5
 372.139648438 660.787109375 l 5
 365.201171875 652.67578125 357.890625 644.849609375 351.150390625 636.594726562 c 5
 360.001953125 635.862304688 357.368164062 623.002929688 356.67578125 617.190429688 c 4
 352.3046875 593.3203125 336.263671875 573.196289062 323.12109375 555.134765625 c 4
 318.2578125 548.767578125 313.251953125 542.431640625 308.08203125 536.34375 c 4
 296.442382812 527.833007812 286.830078125 525.354492188 281.109375 540.005859375 c 5
 281.846679688 559.546875 290.72265625 578.10546875 301.251953125 592.491210938 c 6
 314.48828125 612.3125 l 6
 314.3671875 606.149414062 314.73828125 599.87109375 314.307617188 593.776367188 c 4
 308.44921875 582.893554688 297.37109375 570.095703125 299.893554688 557.208007812 c 5
 319.318359375 555.020507812 330.484375 584.401367188 336.24609375 598.7109375 c 4
 338.328125 605.62109375 341.5234375 612.374023438 332.6953125 612.313476562 c 5
 332.6953125 630.498046875 l 5
 393.3828125 697.14453125 l 5
924.391601562 694.115234375 m 5
 1036.66894531 557.779296875 l 5
 1036.66894531 539.600585938 l 5
 960.810546875 630.4921875 l 5
 960.810546875 609.286132812 l 5
 945.640625 627.46484375 l 5
 945.25390625 637.8515625 942.076171875 648.43359375 939.5703125 657.760742188 c 4
 934.915039062 665.109375 929.658203125 672.038085938 924.40234375 678.962890625 c 6
 924.391601562 694.115234375 l 5
660.58203125 536.8125 m 5
 681.533203125 536.8125 697.4609375 532.982421875 708.362304688 525.330078125 c 4
 719.265625 517.751953125 724.716796875 506.618164062 724.716796875 491.926757812 c 4
 724.716796875 482.103515625 722.013671875 473.908203125 716.599609375 467.337890625 c 4
 711.267578125 460.763671875 703.33984375 455.893554688 692.823242188 452.723632812 c 5
 704.572265625 449.474609375 713.424804688 444.174804688 719.3828125 436.828125 c 4
 725.41015625 429.564453125 728.4296875 420.366210938 728.4296875 409.232421875 c 4
 728.4296875 392.068359375 722.706054688 379.077148438 711.26171875 370.256835938 c 4
 699.896484375 361.520507812 683.005859375 357.158203125 660.58203125 357.158203125 c 4
 638.08203125 357.158203125 621.0703125 361.5234375 609.55078125 370.259765625 c 4
 598.106445312 379.077148438 592.3828125 392.068359375 592.3828125 409.235351562 c 4
 592.3828125 420.366210938 595.36328125 429.561523438 601.3203125 436.831054688 c 4
 607.34765625 444.177734375 616.240234375 449.477539062 627.9921875 452.7265625 c 5
 617.478515625 455.893554688 609.552734375 460.760742188 604.21875 467.337890625 c 4
 598.88671875 473.908203125 596.213867188 482.106445312 596.213867188 491.923828125 c 4
 596.213867188 506.536132812 601.669921875 517.669921875 612.5703125 525.325195312 c 4
 623.46875 532.979492188 639.473632812 536.803710938 660.58203125 536.803710938 c 5
 660.58203125 536.8125 l 5
660.58203125 508.74609375 m 4
 653.471679688 508.74609375 647.9765625 506.888671875 644.109375 503.17578125 c 4
 640.323242188 499.466796875 638.427734375 494.208007812 638.427734375 487.40625 c 4
 638.427734375 480.521484375 640.323242188 475.224609375 644.109375 471.515625 c 4
 647.9765625 467.802734375 653.471679688 465.9453125 660.58203125 465.9453125 c 4
 667.540039062 465.9453125 672.912109375 467.802734375 676.703125 471.515625 c 4
 680.489257812 475.224609375 682.384765625 480.521484375 682.384765625 487.403320312 c 4
 682.384765625 494.287109375 680.489257812 499.543945312 676.703125 503.173828125 c 4
 672.912109375 506.888671875 667.540039062 508.74609375 660.58203125 508.74609375 c 4
660.58203125 438 m 5
 652.23046875 438 645.8125 435.716796875 641.331054688 431.15625 c 4
 636.842773438 426.591796875 634.598632812 420.05859375 634.598632812 411.555664062 c 4
 634.598632812 403.048828125 636.842773438 396.515625 641.331054688 391.956054688 c 4
 645.8125 387.46875 652.23046875 385.2265625 660.58203125 385.2265625 c 4
 668.853515625 385.2265625 675.192382812 387.46875 679.6015625 391.953125 c 4
 684.005859375 396.518554688 686.208984375 403.051757812 686.208984375 411.55859375 c 4
 686.208984375 420.139648438 684.005859375 426.672851562 679.6015625 431.158203125 c 4
 675.1953125 435.719726562 668.853515625 438.001953125 660.58203125 438.001953125 c 5
 660.58203125 438 l 5
241.616210938 146.329101562 m 5
 660.40625 -156.711914062 l 5
 1079.19628906 146.329101562 l 5
 241.616210938 146.329101562 l 5
590.6171875 88.1796875 m 5
 727.162109375 88.1796875 l 5
 727.162109375 76.0576171875 l 5
 691.100585938 61.18359375 673.13671875 43.7744140625 657.373046875 12.4365234375 c 5
 617.921875 12.4365234375 l 5
 635.705078125 46.98828125 654.333007812 56.779296875 684.68359375 76.0576171875 c 5
 590.611328125 76.0576171875 l 5
 590.6171875 88.1796875 l 5
EndSplineSet
LCarets2: 1 0
Ligature2: "'liga' Standard Ligatures in Latin lookup 0-1" d eight
EndChar

StartChar: d6
Encoding: 92 -1 82
Width: 1286
VWidth: 1037
Flags: HW
LayerCount: 2
Fore
SplineSet
652.748046875 954.84765625 m 4
 636.193359375 954.84765625 619.634765625 951.137695312 606.810546875 943.717773438 c 6
 197.33984375 706.858398438 l 6
 171.6875 692.021484375 171.6875 668.551757812 197.33984375 653.712890625 c 6
 606.810546875 416.854492188 l 6
 632.46484375 402.014648438 673.030273438 402.014648438 698.681640625 416.854492188 c 6
 1108.15820312 653.713867188 l 6
 1133.81054688 668.548828125 1133.81054688 692.018554688 1108.15820312 706.85546875 c 6
 698.681640625 943.717773438 l 6
 685.85546875 951.143554688 669.302734375 954.84765625 652.748046875 954.84765625 c 4
607.15625 840.905273438 m 5
 668.376953125 802.64453125 l 5
 650.290039062 799.9453125 634.638671875 796.533203125 621.42578125 792.41015625 c 4
 608.0625 788.37890625 596.571289062 783.47265625 586.943359375 777.6953125 c 4
 566.244140625 765.276367188 557.213867188 751.166015625 559.85546875 735.361328125 c 4
 562.346679688 719.65234375 576.537109375 702.53125 602.408203125 684 c 5
 603.10546875 693.293945312 606.315429688 701.831054688 612.033203125 709.608398438 c 4
 617.600585938 717.478515625 625.862304688 724.697265625 636.8125 731.267578125 c 4
 664.369140625 747.802734375 696.48046875 754.9375 733.140625 752.66015625 c 4
 769.923828125 750.458007812 804.359375 739.328125 836.443359375 719.271484375 c 4
 871.932617188 697.092773438 890.952148438 673.637695312 893.498046875 648.903320312 c 4
 895.89453125 624.2578125 881.2109375 602.405273438 849.439453125 583.33984375 c 4
 814.419921875 562.330078125 772.791992188 555.10546875 724.5546875 561.66796875 c 4
 676.29296875 568.389648438 625.46875 588.436523438 572.08984375 621.796875 c 4
 517.376953125 655.990234375 485.6171875 689.551757812 476.80078125 722.481445312 c 4
 467.958007812 755.578125 483.09375 783.853515625 522.205078125 807.322265625 c 4
 534.599609375 814.758789062 547.815429688 821.241210938 561.8515625 826.764648438 c 4
 575.892578125 832.290039062 590.993164062 837.005859375 607.15625 840.905273438 c 5
710.837890625 698.215820312 m 4
 699.662109375 698.235351562 689.466796875 695.481445312 680.26171875 689.958984375 c 4
 668.108398438 682.66796875 663.84375 674.127929688 667.46484375 664.345703125 c 4
 671.060546875 654.73046875 682.541015625 643.866210938 701.911132812 631.760742188 c 4
 721.282226562 619.655273438 738.849609375 612.360351562 754.627929688 609.870117188 c 4
 770.376953125 607.546875 784.33203125 610.028320312 796.486328125 617.323242188 c 4
 808.763671875 624.686523438 813.1015625 633.178710938 809.5078125 642.796875 c 4
 805.88671875 652.580078125 794.389648438 663.522460938 775.01953125 675.627929688 c 4
 755.650390625 687.735351562 738.087890625 694.948242188 722.33984375 697.272460938 c 4
 719.185546875 697.779296875 714.033203125 698.201171875 710.837890625 698.215820312 c 4
1135.70117188 608.913085938 m 4
 1130.50585938 608.715820312 1124.39453125 606.61328125 1117.05664062 602.444335938 c 6
 723.1796875 375.002929688 l 6
 697.525390625 360.185546875 677.232421875 325.041015625 677.232421875 295.415039062 c 6
 677.232421875 -127.317382812 l 6
 677.232421875 -156.9375 697.525390625 -168.649414062 723.1796875 -153.828125 c 6
 1117.0625 73.603515625 l 6
 1142.71679688 88.4189453125 1163 123.559570312 1163 153.185546875 c 6
 1163 575.920898438 l 5
 1156.30664062 597.493164062 1148.98046875 609.4140625 1135.70117188 608.913085938 c 4
171.310546875 607.626953125 m 5
 154.619140625 607.626953125 144.416015625 593.352539062 144.08984375 575.927734375 c 6
 144.08984375 153.202148438 l 6
 144.08984375 123.575195312 164.3828125 88.4306640625 190.036132812 73.6142578125 c 6
 583.8984375 -153.831054688 l 6
 609.552734375 -168.64453125 629.84765625 -156.930664062 629.84765625 -127.306640625 c 6
 629.84765625 295.427734375 l 6
 629.84765625 325.051757812 609.555664062 360.188476562 583.90234375 375.006835938 c 6
 190.0390625 602.450195312 l 6
 183.157226562 606.038085938 176.875 607.624023438 171.310546875 607.624023438 c 6
 171.310546875 607.626953125 l 5
278.791015625 467.62890625 m 5
 461.37890625 358.073242188 l 5
 461.37890625 290.2890625 l 5
 337.369140625 364.697265625 l 5
 337.369140625 309.370117188 l 6
 342.123046875 308.133789062 349.642578125 305.549804688 354.154296875 303.603515625 c 4
 359.876953125 301.287109375 365.791015625 298.295898438 371.896484375 294.633789062 c 4
 406.619140625 273.80078125 433.651367188 246.645507812 452.986328125 213.169921875 c 4
 472.318359375 179.850585938 481.985351562 143.709960938 481.985351562 104.745117188 c 4
 481.985351562 66.1005859375 471.427734375 42.173828125 450.315429688 32.9658203125 c 4
 429.327148438 23.6806640625 400.134765625 30.2578125 362.740234375 52.6943359375 c 4
 346.586914062 62.3857421875 330.55859375 74.0009765625 314.66015625 87.533203125 c 4
 298.88671875 100.828125 283.1796875 116.162109375 267.53515625 133.532226562 c 5
 267.53515625 206.112304688 l 5
 283.053710938 185.625 297.74609375 168.422851562 311.607421875 154.515625 c 4
 325.599609375 140.53125 338.76171875 129.840820312 351.1015625 122.4375 c 4
 368.908203125 111.750976562 382.8984375 108.786132812 393.07421875 113.54296875 c 4
 403.375976562 118.377929688 408.53125 130.134765625 408.53125 148.819335938 c 4
 408.53125 167.6640625 403.375976562 185.60546875 393.07421875 202.646484375 c 4
 382.8984375 219.609375 368.908203125 233.432617188 351.1015625 244.116210938 c 4
 342.287109375 249.3984375 327.158203125 256.116210938 317.331054688 259.111328125 c 4
 305.375 262.93359375 292.529296875 265.37109375 278.791015625 266.426757812 c 5
 278.791015625 467.62890625 l 5
1002.68554688 452.262695312 m 5
 1002.68554688 222.241210938 l 5
 1039.5546875 244.362304688 l 5
 1039.5546875 176.236328125 l 5
 1002.68554688 154.116210938 l 5
 1002.68554688 87.6982421875 l 5
 939.685546875 49.896484375 l 5
 939.685546875 116.317382812 l 5
 825.104492188 47.56640625 l 5
 825.104492188 128.145507812 l 5
 928.60546875 407.818359375 l 5
 1002.68554688 452.262695312 l 5
939.685546875 337.055664062 m 5
 866.642578125 140.619140625 l 5
 939.685546875 184.442382812 l 5
 939.685546875 337.055664062 l 5
EndSplineSet
LCarets2: 1 0
Ligature2: "'liga' Standard Ligatures in Latin lookup 0-1" d six
EndChar

StartChar: d4
Encoding: 93 -1 83
Width: 1286
VWidth: 1036
Flags: HW
LayerCount: 2
Fore
SplineSet
578.069335938 553.204101562 m 5
 622.666015625 630.162109375 l 5
 622.666015625 553.204101562 l 5
 578.069335938 553.204101562 l 5
1235.87988281 -125.294921875 m 5
 29.38671875 -125.294921875 l 5
 632.6328125 919.514648438 l 5
 1235.87988281 -125.294921875 l 5
299.126953125 17.9296875 m 5
 406.774414062 77.8583984375 l 5
 389.267578125 109.3984375 l 5
 233.333007812 22.41015625 l 5
 247.588867188 -3.2001953125 l 6
 249.41796875 -2.3291015625 252.513671875 -1.2978515625 254.498046875 -0.8994140625 c 4
 256.596679688 -0.357421875 260.05859375 0.08203125 262.225585938 0.08203125 c 4
 264.12890625 0.08203125 267.180664062 -0.2587890625 269.037109375 -0.677734375 c 4
 274.513671875 -2.134765625 281.932617188 -6.8271484375 285.596679688 -11.1533203125 c 4
 289.653320312 -16.1767578125 295.5859375 -24.78125 298.841796875 -30.3583984375 c 5
 319.723632812 -18.71875 l 5
 299.126953125 17.9296875 l 5
677.231445312 553.204101562 m 5
 657.013671875 553.204101562 l 5
 657.013671875 664.826171875 l 5
 617.588867188 664.826171875 l 5
 551.921875 556.388671875 l 5
 551.921875 525.69921875 l 5
 622.633789062 525.69921875 l 5
 622.633789062 487.250976562 l 5
 657.013671875 487.250976562 l 5
 657.013671875 525.69921875 l 5
 677.231445312 525.69921875 l 5
 677.231445312 553.173828125 l 5
 677.231445312 553.204101562 l 5
1021.0234375 -1.7197265625 m 5
 1032.90234375 19.0537109375 1033.43945312 37.978515625 1022.63183594 55.052734375 c 4
 1016.95410156 63.9892578125 1007.66015625 72.4736328125 994.748046875 80.505859375 c 5
 977.811523438 50.8916015625 l 5
 983.279296875 47.8408203125 990.923828125 41.423828125 994.876953125 36.5703125 c 4
 999.879882812 29.2734375 999.731445312 20.9892578125 994.432617188 11.7158203125 c 4
 991.783203125 6.3359375 984.859375 1.0087890625 978.979492188 -0.173828125 c 4
 977.741210938 -0.3740234375 975.717773438 -0.5361328125 974.462890625 -0.5361328125 c 4
 969.9921875 -0.5361328125 963.283203125 1.376953125 959.486328125 3.736328125 c 4
 952.33203125 7.9736328125 944.801757812 17.935546875 942.674804688 25.9736328125 c 4
 940.178710938 36.779296875 937.493164062 54.5263671875 936.68359375 65.5888671875 c 4
 934.391601562 88.3828125 929.32421875 104.909179688 921.481445312 115.170898438 c 4
 915.696289062 123.560546875 903.883789062 134.58203125 895.11328125 139.771484375 c 5
 834.3046875 33.4482421875 l 5
 861.14453125 18.08984375 l 5
 899.875 85.775390625 l 6
 901.62109375 82.671875 903.5859375 77.3154296875 904.259765625 73.8193359375 c 4
 905.079101562 69.61328125 906.00390625 62.1396484375 907.034179688 51.3955078125 c 6
 908.705078125 34.2353515625 l 6
 909.30859375 24.703125 912.48828125 9.6982421875 915.802734375 0.740234375 c 4
 919.931640625 -9.3173828125 930.995117188 -21.7666015625 940.5 -27.046875 c 4
 955.471679688 -35.603515625 970.275390625 -37.634765625 984.909179688 -33.1328125 c 4
 999.54296875 -28.6328125 1011.5703125 -18.171875 1020.9921875 -1.751953125 c 5
 1021.0234375 -1.7197265625 l 5
EndSplineSet
LCarets2: 1 0
Ligature2: "'liga' Standard Ligatures in Latin lookup 0-1" d four
EndChar

StartChar: d20
Encoding: 94 -1 84
Width: 1286
VWidth: 1036
Flags: HW
LayerCount: 2
Fore
SplineSet
641.147460938 954.25 m 5
 226.94140625 689.4609375 l 5
 641.147460938 698.420898438 l 5
 641.147460938 954.25 l 5
678.874023438 954.25 m 5
 678.874023438 698.420898438 l 5
 1093.15136719 689.4609375 l 5
 678.874023438 954.25 l 5
800.069335938 815.37109375 m 4
 814.450195312 807.119140625 819.403320312 798.39453125 835.671875 805.46875 c 5
 860.901367188 803.58203125 888.252929688 791.79296875 900.749023438 768.44921875 c 4
 911.831054688 757.83984375 904.286132812 738.740234375 888.48828125 738.740234375 c 4
 865.618164062 738.504882812 842.038085938 753.124023438 854.063476562 758.310546875 c 4
 865.145507812 763.026367188 888.723632812 756.188476562 877.642578125 771.279296875 c 4
 869.153320312 781.888671875 851.706054688 789.669921875 839.209960938 785.19140625 c 5
 835.436523438 769.15625 817.044921875 775.758789062 810.915039062 786.841796875 c 4
 805.491210938 800.517578125 789.458007812 806.17578125 775.545898438 805.46875 c 4
 761.1640625 799.102539062 779.319335938 784.71875 788.041992188 782.125 c 4
 806.670898438 776.9375 788.514648438 764.44140625 778.375976562 770.099609375 c 4
 768.471679688 775.758789062 743.006835938 792.736328125 746.544921875 813.25 c 5
 760.220703125 830.673828125 783.798828125 824.142578125 800.069335938 815.37109375 c 4
544.239257812 823.624023438 m 4
 557.208007812 822.4453125 573.241210938 816.55078125 568.290039062 800.28125 c 4
 558.151367188 783.775390625 545.182617188 769.392578125 525.612304688 765.384765625 c 4
 510.286132812 757.3671875 490.479492188 755.009765625 474.681640625 760.905273438 c 4
 465.958007812 766.328125 442.850585938 782.83203125 439.549804688 768.920898438 c 4
 434.59765625 734.025390625 441.200195312 738.033203125 413.377929688 726.951171875 c 5
 413.377929688 784.483398438 l 5
 436.719726562 793.6796875 463.127929688 795.09375 484.821289062 781.41796875 c 4
 503.684570312 771.515625 530.563476562 777.880859375 541.881835938 794.857421875 c 4
 545.182617188 810.18359375 522.782226562 805.705078125 513.114257812 802.875 c 5
 506.749023438 822.208984375 531.743164062 820.55859375 544.239257812 823.624023438 c 4
626.764648438 660.458984375 m 5
 186.998046875 650.791015625 l 5
 354.903320312 195.958984375 l 5
 626.764648438 660.458984375 l 5
693.256835938 660.458984375 m 5
 965.118164062 195.958984375 l 5
 1133 650.791015625 l 5
 693.256835938 660.458984375 l 5
660.010742188 642.775390625 m 5
 383.903320312 170.73046875 l 5
 936.118164062 170.73046875 l 5
 660.010742188 642.775390625 l 5
974.315429688 593.0234375 m 4
 1007.08886719 573.453125 1025.00878906 531.248046875 1026.42382812 491.63671875 c 4
 1023.35839844 459.569335938 1024.77246094 444.950195312 990.583007812 441.176757812 c 4
 956.395507812 437.404296875 934.231445312 486.44921875 920.555664062 518.044921875 c 4
 912.538085938 541.38671875 906.879882812 574.6328125 924.564453125 591.844726562 c 4
 938.946289062 603.1640625 959.931640625 601.512695312 974.315429688 593.0234375 c 4
446.860351562 555.0625 m 4
 451.811523438 545.630859375 445.680664062 528.182617188 435.541015625 526.53125 c 4
 423.987304688 524.8828125 426.58203125 548.4609375 413.377929688 553.8828125 c 4
 397.108398438 559.306640625 381.311523438 540.6796875 378.008789062 526.53125 c 5
 402.530273438 535.963867188 425.874023438 509.791015625 425.874023438 486.44921875 c 4
 424.930664062 458.861328125 407.247070312 427.97265625 379.424804688 420.193359375 c 5
 366.219726562 420.193359375 l 6
 336.276367188 421.841796875 323.071289062 457.447265625 332.73828125 482.912109375 c 4
 343.112304688 520.166015625 358.203125 562.84375 396.872070312 578.640625 c 4
 416.9140625 587.836914062 441.670898438 571.096679688 446.860351562 555.0625 c 4
951.20703125 574.869140625 m 4
 934.466796875 575.104492188 940.833007812 551.291015625 943.426757812 540.6796875 c 4
 951.678710938 513.563476562 960.639648438 477.9609375 987.991210938 469.943359375 c 5
 1004.0234375 472.7734375 998.364257812 500.123046875 996.715820312 508.84765625 c 4
 985.631835938 534.548828125 979.973632812 563.787109375 951.20703125 574.869140625 c 4
179.005859375 563.55078125 m 5
 179.005859375 155.16796875 l 5
 324.95703125 168.607421875 l 5
 179.005859375 563.55078125 l 5
1141.015625 563.55078125 m 5
 995.064453125 168.607421875 l 5
 1141.015625 155.16796875 l 5
 1141.015625 563.55078125 l 5
863.0234375 561.900390625 m 5
 930.223632812 412.17578125 l 5
 906.643554688 401.80078125 l 5
 859.485351562 503.896484375 l 5
 845.104492188 496.823242188 828.833984375 482.912109375 825.061523438 507.197265625 c 4
 821.99609375 516.393554688 845.104492188 519.223632812 844.161132812 535.255859375 c 4
 843.453125 551.526367188 849.34765625 564.0234375 863.0234375 561.900390625 c 5
363.154296875 497.294921875 m 4
 357.495117188 485.26953125 353.487304688 473.009765625 356.788085938 459.8046875 c 4
 360.797851562 439.055664062 388.620117188 444.71484375 393.571289062 461.690429688 c 4
 399.938476562 473.48046875 402.766601562 489.27734375 392.392578125 498.709960938 c 4
 382.724609375 506.725585938 371.407226562 505.3125 363.154296875 497.294921875 c 4
1137.47949219 399.20703125 m 4
 1137.24316406 355.3515625 1140.07324219 306.779296875 1114.60742188 268.817382812 c 4
 1112.48632812 265.987304688 1109.42089844 264.337890625 1105.88378906 262.922851562 c 4
 1092.20800781 272.58984375 1098.81054688 289.56640625 1108.71289062 299.46875 c 5
 1111.07128906 282.2578125 1121.68066406 306.306640625 1124.27539062 312.673828125 c 4
 1127.34082031 320.21875 1132.76464844 354.408203125 1121.91699219 336.72265625 c 5
 1123.56738281 327.29296875 1105.88378906 305.8359375 1099.98925781 317.625 c 4
 1088.20019531 351.578125 1099.98925781 389.5390625 1116.49414062 420.193359375 c 4
 1129.93457031 434.810546875 1139.83789062 409.817382812 1137.47949219 399.20703125 c 4
197.703125 423.2578125 m 4
 199.094726562 423.021484375 200.862304688 420.900390625 203.55078125 414.76953125 c 6
 203.55078125 270.704101562 l 5
 186.338867188 287.208984375 193.010742188 313.14453125 193.057617188 332.951171875 c 4
 193.057617188 352.7578125 196.948242188 371.384765625 190.040039062 387.654296875 c 5
 179.146484375 391.662109375 176.387695312 427.73828125 182.565429688 417.598632812 c 4
 192.963867188 406.28125 193.553710938 423.96484375 197.703125 423.2578125 c 4
619.219726562 405.337890625 m 4
 638.317382812 394.728515625 651.7578125 371.384765625 644.684570312 349.69140625 c 4
 639.733398438 313.852539062 581.022460938 299.94140625 573.004882812 279.663085938 c 4
 570.176757812 272.58984375 632.895507812 275.890625 644.211914062 275.890625 c 5
 645.391601562 266.458984375 647.75 250.662109375 635.252929688 248.303710938 c 4
 601.063476562 251.133789062 564.752929688 249.71875 528.913085938 249.71875 c 5
 529.856445312 276.126953125 546.360351562 299.94140625 568.997070312 312.909179688 c 4
 585.265625 324.462890625 605.307617188 334.837890625 611.673828125 355.115234375 c 4
 615.918945312 365.725585938 610.260742188 377.04296875 600.828125 382.23046875 c 4
 590.92578125 389.068359375 574.891601562 387.654296875 569.704101562 375.86328125 c 4
 564.989257812 366.904296875 559.329101562 354.408203125 549.190429688 353.228515625 c 4
 542.352539062 352.28515625 527.969726562 352.049804688 532.21484375 364.782226562 c 4
 535.514648438 377.986328125 540.23046875 391.8984375 551.549804688 400.623046875 c 4
 572.297851562 415.4765625 598.469726562 416.419921875 619.219726562 405.337890625 c 4
744.893554688 408.638671875 m 4
 760.928710938 403.451171875 773.188476562 390.01171875 778.612304688 374.21484375 c 4
 792.995117188 339.552734375 791.580078125 296.168945312 768.236328125 265.987304688 c 4
 757.625976562 254.669921875 744.186523438 244.53125 728.153320312 244.53125 c 4
 698.6796875 244.767578125 675.336914062 270.704101562 669.678710938 298.290039062 c 4
 662.369140625 329.884765625 665.43359375 365.9609375 685.947265625 392.133789062 c 4
 701.981445312 410.052734375 723.672851562 416.419921875 744.893554688 408.638671875 c 4
1112.95800781 389.5390625 m 4
 1109.18457031 375.627929688 1105.17675781 357.944335938 1111.30761719 344.033203125 c 5
 1123.33203125 348.75 1124.04003906 366.668945312 1126.87011719 378.22265625 c 4
 1128.99121094 392.60546875 1118.61621094 407.931640625 1112.95800781 389.5390625 c 4
697.500976562 339.7890625 m 4
 698.915039062 315.03125 701.509765625 286.029296875 720.372070312 273.296875 c 4
 731.92578125 269.052734375 743.243164062 278.484375 746.544921875 289.095703125 c 4
 751.024414062 303.94921875 751.967773438 319.51171875 752.204101562 334.837890625 c 4
 751.731445312 351.578125 748.666015625 370.205078125 736.405273438 382.23046875 c 5
 707.639648438 392.60546875 700.331054688 356.529296875 697.500976562 339.7890625 c 4
1079.71191406 373.03515625 m 5
 1079.71191406 228.733398438 l 5
 1069.33691406 212.935546875 l 5
 1069.33691406 312.673828125 l 5
 1058.49121094 294.990234375 1047.88085938 291.216796875 1054.95410156 314.795898438 c 5
 1069.33691406 331.536132812 1066.27246094 355.823242188 1079.71191406 373.03515625 c 5
254.104492188 344.268554688 m 4
 255.989257812 335.78125 266.17578125 302.298828125 258.913085938 309.373046875 c 4
 254.268554688 312.4375 250.377929688 320.92578125 250.872070312 323.754882812 c 4
 247.217773438 330.828125 243.893554688 338.138671875 240.946289062 345.447265625 c 5
 233.990234375 336.017578125 231.610351562 325.876953125 233.543945312 313.852539062 c 5
 234.013671875 317.625 236.325195312 319.275390625 241.536132812 315.50390625 c 4
 260.022460938 285.79296875 270.231445312 246.888671875 258.723632812 212.935546875 c 5
 253.490234375 210.341796875 l 5
 229.0625 224.017578125 226.610351562 256.084960938 221.825195312 281.078125 c 4
 218.169921875 310.080078125 219.961914062 339.317382812 227.247070312 367.612304688 c 5
 239.508789062 376.571289062 248.844726562 354.879882812 254.104492188 344.268554688 c 4
237.481445312 296.640625 m 5
 227.907226562 285.557617188 232.151367188 266.458984375 236.584960938 253.254882812 c 4
 239.202148438 240.287109375 252.901367188 229.205078125 250.872070312 249.482421875 c 4
 252.5 275.655273438 245.379882812 279.427734375 237.481445312 296.640625 c 5
394.043945312 133.00390625 m 5
 660.010742188 -157.25 l 5
 925.977539062 133.00390625 l 5
 394.043945312 133.00390625 l 5
343.583984375 132.296875 m 5
 216.635742188 120.7421875 l 5
 368.106445312 23.833984375 l 6
 361.9765625 30.2001953125 356.551757812 37.2734375 351.365234375 44.583984375 c 4
 339.104492188 60.853515625 326.608398438 76.650390625 306.801757812 83.724609375 c 5
 286.170898438 99.05078125 296.899414062 96.220703125 313.639648438 89.8544921875 c 5
 311.28125 94.099609375 311.989257812 95.984375 313.875976562 95.984375 c 4
 319.0625 96.45703125 333.681640625 86.08203125 336.981445312 81.130859375 c 6
 395.221679688 6.6220703125 l 5
 548.719726562 -91.701171875 l 5
 343.583984375 132.296875 l 5
976.4375 132.296875 m 5
 876.463867188 23.126953125 l 5
 891.553710938 30.435546875 903.107421875 43.16796875 916.547851562 52.365234375 c 4
 922.206054688 55.6650390625 925.270507812 56.84375 926.685546875 56.84375 c 4
 931.63671875 56.84375 913.953125 40.103515625 908.530273438 32.55859375 c 4
 886.366210938 9.4521484375 870.8046875 -21.6728515625 841.094726562 -36.056640625 c 5
 885.658203125 21.712890625 l 6
 880.235351562 18.646484375 871.512695312 14.16796875 866.323242188 12.044921875 c 6
 771.301757812 -91.701171875 l 5
 946.963867188 20.533203125 l 5
 959.696289062 36.330078125 951.442382812 33.73828125 933.5234375 22.654296875 c 6
 906.643554688 8.5087890625 l 5
 933.5234375 40.8115234375 979.266601562 75.2353515625 1000.95898438 92.44921875 c 4
 1022.65136719 109.66015625 1038.44824219 115.5546875 1020.29394531 95.984375 c 6
 990.583007812 58.259765625 l 5
 1014.16308594 76.1787109375 992.706054688 49.0625 979.973632812 45.291015625 c 4
 978.323242188 42.9326171875 976.672851562 40.576171875 974.786132812 38.453125 c 6
 1103.29003906 120.7421875 l 5
 976.4375 132.296875 l 5
612.852539062 92.44921875 m 5
 612.852539062 -9.8837890625 l 5
 581.2578125 -9.8837890625 l 5
 581.2578125 60.853515625 l 5
 569.46875 64.154296875 556.736328125 56.84375 545.182617188 61.560546875 c 4
 536.22265625 68.3974609375 547.540039062 77.59375 555.79296875 75.470703125 c 4
 563.57421875 75.70703125 573.711914062 75 577.721679688 83.0166015625 c 4
 588.095703125 93.6279296875 600.356445312 93.392578125 612.852539062 92.44921875 c 5
681.231445312 91.26953125 m 4
 709.760742188 88.439453125 738.291992188 89.8544921875 767.530273438 89.8544921875 c 5
 771.06640625 82.78125 769.415039062 71.462890625 759.749023438 71.2275390625 c 4
 741.59375 70.51953125 710.233398438 75 698.6796875 69.8125 c 4
 679.344726562 45.0546875 712.120117188 60.853515625 725.559570312 57.5517578125 c 4
 742.063476562 54.958984375 760.928710938 50.7138671875 770.594726562 35.859375 c 4
 775.545898438 28.55078125 776.9609375 18.646484375 772.245117188 10.6298828125 c 4
 758.569335938 -5.40234375 732.161132812 -16.486328125 712.590820312 -15.0703125 c 4
 695.379882812 -13.65625 675.809570312 -12.4765625 664.018554688 1.6708984375 c 4
 648.928710938 26.6640625 688.77734375 17.4677734375 692.78515625 9.216796875 c 4
 706.932617188 -3.28125 740.650390625 4.7353515625 741.59375 20.2978515625 c 4
 743.006835938 30.2001953125 736.641601562 35.15234375 725.323242188 38.689453125 c 4
 714.006835938 42.224609375 695.615234375 36.330078125 684.532226562 34.4453125 c 4
 673.450195312 32.55859375 661.897460938 33.265625 663.311523438 44.8193359375 c 4
 665.198242188 54.72265625 669.678710938 63.91796875 669.678710938 74.29296875 c 4
 669.913085938 81.3671875 673.686523438 90.7978515625 681.231445312 91.26953125 c 4
996.0078125 79.48046875 m 4
 995.536132812 79.9521484375 979.501953125 65.8046875 972.6640625 60.3818359375 c 6
 935.41015625 29.4921875 l 6
 960.403320312 44.8193359375 980.916992188 57.787109375 996.0078125 79.48046875 c 4
413.614257812 45.998046875 m 4
 419.272460938 45.998046875 431.297851562 35.15234375 435.776367188 29.4921875 c 6
 497.317382812 -43.8359375 l 5
 479.163085938 -38.884765625 465.958007812 -27.095703125 455.819335938 -11.533203125 c 4
 440.493164062 5.6787109375 429.174804688 27.607421875 405.833007812 34.681640625 c 4
 384.611328125 46.470703125 393.571289062 49.7705078125 410.784179688 39.8681640625 c 5
 410.076171875 44.34765625 411.254882812 45.998046875 413.614257812 45.998046875 c 4
EndSplineSet
Ligature2: "'liga' Standard Ligatures in Latin lookup 0-1" d two zero
EndChar

StartChar: four
Encoding: 5 52 85
Width: 495
Flags: W
HStem: 0 21G<290 379 290 290> 158 69<68 290 68 290 13 290 379 481> 625 20G<318 379 379 379>
VStem: 13 55<158 231 221 231> 290 89<0 158 227 536 536 536>
LayerCount: 2
Fore
SplineSet
392 0 m 1
 303 0 l 1
 303 158 l 1
 26 158 l 1
 26 221 l 1
 331 645 l 1
 392 645 l 1
 392 227 l 1
 494 227 l 1
 494 158 l 1
 392 158 l 1
 392 0 l 1
81 231 m 1
 81 227 l 1
 303 227 l 1
 303 536 l 1
 299 536 l 1
 81 231 l 1
EndSplineSet
EndChar

StartChar: six
Encoding: 7 54 86
Width: 495
Flags: W
HStem: -12 35<219.5 296.5 219.5 322> 355 58<251 288.5> 617 29<415 417>
VStem: 45 90<183.5 279.5 174 377.5> 370 87<135 240>
LayerCount: 2
Fore
SplineSet
304 -12 m 0
 155 -12 90 110 90 257 c 0
 90 498 245 637 460 646 c 1
 462 617 l 1
 322 596 210 498 185 352 c 1
 192 351 l 1
 233 391 270 413 322 413 c 0
 431 413 502 334 502 203 c 0
 502 67 430 -12 304 -12 c 0
308 23 m 0
 375 23 415 68 415 195 c 0
 415 285 375 355 292 355 c 0
 234 355 180 323 180 236 c 0
 180 112 221 23 308 23 c 0
EndSplineSet
EndChar

StartChar: eight
Encoding: 9 56 87
Width: 495
Flags: W
HStem: -12 31<212 281 212 305.5> 614 33<213 279>
VStem: 46 78<105 182> 59 78<487.5 544.5> 350 74<479 544> 364 84<97.5 153>
LayerCount: 2
Fore
SplineSet
292 -12 m 0xe8
 176 -12 92 40 92 142 c 0xe8
 92 222 136 254 229 316 c 1
 229 319 l 1
 127 390 105 431 105 499 c 0
 105 590 185 647 295 647 c 0
 394 647 470 588 470 509 c 0xd8
 470 436 434 403 341 352 c 1
 341 349 l 1
 457 278 494 230 494 150 c 0xe4
 494 45 411 -12 292 -12 c 0xe8
260 300 m 1
 202 254 170 219 170 150 c 0
 170 60 220 19 296 19 c 0
 358 19 410 53 410 121 c 0xe4
 410 185 380 222 260 300 c 1
310 368 m 1
 376 408 396 447 396 511 c 0
 396 577 357 614 293 614 c 0
 225 614 183 578 183 517 c 0xd8
 183 458 221 422 310 368 c 1
EndSplineSet
EndChar

StartChar: one
Encoding: 2 49 88
Width: 495
Flags: W
HStem: 0 28<80 127 380 426 80 127> 619 20G<268 297 297 297>
VStem: 209 88<95 518 518 535.5>
LayerCount: 2
Fore
SplineSet
500 0 m 1
 154 0 l 1
 154 28 l 1
 248 28 283 45 283 95 c 2
 283 518 l 2
 283 553 275 567 250 567 c 0
 230 567 179 561 148 551 c 1
 148 584 l 1
 342 639 l 1
 371 639 l 1
 371 95 l 2
 371 46 408 28 500 28 c 1
 500 0 l 1
EndSplineSet
EndChar

StartChar: zero
Encoding: 1 48 89
Width: 495
Flags: W
HStem: -11 36<207 286.5 207 325.5> 608 34<206.5 287>
VStem: 27 96<231.5 414 218 415> 371 97<231.5 412.5>
LayerCount: 2
Fore
SplineSet
274 -11 m 0
 113 -11 54 143 54 320 c 0
 54 510 131 642 276 642 c 0
 405 642 495 523 495 317 c 0
 495 146 431 -11 274 -11 c 0
274 25 m 0
 353 25 398 119 398 311 c 0
 398 514 355 608 273 608 c 0
 194 608 150 513 150 315 c 0
 150 121 194 25 274 25 c 0
EndSplineSet
EndChar

StartChar: two
Encoding: 3 50 90
Width: 495
Flags: W
HStem: 0 79<207 346 346 372.5 207 432> 471 20G<44 44> 579 65<191.5 252.5>
VStem: 339 93<426.5 493.5>
LayerCount: 2
Fore
SplineSet
470 0 m 1
 76 0 l 1
 76 34 l 1
 228 186 l 2
 327 288 377 351 377 456 c 0
 377 531 329 579 252 579 c 0
 187 579 143 556 106 481 c 1
 82 491 l 1
 113 588 181 644 278 644 c 0
 391 644 470 576 470 471 c 0
 470 382 413 313 307 206 c 1
 175 81 l 1
 175 76 l 1
 245 79 l 1
 384 79 l 2
 437 79 450 100 473 160 c 1
 502 160 l 1
 470 0 l 1
EndSplineSet
EndChar

StartChar: three
Encoding: 4 51 91
Width: 495
Flags: W
HStem: -13 50<212.5 244> 312 38<161 180 180 181 161 180> 579 65<203 248>
VStem: 319 86<475.5 515.5> 362 82<125.5 208.5>
LayerCount: 2
Fore
SplineSet
230 -13 m 0xe8
 140 -13 118 16 118 42 c 0
 118 63 131 86 157 86 c 0
 197 86 246 37 297 37 c 0
 360 37 421 66 421 164 c 0xe8
 421 253 336 312 240 312 c 2
 220 312 l 1
 220 350 l 1
 239 350 l 2
 307 350 378 405 378 486 c 0
 378 545 338 579 276 579 c 0
 216 579 179 551 145 498 c 1
 122 511 l 1
 159 598 221 644 303 644 c 0
 405 644 464 586 464 510 c 0xf0
 464 441 419 404 356 364 c 1
 356 361 l 1
 436 336 503 283 503 194 c 0
 503 57 376 -13 230 -13 c 0xe8
EndSplineSet
EndChar

StartChar: five
Encoding: 6 53 92
Width: 495
Flags: W
HStem: -13 50<204 253.5> 549 81<182 417 182 182>
VStem: 370 73<142 253>
LayerCount: 2
Fore
SplineSet
233 -13 m 0
 156 -13 118 6 118 43 c 0
 118 66 133 86 158 86 c 0
 198 86 231 37 295 37 c 0
 366 37 429 75 429 179 c 0
 429 327 300 351 168 354 c 1
 156 369 l 1
 218 630 l 1
 492 630 l 1
 476 549 l 1
 241 549 l 1
 214 435 l 1
 379 423 502 376 502 219 c 0
 502 65 392 -13 233 -13 c 0
EndSplineSet
EndChar

StartChar: seven
Encoding: 8 55 93
Width: 495
Flags: W
HStem: -8 21G<151 230 151 151> 457 20G<42 42> 549 81<136 164 164 387>
VStem: 42 422<477 630>
LayerCount: 2
Fore
SplineSet
272 -8 m 1
 193 -8 l 1
 429 549 l 1
 206 549 l 2
 150 549 142 539 115 474 c 1
 84 477 l 1
 124 630 l 1
 506 630 l 1
 506 599 l 1
 272 -8 l 1
EndSplineSet
EndChar

StartChar: nine
Encoding: 10 57 94
Width: 495
Flags: W
HStem: -13 21G<85 85> 222 59<207.5 244> 612 34<203.5 280>
VStem: 39 87<391.5 499.5> 360 90<355 448 245 460.5>
LayerCount: 2
Fore
SplineSet
124 -13 m 1
 122 16 l 1
 260 32 373 121 395 283 c 1
 389 284 l 1
 344 243 308 222 258 222 c 0
 149 222 78 300 78 432 c 0
 78 567 153 646 279 646 c 0
 428 646 489 522 489 374 c 0
 489 116 345 -11 124 -13 c 1
288 281 m 0
 346 281 399 312 399 398 c 0
 399 523 363 612 275 612 c 0
 210 612 165 566 165 438 c 0
 165 345 205 281 288 281 c 0
EndSplineSet
EndChar

StartChar: critical_success
Encoding: 95 -1 95
Width: 1538
VWidth: 936
Flags: HW
LayerCount: 2
Fore
SplineSet
764.735351562 953.860351562 m 1
 764.735351562 776.3203125 l 1
 694.086914062 773.043945312 591.999023438 735.767578125 536.859375 693.115234375 c 1
 350.547851562 689.083984375 l 1
 764.735351562 953.860351562 l 1
802.461914062 953.860351562 m 1
 1216.71972656 689.083984375 l 1
 1031.48339844 693.088867188 l 1
 976.16015625 736.208984375 873.55859375 773.879882812 802.461914062 777.17578125 c 1
 802.461914062 953.860351562 l 1
1170.53222656 880.381835938 m 1
 1170.53515625 880.375976562 l 1
 1226.02539062 862.6484375 1269.44335938 843.181640625 1322.94042969 804.2890625 c 0
 1329.88574219 797.690429688 1336.75488281 790.97265625 1343.42382812 784.092773438 c 0
 1342.67675781 782.329101562 1341.46972656 780.176757812 1339.76464844 777.134765625 c 0
 1336.55078125 771.392578125 1331.02246094 764.506835938 1324.03027344 757.711914062 c 1
 1334.96582031 740.342773438 1344.91796875 722.969726562 1354.11621094 705.547851562 c 1
 1365.71484375 715.084960938 1376.12597656 725.702148438 1384.49316406 737.612304688 c 1
 1408.64453125 707.7578125 1430.31542969 675.815429688 1449.22167969 642.01171875 c 0
 1447.92089844 636.896484375 1444.15234375 631.33203125 1437.14648438 623.877929688 c 0
 1428.74902344 614.938476562 1415.64746094 605.677734375 1400.4296875 597.79296875 c 1
 1406.84667969 578.599609375 1412.34277344 559.501953125 1416.86230469 540.431640625 c 1
 1440.38964844 551.048828125 1461.87792969 564.825195312 1478.81054688 582.30078125 c 1
 1497.61523438 538.993164062 1511.98046875 493.126953125 1521.27148438 445.329101562 c 0
 1517.03808594 437.7109375 1509.5859375 430.690429688 1498.20703125 423.266601562 c 0
 1482.15136719 412.786132812 1459.06835938 404.204101562 1433.98535156 399.241210938 c 1
 1434.12597656 379.041992188 1433.19726562 359.01171875 1431.41308594 339.23828125 c 1
 1467.53417969 344.486328125 1502.36816406 355.704101562 1530.77539062 374.240234375 c 0
 1530.91113281 374.331054688 1531.03417969 374.444335938 1531.17089844 374.533203125 c 1
 1535.3125 325.625 1534.02539062 277.395507812 1527.80175781 230.501953125 c 0
 1520.46191406 219.576171875 1508.15917969 211.8125 1489.90136719 205.600585938 c 0
 1466.47363281 197.622070312 1434.63378906 195.118164062 1402.21679688 198.340820312 c 1
 1395.8828125 179.131835938 1388.671875 160.28125 1380.640625 141.865234375 c 1
 1424.88574219 135.282226562 1470.0703125 136.77734375 1509.19628906 150.102539062 c 0
 1510.26367188 150.462890625 1511.30175781 150.890625 1512.36230469 151.27734375 c 1
 1499.76855469 102.678710938 1481.76953125 55.9921875 1459.02148438 11.953125 c 0
 1447.77636719 3.15625 1432.58203125 -1.2763671875 1412.41503906 -2.65625 c 0
 1382.95800781 -4.677734375 1345.45117188 2.7763671875 1309.68066406 17.2412109375 c 1
 1297.91992188 0.7373046875 1285.42382812 -15.1904296875 1272.37597656 -30.6044921875 c 1
 1318.51464844 -51.673828125 1368.61816406 -64.1015625 1415.18652344 -61.1982421875 c 1
 1383.66113281 -107.03125 1346.58300781 -149.0234375 1304.74121094 -186.008789062 c 0
 1291.26953125 -190.51171875 1275.32910156 -190.502929688 1256.14941406 -186.793945312 c 0
 1225.72851562 -180.9140625 1190.01953125 -163.588867188 1157.78027344 -139.73046875 c 1
 1141.41992188 -152.240234375 1124.640625 -164.129882812 1107.40625 -175.123046875 c 1
 1145.30761719 -206.17578125 1188.5859375 -230.561523438 1232.59277344 -241.606445312 c 1
 1195.67382812 -266.346679688 1156.140625 -287.633789062 1114.33789062 -304.943359375 c 0
 1098.70410156 -306.2734375 1081.75390625 -301.936523438 1062.57519531 -292.689453125 c 0
 1038.27832031 -280.970703125 1012.6015625 -260.522460938 989.640625 -235.333984375 c 1
 935.653320312 -256.637695312 879.580078125 -270.537109375 823.083007812 -275.829101562 c 1
 817.541015625 -217.390625 l 1
 862.729492188 -213.15625 908.077148438 -202.4296875 952.330078125 -186.213867188 c 1
 937.692382812 -162.823242188 926.477539062 -138.1796875 919.1640625 -114.697265625 c 1
 1014.39257812 -59.7158203125 l 1
 1026.20898438 -85.4462890625 1042.82421875 -110.092773438 1062.97363281 -132.676757812 c 1
 1079.93261719 -122.354492188 1096.52148438 -111.250976562 1112.65625 -99.34375 c 1
 1091.83691406 -76.962890625 1075.16601562 -52.7197265625 1065.67773438 -30.1064453125 c 1
 1176.34472656 33.787109375 l 1
 1189.34179688 21.0478515625 1203.7890625 9.2373046875 1219.52929688 -1.2939453125 c 1
 1232.578125 13.517578125 1245.03222656 28.8330078125 1256.74023438 44.7880859375 c 1
 1247.08886719 51.0595703125 1238.19042969 57.7978515625 1229.93554688 64.7265625 c 1
 1295.50195312 102.58203125 l 1
 1295.50195312 166.080078125 l 1
 1304.13378906 162.267578125 1312.94140625 158.705078125 1322.06152344 155.68359375 c 1
 1330.28027344 173.5390625 1337.75585938 191.7578125 1344.22949219 210.396484375 c 1
 1326.0703125 216.22265625 1309.35839844 223.706054688 1295.50195312 232.221679688 c 1
 1295.50195312 351 l 2
 1295.58105469 350.969726562 1295.65234375 350.920898438 1295.73046875 350.891601562 c 0
 1319.29882812 341.661132812 1345.54785156 336.993164062 1372.52832031 335.989257812 c 1
 1374.61914062 355.317382812 1375.75878906 374.907226562 1375.7890625 394.724609375 c 1
 1353.79882812 395.559570312 1333.23046875 399.24609375 1317.5 405.411132812 c 0
 1308.078125 409.10546875 1300.98046875 413.060546875 1295.50195312 417.4375 c 2
 1295.50195312 517.915039062 l 2
 1295.87207031 517.873046875 1296.24316406 517.814453125 1296.61230469 517.774414062 c 0
 1317.55566406 515.505859375 1339.484375 517.228515625 1361.13574219 521.893554688 c 1
 1356.79394531 540.689453125 1351.51953125 559.645507812 1345.10253906 578.668945312 c 1
 1329.6796875 575.740234375 1314.89648438 574.831054688 1303.04492188 576.1171875 c 0
 1300.171875 576.428710938 1297.88085938 576.896484375 1295.50195312 577.341796875 c 2
 1295.50195312 671.15234375 l 2
 1298.30859375 672.245117188 1301.16894531 673.134765625 1303.93261719 674.365234375 c 1
 1301.25097656 679.483398438 1298.33789062 684.61328125 1295.50195312 689.740234375 c 2
 1295.50195312 693.677734375 l 1
 1292.34082031 695.502929688 l 2
 1286.63867188 705.606445312 1280.71777344 715.717773438 1274.34179688 725.840820312 c 1
 1266.66601562 722.796875 1259.33203125 720.619140625 1253.06152344 719.659179688 c 0
 1252.19824219 719.52734375 1251.67578125 719.541992188 1250.88183594 719.439453125 c 2
 1241.49804688 724.856445312 l 1
 1236.09570312 737.247070312 1230.50488281 749.517578125 1224.36914062 761.333007812 c 0
 1205.68554688 798.365234375 1185.046875 837.424804688 1170.53222656 880.3671875 c 1
 1170.53222656 880.381835938 l 1
396.626953125 880.3671875 m 1
 396.626953125 880.356445312 l 1
 382.106445312 837.413085938 361.46875 798.358398438 342.790039062 761.328125 c 0
 336.62890625 749.461914062 330.967773438 737.22265625 325.561523438 724.7734375 c 1
 316.303710938 719.4296875 l 2
 315.497070312 719.533203125 314.969726562 719.517578125 314.0859375 719.65234375 c 0
 307.844726562 720.610351562 300.552734375 722.811523438 292.908203125 725.833984375 c 1
 286.543945312 715.729492188 280.633789062 705.634765625 274.938476562 695.547851562 c 2
 271.6953125 693.67578125 l 1
 271.6953125 689.635742188 l 2
 268.879882812 684.54296875 265.982421875 679.447265625 263.317382812 674.361328125 c 1
 266.06640625 673.13671875 268.90625 672.249023438 271.6953125 671.159179688 c 2
 271.6953125 577.342773438 l 2
 269.333007812 576.897460938 267.059570312 576.424804688 264.205078125 576.115234375 c 0
 252.354492188 574.83203125 237.5703125 575.743164062 222.147460938 578.669921875 c 1
 215.73828125 559.678710938 210.356445312 540.756835938 206.017578125 521.995117188 c 1
 227.7109375 517.310546875 249.6640625 515.506835938 270.640625 517.782226562 c 0
 270.994140625 517.8203125 271.34375 517.87890625 271.6953125 517.916992188 c 2
 271.6953125 417.388671875 l 2
 266.225585938 413.034179688 259.149414062 409.094726562 249.764648438 405.416015625 c 0
 234.006835938 399.241210938 213.3984375 395.557617188 191.3671875 394.731445312 c 1
 191.385742188 374.911132812 192.54296875 355.32421875 194.639648438 335.997070312 c 1
 221.65234375 336.98828125 247.938476562 341.65625 271.53125 350.90234375 c 0
 271.586914062 350.92578125 271.639648438 350.958984375 271.6953125 350.982421875 c 2
 271.6953125 232.245117188 l 1
 257.8359375 223.717773438 241.112304688 216.225585938 222.938476562 210.396484375 c 1
 229.409179688 191.760742188 236.889648438 173.5390625 245.106445312 155.686523438 c 1
 254.236328125 158.70703125 263.053710938 162.267578125 271.6953125 166.077148438 c 1
 271.6953125 102.58203125 l 1
 337.235351562 64.7412109375 l 1
 328.978515625 57.8115234375 320.07421875 51.0732421875 310.421875 44.796875 c 1
 322.1328125 28.841796875 334.5859375 13.5205078125 347.6328125 -1.2880859375 c 1
 363.37890625 9.2431640625 377.828125 21.0595703125 390.826171875 33.8017578125 c 1
 501.572265625 -30.1357421875 l 1
 492.087890625 -52.740234375 475.424804688 -76.9736328125 454.614257812 -99.3408203125 c 1
 470.740234375 -111.2421875 487.248046875 -122.360351562 504.200195312 -132.676757812 c 1
 524.36328125 -110.1015625 541.03125 -85.4638671875 552.854492188 -59.7451171875 c 1
 648.030273438 -114.694335938 l 1
 640.740234375 -138.174804688 629.565429688 -162.817382812 614.934570312 -186.208007812 c 1
 659.202148438 -202.423828125 704.540039062 -213.153320312 749.723632812 -217.387695312 c 1
 744.087890625 -275.823242188 l 1
 687.619140625 -270.537109375 631.578125 -256.616210938 577.626953125 -235.333984375 c 1
 554.66796875 -260.522460938 528.989257812 -280.970703125 504.692382812 -292.689453125 c 0
 485.51953125 -301.93359375 468.568359375 -306.270507812 452.932617188 -304.943359375 c 0
 411.147460938 -287.63671875 371.58203125 -266.333007812 334.674804688 -241.609375 c 1
 378.7109375 -230.552734375 421.935546875 -206.125 459.861328125 -175.032226562 c 1
 442.665039062 -164.05078125 425.809570312 -152.21484375 409.487304688 -139.733398438 c 0
 409.46875 -139.71875 409.416992188 -139.75 409.384765625 -139.733398438 c 0
 377.163085938 -163.567382812 341.521484375 -180.919921875 311.118164062 -186.796875 c 0
 291.8828125 -190.516601562 275.922851562 -190.456054688 262.432617188 -185.91796875 c 0
 220.611328125 -148.939453125 183.602539062 -107.016601562 152.083984375 -61.201171875 c 1
 198.646484375 -64.1044921875 248.651367188 -51.6796875 294.791992188 -30.6103515625 c 1
 281.745117188 -15.205078125 269.33984375 0.7431640625 257.583984375 17.23828125 c 1
 221.818359375 2.7646484375 184.307617188 -4.68359375 154.85546875 -2.662109375 c 0
 134.682617188 -1.2822265625 119.493164062 3.1474609375 108.240234375 11.9443359375 c 0
 85.4912109375 55.9833984375 67.4951171875 102.669921875 54.896484375 151.271484375 c 1
 55.9580078125 150.884765625 56.99609375 150.459960938 58.0625 150.096679688 c 0
 97.193359375 136.771484375 142.374023438 135.276367188 186.615234375 141.859375 c 1
 178.587890625 160.275390625 171.384765625 179.125976562 165.05078125 198.334960938 c 1
 132.596679688 195.096679688 100.717773438 197.599609375 77.263671875 205.588867188 c 0
 59.01953125 211.803710938 46.7763671875 219.577148438 39.4599609375 230.49609375 c 0
 33.23828125 277.389648438 31.8525390625 325.61328125 36 374.52734375 c 1
 36.16015625 374.420898438 36.3369140625 374.336914062 36.4951171875 374.231445312 c 0
 64.90234375 355.6953125 99.7314453125 344.477539062 135.854492188 339.229492188 c 1
 134.075195312 359.002929688 133.140625 379.036132812 133.282226562 399.232421875 c 1
 108.1953125 404.192382812 85.1142578125 412.779296875 69.0517578125 423.2578125 c 0
 57.6572265625 430.690429688 50.125 437.68359375 45.896484375 445.3203125 c 0
 55.1845703125 493.124023438 69.541015625 538.984375 88.3515625 582.294921875 c 1
 105.291992188 564.802734375 126.841796875 551.034179688 150.40234375 540.428710938 c 1
 154.918945312 559.493164062 160.41796875 578.590820312 166.826171875 597.784179688 c 1
 151.55859375 605.671875 138.418945312 614.91796875 130.006835938 623.869140625 c 0
 122.967773438 631.3671875 119.288085938 636.965820312 118.037109375 642.099609375 c 0
 136.920898438 675.865234375 158.640625 707.783203125 182.762695312 737.606445312 c 1
 191.129882812 725.693359375 201.54296875 715.079101562 213.145507812 705.541992188 c 1
 222.342773438 722.9609375 232.291015625 740.331054688 243.228515625 757.700195312 c 1
 236.251953125 764.498046875 230.708984375 771.372070312 227.491210938 777.120117188 c 0
 225.759765625 780.2109375 224.586914062 782.403320312 223.826171875 784.180664062 c 0
 230.486328125 791.038085938 237.288085938 797.700195312 244.221679688 804.280273438 c 0
 297.720703125 843.172851562 341.137695312 862.638671875 396.626953125 880.3671875 c 1
998.330078125 673.682617188 m 1
 1033.22851562 674.09765625 1090.12207031 601.30078125 1071.08007812 575.534179688 c 2
 709.547851562 122.576171875 l 1
 499.544921875 284.5078125 l 2
 470.3203125 313.71875 536.00390625 397.377929688 580.981445312 405.82421875 c 1
 580.981445312 405.745117188 l 2
 583.580078125 406.239257812 586.1328125 406.52734375 588.515625 406.512695312 c 1
 588.515625 406.512695312 l 1
 595.669921875 406.4765625 601.814453125 404.088867188 606.87890625 399.059570312 c 2
 709.553710938 316.059570312 l 1
 981.82421875 665.158203125 l 2
 986.159179688 671.018554688 991.8671875 673.606445312 998.330078125 673.682617188 c 1
 998.330078125 673.682617188 l 1
493.838867188 654.438476562 m 1
 443.80859375 601.801757812 398.125 501.380859375 391.866210938 430.283203125 c 1
 310.606445312 650.41015625 l 1
 493.838867188 654.438476562 l 1
1074.19628906 654.416992188 m 1
 1256.56738281 650.409179688 l 1
 1176.0546875 432.279296875 l 1
 1169.44433594 502.731445312 1123.81152344 602.249023438 1074.19628906 654.416992188 c 1
302.614257812 563.169921875 m 1
 448.559570312 168.244140625 l 1
 302.614257812 154.805664062 l 1
 302.614257812 563.169921875 l 1
1264.58300781 563.169921875 m 1
 1264.58300781 154.805664062 l 1
 1118.63769531 168.244140625 l 1
 1264.58300781 563.169921875 l 1
467.185546875 131.934570312 m 1
 672.313476562 -92.0537109375 l 1
 340.244140625 120.380859375 l 1
 467.185546875 131.934570312 l 1
1100.01171875 131.934570312 m 1
 1226.859375 120.380859375 l 1
 894.88671875 -92.0537109375 l 1
 1100.01171875 131.934570312 l 1
559.859375 86.5673828125 m 1
 615.541015625 49.28515625 715.776367188 18.8525390625 783.598632812 18.6396484375 c 0
 851.420898438 18.8525390625 951.657226562 49.28515625 1007.33789062 86.5673828125 c 1
 783.598632812 -157.599609375 l 1
 559.859375 86.5673828125 l 1
EndSplineSet
Ligature2: "'liga' Standard Ligatures in Latin lookup 0-1" c r i t i c a l hyphen s u c c e s s
Comment: "Remixed from+AAoA-- https://game-icons.net/1x1/lorc/laurel-crown.html+AAoA-- https://game-icons.net/1x1/delapouite/dice-twenty-faces-twenty.html"
EndChar

StartChar: critical_failure
Encoding: 96 -1 96
Width: 1386
VWidth: 936
Flags: HW
LayerCount: 2
Fore
SplineSet
765.231445312 947.571289062 m 1
 765.231445312 770.970703125 l 1
 694.958984375 767.7109375 593.41015625 730.6328125 538.561523438 688.205078125 c 1
 353.235351562 684.1953125 l 1
 765.231445312 947.571289062 l 1
802.758789062 947.571289062 m 1
 1214.82519531 684.1953125 l 1
 1030.56835938 688.178710938 l 1
 975.538085938 731.071289062 873.478515625 768.54296875 802.758789062 771.821289062 c 1
 802.758789062 947.571289062 l 1
599.620117188 669.208984375 m 2
 599.618164062 669.206054688 l 2
 606.272460938 669.171875 611.991210938 666.95703125 616.702148438 662.279296875 c 2
 783.995117188 495.055664062 l 1
 951.2890625 662.279296875 l 2
 984.748046875 695.723632812 1085.14941406 595.389648438 1051.69238281 561.9453125 c 2
 884.40234375 394.721679688 l 1
 1051.69238281 227.498046875 l 2
 1085.15234375 194.051757812 984.745117188 93.6435546875 951.2890625 127.09375 c 2
 783.995117188 294.387695312 l 1
 616.702148438 127.090820312 l 2
 583.244140625 93.638671875 482.842773438 194.05078125 516.297851562 227.495117188 c 2
 683.588867188 394.721679688 l 1
 516.291992188 561.9453125 l 2
 489.10546875 589.118164062 550.775390625 660.709960938 592.6171875 668.567382812 c 1
 592.6171875 668.498046875 l 2
 595.034179688 668.956054688 597.40234375 669.223632812 599.620117188 669.208984375 c 2
495.768554688 649.740234375 m 1
 446.00390625 597.380859375 400.561523438 497.491210938 394.336914062 426.770507812 c 1
 313.505859375 645.733398438 l 1
 495.768554688 649.740234375 l 1
1073.05566406 649.719726562 m 1
 1254.46191406 645.733398438 l 1
 1174.375 428.7578125 l 1
 1167.79882812 498.834960938 1122.40820312 597.826171875 1073.05566406 649.719726562 c 1
305.557617188 558.955078125 m 1
 450.728515625 166.119140625 l 1
 305.557617188 152.751953125 l 1
 305.557617188 558.955078125 l 1
1262.43457031 558.955078125 m 1
 1262.43457031 152.751953125 l 1
 1117.26171875 166.119140625 l 1
 1262.43457031 558.955078125 l 1
116.310546875 446.297851562 m 1
 153.638671875 406.19140625 220.651367188 376.068359375 272.733398438 372.265625 c 0
 273.400390625 372.5703125 274.134765625 372.829101562 274.803710938 373.133789062 c 2
 274.803710938 253.561523438 l 1
 256.184570312 239.4453125 240.764648438 224.154296875 229.181640625 207.778320312 c 1
 244.7265625 203.73046875 260.109375 198.796875 274.803710938 193.205078125 c 1
 274.803710938 130.797851562 l 1
 250.732421875 125.67578125 227.272460938 118.540039062 206.674804688 109.915039062 c 1
 223.06640625 30.7490234375 319.276367188 -44.41015625 462.689453125 -93.9111328125 c 1
 474.235351562 -79.2392578125 491.803710938 -57.6484375 512.048828125 -36.1689453125 c 1
 580.037109375 -75.4248046875 l 1
 581.719726562 -94.619140625 586.142578125 -113.333984375 594.622070312 -129.20703125 c 1
 623.428710938 -134.9375 653.326171875 -139.724609375 684.211914062 -143.458984375 c 0
 689.791992188 -144.135742188 695.325195312 -144.600585938 700.887695312 -145.196289062 c 2
 783.995117188 -193.178710938 l 1
 855.098632812 -152.12890625 l 1
 904.84765625 -151.178710938 952.788085938 -147.21875 997.6953125 -140.370117188 c 1
 1019.06152344 -113.947265625 1030.41308594 -80.0537109375 1034.19628906 -48.7255859375 c 1
 1081.76855469 -21.2607421875 l 1
 1106.45703125 -49.6513671875 1127.14941406 -84.572265625 1137.84375 -106.651367188 c 1
 1201.63476562 -84.3623046875 1252.64355469 -54.6767578125 1285.09472656 -19.2265625 c 1
 1289.95703125 -49.083984375 1289.93945312 -80.041015625 1284.69238281 -110.174804688 c 1
 1365.86914062 -11.1494140625 1351.17089844 88.0712890625 1293.18945312 158.556640625 c 1
 1293.18945312 300.323242188 l 1
 1336.17773438 313.004882812 1365.52832031 334.297851562 1381.4453125 364.298828125 c 1
 1396.40332031 319.993164062 1388.40234375 264.102539062 1368.81542969 228.348632812 c 1
 1367.33203125 229.0390625 l 1
 1426.85546875 162.680664062 1452.93554688 87.5146484375 1435.55957031 11.4404296875 c 1
 1475.17578125 -15.5185546875 1516.50292969 -63.9013671875 1529.99511719 -108.333007812 c 1
 1493.70605469 -83.19921875 1449.08007812 -72.2421875 1395.62792969 -75.771484375 c 1
 1338.53417969 -156.619140625 1231.71875 -220.967773438 1097.85742188 -260.712890625 c 1
 1091.33105469 -299.743164062 1065.45410156 -344.538085938 1025.859375 -380.2734375 c 1
 1030.76269531 -341.982421875 1007.90136719 -318.85546875 960.375 -291.231445312 c 1
 899.844726562 -300.583007812 836.075195312 -305.444335938 770.57421875 -305.274414062 c 0
 762.384765625 -305.25390625 754.166992188 -305.153320312 745.92578125 -304.974609375 c 1
 679.025390625 -332.08984375 627.108398438 -380.942382812 606.064453125 -420.592773438 c 1
 593.297851562 -382.793945312 594.625 -339.861328125 601.475585938 -293.74609375 c 1
 554.192382812 -287.374023438 508.940429688 -278.5703125 466.098632812 -267.638671875 c 0
 378.522460938 -245.291992188 301.022460938 -214.053710938 236.859375 -176.528320312 c 1
 200.892578125 -199.68359375 147.754882812 -219.978515625 98.36328125 -224.510742188 c 1
 136.395507812 -194.893554688 149.048828125 -153.971679688 135.870117188 -101.231445312 c 1
 81.7490234375 -13.5068359375 111.735351562 134.278320312 187.396484375 237.96484375 c 1
 106.291992188 193.3203125 60.32421875 125.979492188 41.591796875 55.3583984375 c 1
 35.212890625 89.521484375 37.1953125 124.466796875 48.5673828125 159.4921875 c 0
 64.8876953125 209.770507812 98.986328125 255.475585938 146.780273438 295.159179688 c 1
 119.997070312 342.028320312 101.387695312 402.330078125 116.310546875 446.297851562 c 1
469.255859375 130.001953125 m 1
 673.298828125 -92.80078125 l 1
 342.987304688 118.508789062 l 1
 469.255859375 130.001953125 l 1
1098.734375 130.001953125 m 1
 1224.91015625 118.508789062 l 1
 894.694335938 -92.80078125 l 1
 1098.734375 130.001953125 l 1
561.44140625 84.875 m 1
 616.827148438 47.7880859375 716.533203125 17.5166015625 783.995117188 17.306640625 c 0
 851.458984375 17.5166015625 951.165039062 47.7880859375 1006.55078125 84.875 c 1
 818.815972501 -120 l 0
 783.995117188 -158 l 1
 561.44140625 84.875 l 1
EndSplineSet
Ligature2: "'liga' Standard Ligatures in Latin lookup 0-1" c r i t i c a l hyphen f a i l u r e
Comment: "Remixed from+AAoA-- https://game-icons.net/1x1/lorc/crown-of-thorns.html+AAoA-- https://game-icons.net/1x1/delapouite/dice-twenty-faces-twenty.html"
EndChar

StartChar: success
Encoding: 97 -1 97
Width: 1386
VWidth: 936
Flags: HW
LayerCount: 2
Fore
SplineSet
765.130859375 952.5 m 5
 765.130859375 774.952148438 l 5
 694.48046875 771.67578125 592.387695312 734.3984375 537.245117188 691.743164062 c 5
 350.92578125 687.711914062 l 5
 765.130859375 952.5 l 5
802.859375 952.5 m 5
 1217.13476562 687.711914062 l 5
 1031.890625 691.716796875 l 5
 976.564453125 734.838867188 873.958984375 772.51171875 802.859375 775.807617188 c 5
 802.859375 952.5 l 5
998.73828125 672.313476562 m 6
 998.735351562 672.307617188 l 5
 1033.63867188 672.723632812 1090.53710938 599.926757812 1071.49414062 574.157226562 c 6
 709.947265625 121.180664062 l 5
 499.935546875 283.119140625 l 6
 470.708984375 312.331054688 536.395507812 395.991210938 581.375 404.4375 c 5
 581.375 404.361328125 l 6
 583.973632812 404.85546875 586.522460938 405.143554688 588.907226562 405.12890625 c 5
 588.907226562 405.12890625 l 5
 596.061523438 405.091796875 602.20703125 402.708984375 607.270507812 397.678710938 c 6
 709.950195312 314.674804688 l 5
 982.235351562 663.78515625 l 6
 986.568359375 669.647460938 992.275390625 672.237304688 998.73828125 672.313476562 c 6
494.22265625 653.071289062 m 5
 444.19140625 600.431640625 398.505859375 500.006835938 392.24609375 428.90625 c 5
 310.982421875 649.04296875 l 5
 494.22265625 653.071289062 l 5
1074.60546875 653.05078125 m 5
 1256.984375 649.04296875 l 5
 1176.46777344 430.904296875 l 5
 1169.85742188 501.357421875 1124.22265625 600.87890625 1074.60546875 653.05078125 c 5
302.990234375 561.799804688 m 5
 448.94140625 166.857421875 l 5
 302.990234375 153.418945312 l 5
 302.990234375 561.799804688 l 5
1265 561.799804688 m 5
 1265 153.418945312 l 5
 1119.04882812 166.857421875 l 5
 1265 561.799804688 l 5
467.568359375 130.546875 m 5
 672.705078125 -93.451171875 l 5
 340.622070312 118.9921875 l 5
 467.568359375 130.546875 l 5
1100.421875 130.546875 m 5
 1227.27441406 118.9921875 l 5
 895.288085938 -93.451171875 l 5
 1100.421875 130.546875 l 5
560.24609375 85.177734375 m 5
 615.930664062 47.8916015625 716.169921875 17.4580078125 783.995117188 17.2470703125 c 4
 851.8203125 17.4580078125 952.059570312 47.8916015625 1007.74414062 85.177734375 c 5
 783.995117188 -159 l 5
 560.24609375 85.177734375 l 5
EndSplineSet
LCarets2: 6 0 0 0 0 0 0
Ligature2: "'liga' Standard Ligatures in Latin lookup 0-1" s u c c e s s
EndChar

StartChar: failure
Encoding: 98 -1 98
Width: 1386
VWidth: 936
Flags: HW
LayerCount: 2
Fore
SplineSet
765.256835938 951.459960938 m 5
 765.256835938 775.095703125 l 5
 695.077148438 771.840820312 593.665039062 734.811523438 538.889648438 692.44140625 c 5
 353.8125 688.4375 l 5
 765.256835938 951.459960938 l 5
802.733398438 951.459960938 m 5
 1214.24707031 688.4375 l 5
 1030.23828125 692.415039062 l 5
 975.28125 735.25 873.358398438 772.671875 802.733398438 775.9453125 c 5
 802.733398438 951.459960938 l 5
599.866210938 673.470703125 m 6
 599.86328125 673.467773438 l 6
 606.508789062 673.43359375 612.221679688 671.21875 616.92578125 666.546875 c 6
 783.995117188 499.547851562 l 5
 951.061523438 666.546875 l 6
 984.474609375 699.947265625 1084.74511719 599.75 1051.33398438 566.350585938 c 6
 884.267578125 399.350585938 l 5
 1051.33398438 232.3515625 l 6
 1084.74707031 198.950195312 984.47265625 98.6767578125 951.061523438 132.08203125 c 6
 783.995117188 299.151367188 l 5
 616.92578125 132.079101562 l 6
 583.512695312 98.673828125 483.245117188 198.946289062 516.65625 232.345703125 c 6
 683.72265625 399.350585938 l 5
 516.650390625 566.350585938 l 6
 489.499023438 593.489257812 551.087890625 664.982421875 592.873046875 672.830078125 c 5
 592.873046875 672.756835938 l 6
 595.287109375 673.215820312 597.65234375 673.484375 599.866210938 673.470703125 c 6
496.154296875 654.02734375 m 5
 446.456054688 601.739257812 401.075195312 501.983398438 394.857421875 431.356445312 c 5
 314.135742188 650.026367188 l 5
 496.154296875 654.02734375 l 5
1072.66796875 654.006835938 m 5
 1253.83105469 650.026367188 l 5
 1173.8515625 433.341796875 l 5
 1167.28417969 503.325195312 1121.95410156 602.182617188 1072.66796875 654.006835938 c 5
306.197265625 563.364257812 m 5
 451.174804688 171.0546875 l 5
 306.197265625 157.706054688 l 5
 306.197265625 563.364257812 l 5
1261.79296875 563.364257812 m 5
 1261.79296875 157.706054688 l 5
 1116.81542969 171.0546875 l 5
 1261.79296875 563.364257812 l 5
469.677734375 134.986328125 m 5
 673.447265625 -87.5185546875 l 5
 343.578125 123.508789062 l 5
 469.677734375 134.986328125 l 5
1098.3125 134.986328125 m 5
 1224.31933594 123.508789062 l 5
 894.545898438 -87.5185546875 l 5
 1098.3125 134.986328125 l 5
561.737304688 89.919921875 m 5
 617.05078125 52.8818359375 716.622070312 22.6513671875 783.995117188 22.4423828125 c 4
 851.368164062 22.6513671875 950.939453125 52.8818359375 1006.25195312 89.919921875 c 5
 783.995117188 -152.629882812 l 5
 561.737304688 89.919921875 l 5
EndSplineSet
LCarets2: 6 0 0 0 0 0 0
Ligature2: "'liga' Standard Ligatures in Latin lookup 0-1" f a i l u r e
EndChar

StartChar: check
Encoding: 99 -1 99
Width: 1386
VWidth: 1024
Flags: HW
LayerCount: 2
Fore
SplineSet
765.193359375 949.193359375 m 1
 352.369140625 685.287109375 l 1
 538.067382812 689.305664062 l 1
 602.776367188 739.360351562 682.287109375 768.391601562 765.193359375 772.237304688 c 1
 765.193359375 949.193359375 l 1
802.796875 949.193359375 m 1
 802.796875 773.08984375 l 1
 886.202148438 769.223632812 966.16015625 739.866210938 1031.06445312 689.279296875 c 1
 1215.69042969 685.287109375 l 1
 802.796875 949.193359375 l 1
788.561523438 670.23828125 m 0
 783.505859375 670.346679688 778.470703125 670.19140625 773.48046875 669.782226562 c 0
 733.557617188 666.50390625 696.545898438 650.32421875 659.65625 629.344726562 c 0
 638.408203125 617.260742188 630.979492188 590.241210938 643.0625 568.993164062 c 0
 655.146484375 547.744140625 682.166015625 540.31640625 703.4140625 552.3984375 c 0
 734.462890625 570.056640625 761.333984375 579.970703125 780.724609375 581.563476562 c 0
 800.116210938 583.15625 812.033203125 580.033203125 828.797851562 564.419921875 c 0
 844.549804688 549.751953125 844.853515625 543.985351562 841.640625 530.274414062 c 0
 838.426757812 516.564453125 824.646484375 494.166992188 798.883789062 471.178710938 c 0
 765.947265625 441.788085938 745.1875 413.809570312 737.04296875 382.325195312 c 0
 728.899414062 350.83984375 732.176757812 324.65234375 732.353515625 290.327148438 c 0
 732.478515625 265.8828125 752.395507812 246.168945312 776.837890625 246.294921875 c 0
 801.282226562 246.419921875 820.99609375 266.336914062 820.87109375 290.779296875 c 0
 820.677734375 328.25 819.891601562 349.147460938 822.739257812 360.157226562 c 0
 825.587890625 371.166992188 830.881835938 381.095703125 857.819335938 405.1328125 c 0
 891.9296875 435.571289062 918.284179688 469.377929688 927.821289062 510.077148438 c 0
 937.359375 550.77734375 923.033203125 597.624023438 889.124023438 629.201171875 c 0
 860.341796875 656.004882812 823.954101562 669.483398438 788.561523438 670.23828125 c 0
495.188476562 650.762695312 m 1
 312.55859375 646.747070312 l 1
 393.551757812 427.344726562 l 1
 400.879882812 510.580078125 436.616210938 589.138671875 495.188476562 650.762695312 c 1
1073.63671875 650.739257812 m 1
 1131.74902344 589.634765625 1167.41601562 511.848632812 1175.15917969 429.333007812 c 1
 1255.40722656 646.744140625 l 1
 1073.63671875 650.739257812 l 1
304.59375 559.791992188 m 1
 304.59375 152.772460938 l 1
 450.05859375 166.166015625 l 1
 304.59375 559.791992188 l 1
1263.39648438 559.791992188 m 1
 1117.93164062 166.166015625 l 1
 1263.39648438 152.772460938 l 1
 1263.39648438 559.791992188 l 1
777.063476562 208.834960938 m 0
 752.620117188 208.833984375 732.805664062 189.017578125 732.805664062 164.575195312 c 0
 732.805664062 140.131835938 752.620117188 120.31640625 777.063476562 120.314453125 c 0
 801.506835938 120.314453125 821.323242188 140.130859375 821.323242188 164.575195312 c 0
 821.323242188 189.018554688 801.506835938 208.834960938 777.063476562 208.834960938 c 0
468.623046875 129.9765625 m 1
 342.099609375 118.4609375 l 1
 673.076171875 -93.2744140625 l 1
 468.623046875 129.9765625 l 1
1099.3671875 129.9765625 m 1
 894.916992188 -93.2744140625 l 1
 1225.796875 118.4609375 l 1
 1099.3671875 129.9765625 l 1
560.9921875 84.7587890625 m 1
 783.995117188 -158.60546875 l 1
 1006.99804688 84.7587890625 l 1
 941.524414062 40.91796875 863.744140625 17.302734375 783.995117188 17.0546875 c 0
 704.24609375 17.3046875 626.46484375 40.91796875 560.9921875 84.7587890625 c 1
EndSplineSet
Ligature2: "'liga' Standard Ligatures in Latin lookup 0-1" c h e c k
EndChar
